<svg width="17" height="17" viewBox="0 0 17 17" fill="none" xmlns="http://www.w3.org/2000/svg">
<path d="M16.7906 5.39303L8.75561 0.0806911C8.59117 -0.026897 8.38957 -0.026897 8.243 0.0806911L0.208695 5.39303C-0.175944 5.64313 0.00707778 6.21602 0.464633 6.21602H1.92881V15.9094L1.12381 15.9087C1.01371 15.9087 0.940784 15.9982 0.940784 16.0876V16.8212C0.940784 16.9287 1.03229 17 1.12381 17H15.8758C15.9859 17 16.0588 16.9106 16.0588 16.8212V16.0876C16.0588 15.98 15.9673 15.9087 15.8758 15.9087H15.0886V6.21532H16.5528C16.9918 6.21532 17.1748 5.64315 16.7909 5.39303L16.7906 5.39303ZM13.5878 9.6854H11.3179C11.2078 9.6854 11.1349 9.59597 11.1349 9.50655V7.80749C11.1349 7.6999 11.2264 7.62864 11.3179 7.62864H13.587C13.6971 7.62864 13.77 7.71806 13.77 7.80749V9.50655C13.7708 9.59597 13.6971 9.6854 13.5877 9.6854H13.5878ZM13.7708 11.4019V13.101C13.7708 13.2086 13.6793 13.2798 13.5878 13.2798H11.3179C11.2078 13.2798 11.1349 13.1904 11.1349 13.101V11.4019C11.1349 11.2943 11.2264 11.2231 11.3179 11.2231H13.587C13.6971 11.2231 13.7708 11.295 13.7708 11.4019H13.7708ZM9.81714 7.80743V9.50649C9.81714 9.61408 9.72563 9.68534 9.63412 9.68534H7.36501C7.25491 9.68534 7.18198 9.59592 7.18198 9.50649V7.80743C7.18198 7.69984 7.25491 7.62858 7.36501 7.62858H9.63412C9.74422 7.62858 9.81714 7.71801 9.81714 7.80743ZM5.6812 9.68534H3.41136C3.30126 9.68534 3.22834 9.59592 3.22834 9.50649V7.80743C3.22834 7.69984 3.31985 7.62858 3.41136 7.62858H5.68047C5.79057 7.62858 5.86349 7.71801 5.86349 7.80743V9.50649C5.86421 9.59592 5.79057 9.68534 5.68119 9.68534H5.6812ZM5.86423 11.4019V13.1009C5.86423 13.2085 5.77271 13.2798 5.6812 13.2798H3.41136C3.30126 13.2798 3.22834 13.1904 3.22834 13.1009V11.4019C3.22834 11.2943 3.31985 11.223 3.41136 11.223H5.68047C5.79057 11.223 5.86421 11.295 5.86421 11.4019H5.86423ZM7.18184 15.9087V11.4019C7.18184 11.2943 7.25476 11.223 7.36486 11.223H9.63397C9.74407 11.223 9.81699 11.3125 9.81699 11.4019V15.9087H7.18184Z" fill="#999999"/>
</svg>
