<svg width="1206" height="170" viewBox="0 0 1206 170" fill="none" xmlns="http://www.w3.org/2000/svg">
<g filter="url(#filter0_d)">
<path fill-rule="evenodd" clip-rule="evenodd" d="M969 6C969 17.0457 960.046 26 949 26C937.954 26 929 17.0457 929 6H11C10.4477 6 10 6.44771 10 7V155C10 155.552 10.4477 156 11 156H929C929 144.954 937.954 136 949 136C960.046 136 969 144.954 969 156H1195C1195.55 156 1196 155.552 1196 155V7C1196 6.44772 1195.55 6 1195 6H969Z" fill="white"/>
</g>
<defs>
<filter id="filter0_d" x="0" y="0" width="1206" height="170" filterUnits="userSpaceOnUse" color-interpolation-filters="sRGB">
<feFlood flood-opacity="0" result="BackgroundImageFix"/>
<feColorMatrix in="SourceAlpha" type="matrix" values="0 0 0 0 0 0 0 0 0 0 0 0 0 0 0 0 0 0 127 0"/>
<feOffset dy="4"/>
<feGaussianBlur stdDeviation="5"/>
<feColorMatrix type="matrix" values="0 0 0 0 0 0 0 0 0 0 0 0 0 0 0 0 0 0 0.25 0"/>
<feBlend mode="normal" in2="BackgroundImageFix" result="effect1_dropShadow"/>
<feBlend mode="normal" in="SourceGraphic" in2="effect1_dropShadow" result="shape"/>
</filter>
</defs>
</svg>
