<svg width="172" height="162" viewBox="0 0 172 162" fill="none" xmlns="http://www.w3.org/2000/svg">
<g clip-path="url(#clip0)">
<path d="M5.0942 96.2303C5.0942 96.2303 4.94779 95.8012 4.71094 95.0032" stroke="#69F0AE" stroke-width="9" stroke-miterlimit="10"/>
<path d="M4.01794 92.5148C-1.21643 72.4351 -17.5354 -20.1075 146.054 37.6646" stroke="#0859F5" stroke-width="9" stroke-miterlimit="10" stroke-dasharray="12.04 12.04"/>
<path d="M147.279 38.0935L148.496 38.5226" stroke="#69F0AE" stroke-width="9" stroke-miterlimit="10"/>
<path d="M128.458 109.464C128.459 105.126 126.835 100.942 123.904 97.7336C120.973 94.5248 116.945 92.5212 112.609 92.115C108.273 91.7088 103.942 92.9291 100.461 95.5372C96.981 98.1454 94.6027 101.954 93.7919 106.217L40.0508 104.764L40.6407 113.963C40.6407 113.963 32.9776 131.58 73.2527 136.274V154.08H119.813V124.475C122.442 122.941 124.623 120.749 126.14 118.116C127.656 115.483 128.456 112.5 128.458 109.464Z" fill="url(#paint0_linear)"/>
<path d="M42.4868 114.349C42.4868 114.349 35.1488 131.22 73.7186 135.72V152.78H118.309V107.6L41.9141 105.539L42.4868 114.349Z" fill="#F6B9AD"/>
<path d="M64.7718 43.948C63.6091 45.776 61.7676 47.0712 59.6495 47.5507C57.5314 48.0302 55.309 47.6551 53.4676 46.5073L29.5264 30.7889C27.6917 29.6305 26.3918 27.7958 25.9105 25.6855C25.4291 23.5752 25.8056 21.3609 26.9577 19.5263C28.1203 17.7007 29.9602 16.4071 32.0762 15.9277C34.1922 15.4483 36.4126 15.8218 38.2533 16.967L62.1944 32.6853C64.0305 33.8424 65.3323 35.6765 65.8152 37.7869C66.2982 39.8973 65.923 42.1124 64.7718 43.948Z" fill="url(#paint1_linear)"/>
<path d="M63.4454 43.0877C62.3646 44.7868 60.6529 45.9907 58.6841 46.4365C56.7154 46.8822 54.6495 46.5336 52.9379 45.4668L30.6762 30.8553C28.9708 29.7786 27.7624 28.0731 27.315 26.1116C26.8676 24.15 27.2175 22.0918 28.2883 20.3864C29.3691 18.6873 31.0808 17.4834 33.0496 17.0376C35.0183 16.5918 37.0842 16.9404 38.7958 18.0073L61.0532 32.6209C62.7587 33.6969 63.9675 35.4017 64.4157 37.3628C64.864 39.3238 64.5151 41.382 63.4454 43.0877Z" fill="#F6B9AD"/>
<path d="M109.842 126.723C119.09 126.723 126.587 119.254 126.587 110.039C126.587 100.825 119.09 93.3557 109.842 93.3557C100.594 93.3557 93.0967 100.825 93.0967 110.039C93.0967 119.254 100.594 126.723 109.842 126.723Z" fill="#F6B9AD"/>
<path d="M106.828 0H42.6806C41.2239 0 40.043 1.17658 40.043 2.62795V122.218C40.043 123.67 41.2239 124.846 42.6806 124.846H106.828C108.285 124.846 109.466 123.67 109.466 122.218V2.62795C109.466 1.17658 108.285 0 106.828 0Z" fill="url(#paint2_linear)"/>
<path d="M105.59 1.68835H43.9184C42.2964 1.68835 40.9814 2.99844 40.9814 4.6145V120.236C40.9814 121.852 42.2964 123.162 43.9184 123.162H105.59C107.212 123.162 108.527 121.852 108.527 120.236V4.6145C108.527 2.99844 107.212 1.68835 105.59 1.68835Z" fill="white"/>
<path d="M91.7229 4.73254C91.5275 6.02078 90.8759 7.1968 89.8858 8.04789C88.8957 8.89899 87.6326 9.36895 86.3249 9.37276H62.9974C61.6902 9.36843 60.4276 8.89824 59.4379 8.0472C58.4483 7.19615 57.7969 6.02041 57.6016 4.73254H45.2424C44.9054 4.73226 44.5717 4.79814 44.2603 4.92642C43.949 5.05469 43.666 5.24285 43.4276 5.48013C43.1893 5.71742 43.0002 5.99917 42.8712 6.3093C42.7422 6.61943 42.6758 6.95185 42.6758 7.28756V117.554C42.6755 117.89 42.7416 118.223 42.8704 118.533C42.9991 118.843 43.188 119.125 43.4261 119.362C43.6643 119.6 43.9471 119.788 44.2583 119.917C44.5696 120.045 44.9033 120.112 45.2402 120.112H104.267C104.604 120.112 104.938 120.046 105.249 119.918C105.561 119.789 105.844 119.601 106.082 119.364C106.32 119.127 106.51 118.845 106.639 118.535C106.768 118.225 106.834 117.892 106.834 117.557V7.28971C106.834 6.954 106.768 6.62152 106.639 6.31128C106.511 6.00105 106.322 5.71913 106.084 5.48165C105.845 5.24417 105.563 5.05578 105.251 4.92724C104.94 4.7987 104.606 4.73254 104.269 4.73254H91.7229Z" fill="#CCD2DC"/>
<path d="M81.9455 6.18701H67.7539C67.516 6.18701 67.3232 6.37911 67.3232 6.61607V6.69544C67.3232 6.9324 67.516 7.1245 67.7539 7.1245H81.9455C82.1833 7.1245 82.3761 6.9324 82.3761 6.69544V6.61607C82.3761 6.37911 82.1833 6.18701 81.9455 6.18701Z" fill="#DBDBDB"/>
<path d="M85.5739 7.12449C85.8854 7.12449 86.138 6.87285 86.138 6.56243C86.138 6.25201 85.8854 6.00037 85.5739 6.00037C85.2623 6.00037 85.0098 6.25201 85.0098 6.56243C85.0098 6.87285 85.2623 7.12449 85.5739 7.12449Z" fill="#DBDBDB"/>
<path d="M120.669 112.981C115.809 114.1 112.474 110.943 111.35 106.103L100.183 64.7935C99.6496 62.4596 100.064 60.0101 101.337 57.9799C102.61 55.9497 104.637 54.5038 106.977 53.9578C109.319 53.426 111.778 53.8393 113.815 55.1075C115.853 56.3756 117.304 58.3955 117.852 60.7261L126.965 103.095C128.089 107.943 125.526 111.861 120.669 112.981Z" fill="url(#paint3_linear)"/>
<path d="M116.6 61.7396C115.652 57.6542 111.56 55.1075 107.46 56.0515C103.359 56.9954 100.803 61.0725 101.751 65.1578L112.019 109.435C112.966 113.52 117.058 116.067 121.158 115.123C125.259 114.179 127.815 110.102 126.867 106.016L116.6 61.7396Z" fill="#F6B9AD"/>
<path d="M126.518 147.198H62.7842V162H126.518V147.198Z" fill="url(#paint4_linear)"/>
<path d="M124.796 148.914H64.5068V160.498H124.796V148.914Z" fill="#FF8976"/>
<path d="M88.9732 39.1254L84.0339 35.4205L86.187 32.6317L82.5934 29.8214L80.3476 32.6574L75.2683 28.8496C75.0748 28.7049 74.8394 28.6267 74.5976 28.6267C74.3557 28.6267 74.1203 28.7049 73.9268 28.8496L60.463 38.8358C59.9527 39.2648 59.4747 39.7561 59.4704 40.8802H59.4554L59.4209 56.2661V56.9504C59.4203 57.1707 59.4633 57.389 59.5474 57.5927C59.6315 57.7965 59.7551 57.9818 59.911 58.1379C60.067 58.2941 60.2523 58.4182 60.4564 58.503C60.6604 58.5878 60.8793 58.6318 61.1004 58.6323H61.7636L74.5297 58.6602L87.9612 58.6902C88.1824 58.6908 88.4014 58.648 88.6059 58.5642C88.8104 58.4804 88.9964 58.3573 89.1531 58.2019C89.3099 58.0465 89.4344 57.8619 89.5195 57.6586C89.6047 57.4553 89.6488 57.2372 89.6493 57.0169L89.6859 40.9746H89.7139C89.7139 39.8483 89.4835 39.5544 88.9732 39.1254Z" fill="url(#paint5_linear)"/>
<path d="M88.3882 41.2085C88.3882 40.183 88.1728 39.9213 87.7121 39.5244L75.2086 30.156C75.0319 30.0239 74.8169 29.9525 74.596 29.9525C74.3751 29.9525 74.1601 30.0239 73.9834 30.156L61.6996 39.2691C61.4041 39.4794 61.1664 39.7604 61.0083 40.0862C60.8503 40.4119 60.777 40.772 60.7952 41.1334H60.7823L60.75 55.172V55.7963C60.7494 56.2022 60.9106 56.5917 61.198 56.8793C61.4854 57.1669 61.8757 57.329 62.2831 57.3302H62.8881L74.5368 57.3559L86.7905 57.3838C87.1979 57.3844 87.5888 57.2238 87.8775 56.9374C88.1661 56.6511 88.3289 56.2622 88.33 55.8564L88.3623 41.2192L88.3882 41.2085Z" fill="url(#paint6_linear)"/>
<path d="M61.0078 41.1896L88.1011 41.2508L88.0673 56.1025C88.0671 56.2203 88.0435 56.3368 87.998 56.4455C87.9526 56.5542 87.886 56.6529 87.8023 56.736C87.7185 56.8191 87.6191 56.8849 87.5098 56.9297C87.4005 56.9745 87.2834 56.9975 87.1653 56.9972L61.9732 56.9402C61.7099 56.9397 61.4577 56.8349 61.272 56.649C61.0862 56.4631 60.9822 56.2113 60.9828 55.949L61.0164 41.1896L61.0078 41.1896Z" fill="#F9D626"/>
<path opacity="0.2" d="M61.0078 41.1896L88.1011 41.2508L88.0673 56.1025C88.0671 56.2203 88.0435 56.3368 87.998 56.4455C87.9526 56.5542 87.886 56.6529 87.8023 56.736C87.7185 56.8191 87.6191 56.8849 87.5098 56.9297C87.4005 56.9745 87.2834 56.9975 87.1653 56.9972L61.9732 56.9402C61.7099 56.9397 61.4577 56.8349 61.272 56.649C61.0862 56.4631 60.9822 56.2113 60.9828 55.949L61.0164 41.1896L61.0078 41.1896Z" fill="white"/>
<path d="M61.0106 41.1849L60.9805 54.8267C60.9799 55.1019 61.0338 55.3746 61.139 55.6291C61.2442 55.8836 61.3986 56.115 61.5936 56.31C61.7885 56.505 62.0201 56.6599 62.2751 56.7657C62.5301 56.8716 62.8036 56.9264 63.0798 56.9269L85.9659 56.9784" fill="#F5F5F5"/>
<path d="M88.1063 41.245L88.0761 54.8953C88.0756 55.1706 88.0206 55.443 87.9143 55.6971C87.8081 55.9512 87.6527 56.1819 87.4569 56.3761C87.2612 56.5703 87.029 56.7243 86.7735 56.8291C86.5181 56.9339 86.2444 56.9875 85.9682 56.987L63.082 56.9355" fill="white"/>
<path d="M73.9808 30.5121L61.923 39.3721C61.6334 39.575 61.4 39.8476 61.2445 40.1645C61.089 40.4815 61.0165 40.8325 61.0337 41.1848L88.1401 41.2706C88.1401 40.2731 87.9247 40.0114 87.4769 39.6338L75.193 30.5164C75.0186 30.3851 74.8062 30.3136 74.5876 30.3129C74.369 30.3121 74.1561 30.382 73.9808 30.5121Z" fill="#F9D626"/>
<path opacity="0.2" d="M73.9808 30.5121L61.923 39.3721C61.6334 39.575 61.4 39.8476 61.2445 40.1645C61.089 40.4815 61.0165 40.8325 61.0337 41.1848L88.1401 41.2706C88.1401 40.2731 87.9247 40.0114 87.4769 39.6338L75.193 30.5164C75.0186 30.3851 74.8062 30.3136 74.5876 30.3129C74.369 30.3121 74.1561 30.382 73.9808 30.5121Z" fill="black"/>
<path d="M85.171 33.5949L81.8917 31.0334L73.9658 41.0347L69.7068 37.7438L67.0391 41.1226L73.2381 45.8401L74.7754 47.0693L85.171 33.5949Z" fill="url(#paint7_linear)"/>
<path d="M59.6297 66.4626C58.4755 68.2768 56.6477 69.5622 54.5454 70.0381C52.4431 70.514 50.2372 70.1417 48.4095 69.0026L28.062 55.8028C26.2412 54.6528 24.951 52.8316 24.4734 50.7371C23.9957 48.6425 24.3693 46.4448 25.5126 44.6238C26.6669 42.8096 28.4947 41.5242 30.597 41.0483C32.6993 40.5724 34.9051 40.9446 36.7328 42.0838L57.0804 55.2836C58.9012 56.4336 60.1913 58.2547 60.669 60.3493C61.1467 62.4438 60.773 64.6416 59.6297 66.4626Z" fill="url(#paint8_linear)"/>
<path d="M58.5491 65.7675C57.4683 67.4666 55.7566 68.6706 53.7878 69.1163C51.819 69.5621 49.7532 69.2135 48.0416 68.1466L28.9838 55.7834C27.2784 54.7067 26.0701 53.0012 25.6226 51.0397C25.1752 49.0781 25.5251 47.0199 26.5959 45.3145C27.6767 43.6154 29.3884 42.4115 31.3572 41.9657C33.326 41.5199 35.3918 41.8685 37.1034 42.9354L56.1612 55.2986C57.8666 56.3754 59.0749 58.0808 59.5224 60.0423C59.9698 62.0039 59.6199 64.0622 58.5491 65.7675Z" fill="#F6B9AD"/>
<path d="M55.4786 88.2628C54.3301 90.069 52.5107 91.3489 50.418 91.8228C48.3253 92.2968 46.1294 91.9262 44.3101 90.7921L28.2517 80.4412C26.4389 79.2969 25.1543 77.4842 24.6786 75.3992C24.2029 73.3142 24.5749 71.1263 25.7131 69.3137C26.8617 67.5075 28.681 66.2276 30.7737 65.7537C32.8664 65.2797 35.0623 65.6503 36.8817 66.7844L52.9379 77.1375C54.7505 78.2814 56.0351 80.0936 56.5112 82.1781C56.9872 84.2626 56.616 86.4501 55.4786 88.2628Z" fill="url(#paint9_linear)"/>
<path d="M51.4481 110.175C50.2893 111.997 48.4535 113.289 46.3418 113.767C44.2302 114.246 42.0143 113.872 40.1784 112.727L30.2329 105.498C28.4034 104.343 27.1069 102.514 26.6268 100.41C26.1467 98.3064 26.522 96.0986 27.6706 94.2695C28.8307 92.4481 30.6672 91.1582 32.7788 90.6815C34.8903 90.2048 37.1055 90.58 38.9403 91.7252L48.8858 98.9526C50.7135 100.107 52.0087 101.935 52.4888 104.037C52.9688 106.14 52.5947 108.346 51.4481 110.175Z" fill="url(#paint10_linear)"/>
<path d="M50.6449 109.636C49.5642 111.335 47.8525 112.539 45.8837 112.985C43.9149 113.431 41.849 113.082 40.1374 112.015L30.8637 105.275C29.1583 104.198 27.9499 102.493 27.5025 100.531C27.0551 98.5695 27.405 96.5112 28.4758 94.8058C29.5566 93.1067 31.2683 91.9028 33.2371 91.457C35.2058 91.0113 37.2717 91.3599 38.9833 92.4267L48.257 99.1672C49.9624 100.244 51.1708 101.949 51.6182 103.911C52.0656 105.872 51.7157 107.931 50.6449 109.636Z" fill="#F6B9AD"/>
<path d="M96.7168 69.4144H52.792V82.5005H96.7168V69.4144Z" fill="url(#paint11_linear)"/>
<path d="M95.2092 70.7015H54.2988V80.1407H95.2092V70.7015Z" fill="#0859F5"/>
<path d="M171.227 46.0203L172 46.1404L171.88 46.0267H171.944L171.843 45.9924L157.828 32.7496L154.426 38.0978L151.597 42.9761L152.908 43.1799L152.327 45.8229L171.227 46.0203Z" fill="url(#paint12_linear)"/>
<path d="M155.013 38.3767L152.43 42.841L171.378 45.9151L159.173 37.4478L155.013 38.3767Z" fill="#F9D626"/>
<path opacity="0.2" d="M155.013 38.3767L152.43 42.841L171.378 45.9151L159.173 37.4478L155.013 38.3767Z" fill="black"/>
<path d="M158.125 33.4856L171.378 45.9153L155.014 38.3768L158.125 33.4856Z" fill="#F9D626"/>
<path d="M153.128 45.4647L171.327 45.8101L154.338 39.7991L153.128 45.4647Z" fill="#F9D626"/>
<path d="M54.596 87.7029C53.5153 89.4021 51.8036 90.606 49.8348 91.0518C47.866 91.4975 45.8002 91.1489 44.0885 90.082L28.9818 80.3425C27.2765 79.2657 26.0681 77.5603 25.6207 75.5988C25.1733 73.6372 25.5232 71.5789 26.594 69.8736C27.673 68.1727 29.3839 66.9665 31.3528 66.5187C33.3218 66.0709 35.3885 66.4179 37.1015 67.4838L52.2082 77.2233C53.9165 78.3002 55.127 80.0076 55.5745 81.9717C56.0221 83.9359 55.6702 85.9967 54.596 87.7029Z" fill="#F6B9AD"/>
</g>
<defs>
<linearGradient id="paint0_linear" x1="84.2576" y1="154.088" x2="84.2576" y2="92.0406" gradientUnits="userSpaceOnUse">
<stop stop-color="#808080" stop-opacity="0.25"/>
<stop offset="0.54" stop-color="#808080" stop-opacity="0.12"/>
<stop offset="1" stop-color="#808080" stop-opacity="0.1"/>
</linearGradient>
<linearGradient id="paint1_linear" x1="16608.8" y1="9466.03" x2="16608.8" y2="4682.58" gradientUnits="userSpaceOnUse">
<stop stop-color="#808080" stop-opacity="0.25"/>
<stop offset="0.54" stop-color="#808080" stop-opacity="0.12"/>
<stop offset="1" stop-color="#808080" stop-opacity="0.1"/>
</linearGradient>
<linearGradient id="paint2_linear" x1="37868.8" y1="81682.5" x2="37868.8" y2="9027.06" gradientUnits="userSpaceOnUse">
<stop stop-color="#808080" stop-opacity="0.25"/>
<stop offset="0.54" stop-color="#808080" stop-opacity="0.12"/>
<stop offset="1" stop-color="#808080" stop-opacity="0.1"/>
</linearGradient>
<linearGradient id="paint3_linear" x1="19895.2" y1="35746.6" x2="19895.2" y2="19255.9" gradientUnits="userSpaceOnUse">
<stop stop-color="#808080" stop-opacity="0.25"/>
<stop offset="0.54" stop-color="#808080" stop-opacity="0.12"/>
<stop offset="1" stop-color="#808080" stop-opacity="0.1"/>
</linearGradient>
<linearGradient id="paint4_linear" x1="40678.5" y1="12381.6" x2="40678.5" y2="11360.3" gradientUnits="userSpaceOnUse">
<stop stop-color="#808080" stop-opacity="0.25"/>
<stop offset="0.54" stop-color="#808080" stop-opacity="0.12"/>
<stop offset="1" stop-color="#808080" stop-opacity="0.1"/>
</linearGradient>
<linearGradient id="paint5_linear" x1="74.5663" y1="58.6881" x2="74.5663" y2="28.6243" gradientUnits="userSpaceOnUse">
<stop stop-opacity="0.12"/>
<stop offset="0.55" stop-opacity="0.09"/>
<stop offset="1" stop-opacity="0.02"/>
</linearGradient>
<linearGradient id="paint6_linear" x1="15113.9" y1="9352.75" x2="15113.9" y2="5845.38" gradientUnits="userSpaceOnUse">
<stop stop-color="#808080" stop-opacity="0.25"/>
<stop offset="0.54" stop-color="#808080" stop-opacity="0.12"/>
<stop offset="1" stop-color="#808080" stop-opacity="0.1"/>
</linearGradient>
<linearGradient id="paint7_linear" x1="10010.6" y1="4719.63" x2="10013.3" y2="3519.66" gradientUnits="userSpaceOnUse">
<stop stop-opacity="0.12"/>
<stop offset="0.55" stop-opacity="0.09"/>
<stop offset="1" stop-opacity="0.02"/>
</linearGradient>
<linearGradient id="paint8_linear" x1="14520.2" y1="11794.3" x2="14520.2" y2="7766.47" gradientUnits="userSpaceOnUse">
<stop stop-color="#808080" stop-opacity="0.25"/>
<stop offset="0.54" stop-color="#808080" stop-opacity="0.12"/>
<stop offset="1" stop-color="#808080" stop-opacity="0.1"/>
</linearGradient>
<linearGradient id="paint9_linear" x1="12496" y1="13338.5" x2="12496" y2="10071.9" gradientUnits="userSpaceOnUse">
<stop stop-color="#808080" stop-opacity="0.25"/>
<stop offset="0.54" stop-color="#808080" stop-opacity="0.12"/>
<stop offset="1" stop-color="#808080" stop-opacity="0.1"/>
</linearGradient>
<linearGradient id="paint10_linear" x1="10063.4" y1="14271.7" x2="10063.4" y2="11698.7" gradientUnits="userSpaceOnUse">
<stop stop-color="#808080" stop-opacity="0.25"/>
<stop offset="0.54" stop-color="#808080" stop-opacity="0.12"/>
<stop offset="1" stop-color="#808080" stop-opacity="0.1"/>
</linearGradient>
<linearGradient id="paint11_linear" x1="15302.6" y1="5101.94" x2="15302.6" y2="4303.68" gradientUnits="userSpaceOnUse">
<stop stop-opacity="0.12"/>
<stop offset="0.55" stop-opacity="0.09"/>
<stop offset="1" stop-opacity="0.02"/>
</linearGradient>
<linearGradient id="paint12_linear" x1="14253.9" y1="14199.6" x2="14720.1" y2="13461.1" gradientUnits="userSpaceOnUse">
<stop stop-color="#808080" stop-opacity="0.25"/>
<stop offset="0.54" stop-color="#808080" stop-opacity="0.12"/>
<stop offset="1" stop-color="#808080" stop-opacity="0.1"/>
</linearGradient>
<clipPath id="clip0">
<rect width="172" height="162" fill="white"/>
</clipPath>
</defs>
</svg>
