<svg width="584" height="413" viewBox="0 0 584 413" fill="none" xmlns="http://www.w3.org/2000/svg">
<ellipse cx="282.598" cy="294.101" rx="282.598" ry="118.391" fill="url(#paint0_linear)"/>
<ellipse cx="282.598" cy="285.242" rx="282.598" ry="118.391" fill="url(#paint1_linear)"/>
<g filter="url(#filter0_f)">
<path d="M217.725 355.904L103.05 309.799L293.432 209.093L405.795 261.031L217.725 355.904Z" fill="#324056"/>
</g>
<path d="M120.949 312.212C132 311.529 140.194 298.608 139.251 283.352C138.308 268.096 128.585 256.282 117.534 256.965C106.483 257.648 98.2893 270.569 99.2323 285.825C100.175 301.081 109.898 312.895 120.949 312.212Z" fill="#7785A0"/>
<path d="M121.145 310.299C129.57 310.186 136.238 297.924 136.036 282.911C135.835 267.898 128.841 255.819 120.416 255.932C111.99 256.045 105.322 268.307 105.524 283.32C105.725 298.333 112.719 310.412 121.145 310.299Z" fill="#C3CDE0"/>
<path d="M217.954 337.388L106.606 299.642C96.634 296.262 89.7839 287.015 89.4039 276.449L87.0671 209.547C86.333 188.317 98.387 168.748 117.64 159.918L229.508 108.649C259.787 94.7866 293.941 91.9181 326.109 100.567L376.894 113.465C397.531 118.716 412.172 137.104 412.722 158.473L413.93 206.589C414.615 226.757 403.536 245.477 385.546 254.486L219.555 337.306L217.954 337.388Z" fill="url(#paint2_linear)"/>
<path d="M217.954 337.388L106.606 299.642C96.634 296.262 89.7839 287.015 89.4039 276.449L87.0671 209.547C86.333 188.317 98.387 168.748 117.64 159.918L229.508 108.649C259.787 94.7866 293.941 91.9181 326.109 100.567L376.894 113.465C397.531 118.716 412.172 137.104 412.722 158.473L413.93 206.589C414.615 226.757 403.536 245.477 385.546 254.486L219.555 337.306L217.954 337.388Z" fill="url(#paint3_linear)"/>
<path d="M217.954 337.388L106.606 299.642C96.634 296.262 89.7839 287.015 89.4039 276.449L87.0671 209.547C86.333 188.317 98.387 168.748 117.64 159.918L229.508 108.649C259.787 94.7866 293.941 91.9181 326.109 100.567L376.894 113.465C397.531 118.716 412.172 137.104 412.722 158.473L413.93 206.589C414.615 226.757 403.536 245.477 385.546 254.486L219.555 337.306L217.954 337.388Z" fill="url(#paint4_linear)"/>
<path d="M230.384 219.257C226.92 220.923 224.718 224.426 224.718 228.269L224.718 334.66L402.36 246.573L398.576 153.862C398.283 146.678 390.73 142.142 384.25 145.258L230.384 219.257Z" fill="#9CAAC6"/>
<path d="M230.384 219.257C226.92 220.923 224.718 224.426 224.718 228.269L224.718 334.66L402.36 246.573L398.576 153.862C398.283 146.678 390.73 142.142 384.25 145.258L230.384 219.257Z" fill="url(#paint5_linear)"/>
<mask id="mask0" mask-type="alpha" maskUnits="userSpaceOnUse" x="236" y="143" width="164" height="183">
<path d="M249.065 209.861C245.745 211.468 243.579 214.77 243.429 218.454L239.07 325.002L396.932 246.015L397.429 154.07C397.469 146.669 389.735 141.791 383.073 145.014L249.065 209.861Z" fill="#9CAAC6"/>
</mask>
<g mask="url(#mask0)">
<path d="M303.629 170.231L387.535 200.076L390.352 131.205L308.166 100.419L303.629 170.231Z" fill="url(#paint6_linear)"/>
</g>
<path d="M284.543 201.062L381.806 236.726L357.717 249.877L259.585 213.174L284.543 201.062Z" fill="#E7EEF6"/>
<path d="M284.543 201.062L381.806 236.726L357.717 249.877L259.585 213.174L284.543 201.062Z" fill="url(#paint7_linear)"/>
<path d="M357.582 249.877V242.169L259.219 205.466L250.41 209.871L357.582 249.877Z" fill="#78879F"/>
<path d="M284.177 193.354L381.44 229.019L357.35 242.169L259.219 205.466L284.177 193.354Z" fill="#E7EEF6"/>
<path d="M284.177 193.354L381.44 229.019L357.35 242.169L259.219 205.466L284.177 193.354Z" fill="url(#paint8_linear)"/>
<mask id="mask1" mask-type="alpha" maskUnits="userSpaceOnUse" x="213" y="142" width="197" height="192">
<path d="M230.415 218.523C226.951 220.189 224.749 223.692 224.749 227.535L224.749 333.926L402.391 245.839L398.607 153.128C398.313 145.944 390.761 141.408 384.281 144.524L230.415 218.523Z" fill="#9CAAC6"/>
<path d="M230.415 218.523C226.951 220.189 224.749 223.692 224.749 227.535L224.749 333.926L402.391 245.839L398.607 153.128C398.313 145.944 390.761 141.408 384.281 144.524L230.415 218.523Z" fill="url(#paint9_linear)"/>
</mask>
<g mask="url(#mask1)">
<path d="M224.126 304.015V296.307L125.762 259.604L116.954 264.009L224.126 304.015Z" fill="#78879F"/>
<path d="M150.721 247.493L247.983 283.157L223.894 296.307L125.763 259.605L150.721 247.493Z" fill="#E7EEF6"/>
<path d="M150.721 247.493L247.983 283.157L223.894 296.307L125.763 259.605L150.721 247.493Z" fill="url(#paint10_linear)"/>
<path d="M247.84 292.452V283.276L224.717 295.755V306.399L247.84 292.452Z" fill="url(#paint11_linear)"/>
</g>
<path d="M106.942 211.316L110.106 281.214L206.669 310.703L202.501 243.285C201.235 222.798 212.182 203.506 230.392 194.161L382.514 116.099L318.838 99.0827C306.454 96.1734 288.289 98.6984 276.789 104.115L129.701 173.485C115.191 180.329 106.221 195.244 106.942 211.316Z" fill="url(#paint12_linear)"/>
<path d="M106.636 280.486L202.499 312.229L202.499 243.268L106.635 217.298L106.636 280.486Z" fill="url(#paint13_linear)"/>
<path d="M386.007 277.26C397.079 277.226 406.017 264.807 405.97 249.522C405.923 234.237 396.91 221.874 385.838 221.908C374.766 221.942 365.828 234.36 365.875 249.645C365.922 264.93 374.935 277.293 386.007 277.26Z" fill="#7B88A3"/>
<path d="M202.5 226.919L202.5 243.268L106.136 216.99L106.136 199.144L202.5 226.919Z" fill="#C3CDE0"/>
<path d="M391.997 277.436C400.424 277.41 407.218 265.218 407.172 250.203C407.126 235.189 400.257 223.038 391.831 223.064C383.404 223.09 376.61 235.282 376.656 250.297C376.702 265.311 383.571 277.462 391.997 277.436Z" fill="#D7DFEE"/>
<path d="M392.645 258.447C395.196 258.289 397.008 254.039 396.694 248.954C396.38 243.868 394.057 239.874 391.507 240.031C388.957 240.189 387.144 244.439 387.459 249.524C387.773 254.61 390.095 258.604 392.645 258.447Z" fill="#C3CDE0"/>
<path d="M247.167 344.241C258.235 344.546 267.549 332.407 267.97 317.128C268.391 301.849 259.76 289.215 248.693 288.91C237.625 288.605 228.311 300.744 227.89 316.023C227.469 331.302 236.1 343.936 247.167 344.241Z" fill="#7785A0"/>
<path d="M254.469 344.442C262.892 344.674 270.056 332.696 270.47 317.687C270.884 302.678 264.391 290.323 255.967 290.091C247.544 289.859 240.38 301.837 239.966 316.846C239.552 331.855 246.045 344.21 254.469 344.442Z" fill="#D7DFEE"/>
<path d="M257.037 325.341C259.592 325.375 261.716 321.271 261.782 316.177C261.848 311.082 259.831 306.925 257.276 306.892C254.721 306.859 252.596 310.962 252.53 316.057C252.464 321.152 254.482 325.308 257.037 325.341Z" fill="#C3CDE0"/>
<path fill-rule="evenodd" clip-rule="evenodd" d="M583.191 7.59991C583.191 5.39078 581.4 3.59991 579.191 3.59991H386.012C383.803 3.59991 382.012 5.39078 382.012 7.59992V89.0129C382.012 91.222 383.803 93.0129 386.012 93.0129H402.969C405.179 93.0129 406.969 94.8037 406.969 97.0129V106.604C406.969 109.722 410.378 111.641 413.044 110.024L440.134 93.5928C440.759 93.2135 441.476 93.0129 442.208 93.0129H579.191C581.4 93.0129 583.191 91.222 583.191 89.0129V7.59991Z" fill="#D2DAEA"/>
<path fill-rule="evenodd" clip-rule="evenodd" d="M578.052 4.6637C578.052 2.45456 576.261 0.663696 574.052 0.663696H380.873C378.663 0.663696 376.873 2.45456 376.873 4.6637V86.0766C376.873 88.2858 378.663 90.0766 380.873 90.0766H397.831C400.04 90.0766 401.831 91.8675 401.831 94.0766V103.668C401.831 106.786 405.24 108.705 407.906 107.088L434.995 90.6566C435.621 90.2772 436.338 90.0766 437.07 90.0766H574.052C576.261 90.0766 578.052 88.2858 578.052 86.0766V4.6637Z" fill="#F3F5FA"/>
<path d="M400.969 47.2433C400.969 47.6737 401.037 48.0645 401.173 48.4156C401.309 48.7667 401.49 49.0669 401.716 49.3161C401.954 49.5653 402.232 49.7578 402.549 49.8937C402.877 50.0297 403.229 50.0976 403.602 50.0976C403.976 50.0976 404.322 50.0297 404.639 49.8937C404.956 49.7578 405.233 49.5653 405.471 49.3161C405.709 49.0556 405.89 48.7554 406.015 48.4156C406.151 48.0645 406.219 47.6737 406.219 47.2433V40.0056H408.512V51.8986H406.236V51.0491C405.839 51.3889 405.392 51.655 404.894 51.8476C404.395 52.0401 403.868 52.1364 403.313 52.1364C402.645 52.1364 402.028 52.0232 401.462 51.7966C400.907 51.5701 400.42 51.2529 400 50.8452C399.581 50.4261 399.253 49.9277 399.015 49.3501C398.788 48.7611 398.675 48.1098 398.675 47.3962V40.0056H400.969V47.2433ZM410.208 40.0056H415.255C415.776 40.0056 416.257 40.1018 416.699 40.2944C417.152 40.4756 417.543 40.7305 417.871 41.0589C418.211 41.3874 418.471 41.7725 418.653 42.2143C418.845 42.656 418.941 43.1317 418.941 43.6414C418.941 44.1511 418.845 44.6325 418.653 45.0856C418.471 45.5273 418.211 45.9181 417.871 46.2579C417.543 46.5864 417.152 46.8469 416.699 47.0394C416.257 47.2206 415.776 47.3113 415.255 47.3113H412.502V51.8986H410.208V40.0056ZM412.502 42.0104V45.3574H415.051C415.538 45.3574 415.923 45.1988 416.206 44.8817C416.489 44.5532 416.631 44.1511 416.631 43.6754C416.631 43.1997 416.489 42.8032 416.206 42.4861C415.923 42.169 415.538 42.0104 415.051 42.0104H412.502ZM423.337 40.0056H432.954V42.0104H429.284V51.8986H426.99V42.0104H423.337V40.0056ZM432.883 45.9521C432.883 45.0912 433.042 44.287 433.359 43.5395C433.688 42.7919 434.135 42.1406 434.701 41.5856C435.279 41.0306 435.953 40.5945 436.723 40.2774C437.493 39.9489 438.326 39.7847 439.221 39.7847C440.104 39.7847 440.931 39.9489 441.701 40.2774C442.472 40.5945 443.14 41.0306 443.706 41.5856C444.284 42.1406 444.731 42.7919 445.048 43.5395C445.377 44.287 445.541 45.0912 445.541 45.9521C445.541 46.8129 445.377 47.6171 445.048 48.3646C444.731 49.1122 444.284 49.7635 443.706 50.3185C443.14 50.8735 442.472 51.3152 441.701 51.6437C440.931 51.9609 440.104 52.1194 439.221 52.1194C438.326 52.1194 437.493 51.9609 436.723 51.6437C435.953 51.3152 435.279 50.8735 434.701 50.3185C434.135 49.7635 433.688 49.1122 433.359 48.3646C433.042 47.6171 432.883 46.8129 432.883 45.9521ZM435.228 45.9521C435.228 46.5297 435.33 47.0677 435.534 47.5661C435.749 48.0532 436.032 48.4836 436.383 48.8573C436.746 49.2198 437.171 49.503 437.658 49.7068C438.145 49.9107 438.666 50.0127 439.221 50.0127C439.776 50.0127 440.297 49.9107 440.784 49.7068C441.271 49.503 441.69 49.2198 442.041 48.8573C442.404 48.4836 442.687 48.0532 442.891 47.5661C443.094 47.0677 443.196 46.5297 443.196 45.9521C443.196 45.3744 443.094 44.842 442.891 44.355C442.687 43.8566 442.404 43.4262 442.041 43.0638C441.69 42.7013 441.271 42.4181 440.784 42.2143C440.297 41.9991 439.776 41.8914 439.221 41.8914C438.666 41.8914 438.145 41.9991 437.658 42.2143C437.171 42.4181 436.746 42.7013 436.383 43.0638C436.032 43.4262 435.749 43.8566 435.534 44.355C435.33 44.842 435.228 45.3744 435.228 45.9521ZM450.394 51.8986V40.0056H457.886V42.0104H452.687V44.9666H457.717V46.9205H452.687V51.8986H450.394ZM459.519 51.8986V40.0056H461.813V51.8986H459.519ZM462.992 40.0056H472.608V42.0104H468.938V51.8986H466.644V42.0104H462.992V40.0056ZM475.576 48.2117C475.666 48.8234 475.921 49.3104 476.34 49.6729C476.771 50.024 477.354 50.1996 478.09 50.1996C478.759 50.1996 479.257 50.0636 479.585 49.7918C479.925 49.5086 480.095 49.1518 480.095 48.7214C480.095 48.3703 479.965 48.0701 479.704 47.821C479.444 47.5604 479.087 47.3736 478.634 47.2603L476.612 46.7506C475.547 46.4787 474.755 46.071 474.234 45.5273C473.713 44.9723 473.452 44.2474 473.452 43.3526C473.452 42.8089 473.554 42.3219 473.758 41.8914C473.973 41.4497 474.262 41.0759 474.624 40.7701C474.998 40.4643 475.434 40.2264 475.933 40.0565C476.442 39.8866 476.986 39.8017 477.564 39.8017C478.175 39.8017 478.742 39.898 479.263 40.0905C479.784 40.2717 480.237 40.5322 480.622 40.872C481.018 41.2005 481.341 41.597 481.59 42.0613C481.839 42.5257 482.004 43.0411 482.083 43.6074H479.84C479.716 43.0185 479.461 42.5541 479.076 42.2143C478.702 41.8745 478.192 41.7046 477.547 41.7046C477.026 41.7046 476.59 41.8348 476.238 42.0953C475.899 42.3445 475.729 42.707 475.729 43.1827C475.729 43.5678 475.853 43.8736 476.102 44.1001C476.363 44.3267 476.725 44.5022 477.19 44.6268L479.195 45.1535C480.305 45.448 481.109 45.8614 481.607 46.3938C482.117 46.9262 482.372 47.6397 482.372 48.5345C482.372 49.0442 482.27 49.5143 482.066 49.9447C481.862 50.3751 481.573 50.7546 481.199 51.083C480.826 51.4002 480.373 51.6494 479.84 51.8306C479.319 52.0118 478.73 52.1024 478.073 52.1024C477.428 52.1024 476.822 52.0118 476.255 51.8306C475.7 51.638 475.213 51.3719 474.794 51.0321C474.386 50.6809 474.052 50.2675 473.792 49.7918C473.543 49.3161 473.395 48.7894 473.35 48.2117H475.576ZM495.911 48.4666C495.911 48.9989 495.797 49.4916 495.571 49.9447C495.344 50.3864 495.027 50.7716 494.619 51.1C494.223 51.4285 493.753 51.6834 493.209 51.8646C492.666 52.0458 492.077 52.1364 491.442 52.1364C490.808 52.1364 490.213 52.0458 489.658 51.8646C489.115 51.6834 488.639 51.4285 488.231 51.1C487.835 50.7716 487.523 50.3864 487.297 49.9447C487.07 49.4916 486.957 48.9989 486.957 48.4666C486.957 47.8663 487.121 47.3282 487.45 46.8525C487.778 46.3655 488.214 45.986 488.758 45.7142C488.327 45.431 487.988 45.0799 487.739 44.6608C487.489 44.2417 487.365 43.7773 487.365 43.2676C487.365 42.7806 487.467 42.3275 487.671 41.9084C487.886 41.4894 488.175 41.1269 488.537 40.8211C488.899 40.5039 489.33 40.2604 489.828 40.0905C490.327 39.9093 490.865 39.8187 491.442 39.8187C492.02 39.8187 492.552 39.9093 493.039 40.0905C493.538 40.2604 493.968 40.5039 494.331 40.8211C494.704 41.1269 494.993 41.4894 495.197 41.9084C495.401 42.3275 495.503 42.7806 495.503 43.2676C495.503 43.7773 495.378 44.2474 495.129 44.6778C494.88 45.0969 494.546 45.4424 494.127 45.7142C494.67 45.986 495.101 46.3655 495.418 46.8525C495.746 47.3282 495.911 47.8663 495.911 48.4666ZM491.442 41.6876C490.91 41.6876 490.468 41.8348 490.117 42.1293C489.777 42.4238 489.607 42.8089 489.607 43.2846C489.607 43.5225 489.653 43.7377 489.743 43.9302C489.845 44.1228 489.976 44.2927 490.134 44.4399C490.304 44.5872 490.497 44.7005 490.712 44.7797C490.938 44.859 491.182 44.8987 491.442 44.8987C491.692 44.8987 491.924 44.859 492.139 44.7797C492.365 44.7005 492.564 44.5872 492.734 44.4399C492.903 44.2927 493.034 44.1228 493.124 43.9302C493.226 43.7377 493.277 43.5225 493.277 43.2846C493.277 42.8089 493.102 42.4238 492.751 42.1293C492.399 41.8348 491.963 41.6876 491.442 41.6876ZM491.442 46.7166C491.137 46.7166 490.848 46.7619 490.576 46.8525C490.304 46.9431 490.066 47.0677 489.862 47.2263C489.67 47.3849 489.517 47.5774 489.404 47.804C489.29 48.0192 489.234 48.257 489.234 48.5175C489.234 48.7781 489.29 49.0159 489.404 49.2311C489.517 49.435 489.67 49.6162 489.862 49.7748C490.066 49.9334 490.298 50.058 490.559 50.1486C490.831 50.2279 491.125 50.2675 491.442 50.2675C491.748 50.2675 492.037 50.2279 492.309 50.1486C492.581 50.058 492.813 49.9334 493.005 49.7748C493.198 49.6162 493.351 49.435 493.464 49.2311C493.577 49.0159 493.634 48.7781 493.634 48.5175C493.634 48.257 493.577 48.0192 493.464 47.804C493.351 47.5774 493.192 47.3849 492.988 47.2263C492.796 47.0677 492.564 46.9431 492.292 46.8525C492.031 46.7619 491.748 46.7166 491.442 46.7166ZM500.8 40.0056H505.846C506.367 40.0056 506.848 40.1018 507.29 40.2944C507.743 40.4756 508.134 40.7305 508.462 41.0589C508.802 41.3874 509.062 41.7725 509.244 42.2143C509.436 42.656 509.533 43.1317 509.533 43.6414C509.533 44.1511 509.436 44.6325 509.244 45.0856C509.062 45.5273 508.802 45.9181 508.462 46.2579C508.134 46.5864 507.743 46.8469 507.29 47.0394C506.848 47.2206 506.367 47.3113 505.846 47.3113H503.093V51.8986H500.8V40.0056ZM503.093 42.0104V45.3574H505.642C506.129 45.3574 506.514 45.1988 506.797 44.8817C507.08 44.5532 507.222 44.1511 507.222 43.6754C507.222 43.1997 507.08 42.8032 506.797 42.4861C506.514 42.169 506.129 42.0104 505.642 42.0104H503.093ZM511.037 40.0056H518.529V42.0104H513.33V44.9496H518.36V46.9035H513.33V49.8937H518.529V51.8986H511.037V40.0056ZM519.742 45.9521C519.742 45.0912 519.9 44.287 520.217 43.5395C520.546 42.7919 520.993 42.1406 521.559 41.5856C522.137 41.0306 522.811 40.5945 523.581 40.2774C524.352 39.9489 525.184 39.7847 526.079 39.7847C526.962 39.7847 527.789 39.9489 528.559 40.2774C529.33 40.5945 529.998 41.0306 530.564 41.5856C531.142 42.1406 531.589 42.7919 531.906 43.5395C532.235 44.287 532.399 45.0912 532.399 45.9521C532.399 46.8129 532.235 47.6171 531.906 48.3646C531.589 49.1122 531.142 49.7635 530.564 50.3185C529.998 50.8735 529.33 51.3152 528.559 51.6437C527.789 51.9609 526.962 52.1194 526.079 52.1194C525.184 52.1194 524.352 51.9609 523.581 51.6437C522.811 51.3152 522.137 50.8735 521.559 50.3185C520.993 49.7635 520.546 49.1122 520.217 48.3646C519.9 47.6171 519.742 46.8129 519.742 45.9521ZM522.086 45.9521C522.086 46.5297 522.188 47.0677 522.392 47.5661C522.607 48.0532 522.89 48.4836 523.241 48.8573C523.604 49.2198 524.029 49.503 524.516 49.7068C525.003 49.9107 525.524 50.0127 526.079 50.0127C526.634 50.0127 527.155 49.9107 527.642 49.7068C528.129 49.503 528.548 49.2198 528.899 48.8573C529.262 48.4836 529.545 48.0532 529.749 47.5661C529.953 47.0677 530.054 46.5297 530.054 45.9521C530.054 45.3744 529.953 44.842 529.749 44.355C529.545 43.8566 529.262 43.4262 528.899 43.0638C528.548 42.7013 528.129 42.4181 527.642 42.2143C527.155 41.9991 526.634 41.8914 526.079 41.8914C525.524 41.8914 525.003 41.9991 524.516 42.2143C524.029 42.4181 523.604 42.7013 523.241 43.0638C522.89 43.4262 522.607 43.8566 522.392 44.355C522.188 44.842 522.086 45.3744 522.086 45.9521ZM533.851 40.0056H538.897C539.418 40.0056 539.899 40.1018 540.341 40.2944C540.794 40.4756 541.185 40.7305 541.513 41.0589C541.853 41.3874 542.113 41.7725 542.295 42.2143C542.487 42.656 542.583 43.1317 542.583 43.6414C542.583 44.1511 542.487 44.6325 542.295 45.0856C542.113 45.5273 541.853 45.9181 541.513 46.2579C541.185 46.5864 540.794 46.8469 540.341 47.0394C539.899 47.2206 539.418 47.3113 538.897 47.3113H536.144V51.8986H533.851V40.0056ZM536.144 42.0104V45.3574H538.693C539.18 45.3574 539.565 45.1988 539.848 44.8817C540.131 44.5532 540.273 44.1511 540.273 43.6754C540.273 43.1997 540.131 42.8032 539.848 42.4861C539.565 42.169 539.18 42.0104 538.693 42.0104H536.144ZM551.58 51.8986H544.088V40.0056H546.381V49.8937H551.58V51.8986ZM552.964 40.0056H560.457V42.0104H555.258V44.9496H560.287V46.9035H555.258V49.8937H560.457V51.8986H552.964V40.0056Z" fill="#324056"/>
<defs>
<filter id="filter0_f" x="84.8516" y="182.868" width="339.473" height="199.151" filterUnits="userSpaceOnUse" color-interpolation-filters="sRGB">
<feFlood flood-opacity="0" result="BackgroundImageFix"/>
<feBlend mode="normal" in="SourceGraphic" in2="BackgroundImageFix" result="shape"/>
<feGaussianBlur stdDeviation="8" result="effect1_foregroundBlur"/>
</filter>
<linearGradient id="paint0_linear" x1="1162.42" y1="233.689" x2="-25.1449" y2="312.186" gradientUnits="userSpaceOnUse">
<stop stop-color="#919FB4"/>
</linearGradient>
<linearGradient id="paint1_linear" x1="1162.42" y1="224.83" x2="-25.1444" y2="303.327" gradientUnits="userSpaceOnUse">
<stop stop-color="#919FB4"/>
<stop offset="1" stop-color="white"/>
</linearGradient>
<linearGradient id="paint2_linear" x1="175.777" y1="323.201" x2="167.242" y2="185.121" gradientUnits="userSpaceOnUse">
<stop offset="0.419922" stop-color="#D7DFEE"/>
<stop offset="1" stop-color="white"/>
</linearGradient>
<linearGradient id="paint3_linear" x1="357.035" y1="99.2518" x2="130.935" y2="212.53" gradientUnits="userSpaceOnUse">
<stop offset="0.212558" stop-color="#D7DFEE"/>
<stop offset="1" stop-color="white" stop-opacity="0"/>
</linearGradient>
<linearGradient id="paint4_linear" x1="267.734" y1="148.288" x2="387.169" y2="355.756" gradientUnits="userSpaceOnUse">
<stop stop-color="white" stop-opacity="0"/>
<stop offset="0.173356" stop-color="white"/>
<stop offset="0.578125" stop-color="#C3CDE0"/>
</linearGradient>
<linearGradient id="paint5_linear" x1="369.694" y1="92.7881" x2="311.704" y2="313.373" gradientUnits="userSpaceOnUse">
<stop offset="0.376088" stop-color="#BBC6DC"/>
<stop offset="0.584577" stop-color="#717F9A"/>
<stop offset="0.786458" stop-color="#9BA8C2"/>
<stop offset="1" stop-color="#C6D1E9"/>
</linearGradient>
<linearGradient id="paint6_linear" x1="287.98" y1="45.6079" x2="404.418" y2="215.21" gradientUnits="userSpaceOnUse">
<stop offset="0.505448" stop-color="#E0E8F1"/>
<stop offset="1" stop-color="#EFF4FB"/>
</linearGradient>
<linearGradient id="paint7_linear" x1="320.879" y1="289.883" x2="296.655" y2="191.152" gradientUnits="userSpaceOnUse">
<stop stop-color="white"/>
<stop offset="1" stop-color="#D0D8E8"/>
</linearGradient>
<linearGradient id="paint8_linear" x1="320.513" y1="282.175" x2="296.289" y2="183.444" gradientUnits="userSpaceOnUse">
<stop stop-color="white"/>
<stop offset="1" stop-color="#D0D8E8"/>
</linearGradient>
<linearGradient id="paint9_linear" x1="369.725" y1="92.0541" x2="311.735" y2="312.639" gradientUnits="userSpaceOnUse">
<stop offset="0.376088" stop-color="#BBC6DC"/>
<stop offset="0.584577" stop-color="#717F9A"/>
<stop offset="0.786458" stop-color="#9BA8C2"/>
<stop offset="1" stop-color="#C6D1E9"/>
</linearGradient>
<linearGradient id="paint10_linear" x1="187.057" y1="336.314" x2="162.833" y2="237.583" gradientUnits="userSpaceOnUse">
<stop stop-color="white"/>
<stop offset="1" stop-color="#D0D8E8"/>
</linearGradient>
<linearGradient id="paint11_linear" x1="230.59" y1="316.309" x2="246.005" y2="296.489" gradientUnits="userSpaceOnUse">
<stop stop-color="#CDD5E8"/>
<stop offset="1" stop-color="white"/>
</linearGradient>
<linearGradient id="paint12_linear" x1="202.859" y1="37.5628" x2="181.631" y2="216.065" gradientUnits="userSpaceOnUse">
<stop stop-color="#C3CDE0"/>
<stop offset="1" stop-color="#C3CDE0" stop-opacity="0"/>
</linearGradient>
<linearGradient id="paint13_linear" x1="80.8698" y1="163.72" x2="172.145" y2="270.776" gradientUnits="userSpaceOnUse">
<stop stop-color="#F3F8FE"/>
<stop offset="1" stop-color="#EFF4FB"/>
</linearGradient>
</defs>
</svg>
