<svg width="12" height="7" viewBox="0 0 12 7" fill="none" xmlns="http://www.w3.org/2000/svg">
<path d="M0.10073 0.118939C0.0365543 0.188727 0.000484454 0.283847 1.71494e-05 0.383617C-0.000919363 0.483388 0.0356188 0.579028 0.10073 0.648294L5.75615 6.88886C5.81939 6.95968 5.90605 7 5.99599 7C6.08593 7 6.1726 6.95968 6.23583 6.88886L11.8927 0.648295C11.9597 0.578507 11.9986 0.482355 12 0.381037C12.0014 0.279198 11.9658 0.181496 11.9007 0.109636C11.8355 0.0377805 11.747 -0.00150678 11.6552 4.42214e-05C11.5629 0.00159496 11.4758 0.044502 11.413 0.118942L5.99599 6.09483L0.58041 0.118942C0.517171 0.0481196 0.43051 0.00883235 0.340569 0.00883235C0.25063 0.00883234 0.164432 0.048121 0.10073 0.118942L0.10073 0.118939Z" fill="#999999"/>
</svg>
