<svg width="92" height="104" viewBox="0 0 92 104" fill="none" xmlns="http://www.w3.org/2000/svg">
<path d="M45.7849 0L16 70H27.5776L33.2686 55.8907H43.0665V46.2504H37.0821L45.8436 24.6278L54.5072 46.2504H48.9335V55.8907H58.399L64.1095 70H76L45.7849 0Z" fill="#3A475C"/>
<path d="M0.54975 95.8994C0.54975 94.9172 0.86494 94.1475 1.49532 93.5905C2.14036 93.0187 3.04928 92.6962 4.22208 92.6229L7.71849 92.359V91.6333C7.71849 90.9883 7.52058 90.4899 7.12476 90.138C6.72894 89.7715 6.1572 89.5883 5.40954 89.5883C4.86712 89.5883 4.34669 89.6762 3.84825 89.8522C3.34981 90.0134 2.86603 90.2846 2.39691 90.6658L1.40736 89.0605C1.99376 88.5621 2.64613 88.1956 3.36447 87.961C4.09747 87.7118 4.88178 87.5872 5.7174 87.5872C6.34778 87.5872 6.91952 87.6751 7.43262 87.8511C7.94572 88.027 8.38552 88.2835 8.75202 88.6207C9.11852 88.9432 9.39706 89.3391 9.58764 89.8082C9.79288 90.2626 9.8955 90.7757 9.8955 91.3475V96.4052C9.8955 96.8303 10.1154 97.0429 10.5552 97.0429H11.1269V99H10.0274C9.48502 99 9.02323 98.8754 8.64207 98.6262C8.27557 98.3769 8.01902 98.0324 7.87242 97.5926C7.49126 98.1057 7.00015 98.5089 6.39909 98.8021C5.79803 99.0953 5.12367 99.2419 4.37601 99.2419C3.81893 99.2419 3.30583 99.1613 2.83671 99C2.38225 98.8387 1.9791 98.6115 1.62726 98.3183C1.29008 98.0104 1.0262 97.6513 0.83562 97.2408C0.64504 96.8303 0.54975 96.3832 0.54975 95.8994ZM2.68278 95.8774C2.68278 96.3612 2.88069 96.757 3.27651 97.0649C3.67233 97.3581 4.18543 97.5047 4.81581 97.5047C5.21163 97.5047 5.58546 97.4387 5.9373 97.3068C6.28914 97.1748 6.597 96.9989 6.86088 96.779C7.12476 96.5444 7.33 96.2732 7.4766 95.9654C7.63786 95.6575 7.71849 95.3277 7.71849 94.9758V94.0522L4.55193 94.3161C3.30583 94.4041 2.68278 94.9245 2.68278 95.8774ZM17.2728 89.7642C16.5398 89.7642 15.9387 90.0207 15.4696 90.5338C15.0005 91.0469 14.7659 91.7433 14.7659 92.6229V99H12.545V87.7851H14.744V89.1705C15.0225 88.716 15.3817 88.3568 15.8215 88.093C16.2759 87.8291 16.811 87.6971 17.4267 87.6971H18.1964V89.7642H17.2728ZM24.4024 89.7642C23.6694 89.7642 23.0683 90.0207 22.5992 90.5338C22.1301 91.0469 21.8955 91.7433 21.8955 92.6229V99H19.6745V87.7851H21.8735V89.1705C22.1521 88.716 22.5112 88.3568 22.951 88.093C23.4055 87.8291 23.9406 87.6971 24.5563 87.6971H25.326V89.7642H24.4024ZM37.9429 93.3925C37.9429 94.1988 37.7816 94.9612 37.4591 95.6795C37.1512 96.3832 36.7261 97.0062 36.1837 97.5487C35.6413 98.0764 35.0036 98.4942 34.2706 98.8021C33.5376 99.1099 32.7532 99.2639 31.9176 99.2639C31.082 99.2639 30.2977 99.1099 29.5647 98.8021C28.8317 98.4942 28.194 98.0764 27.6516 97.5487C27.1091 97.0062 26.6767 96.3832 26.3542 95.6795C26.0463 94.9612 25.8924 94.1988 25.8924 93.3925C25.8924 92.5862 26.0463 91.8313 26.3542 91.1276C26.6767 90.4092 27.1091 89.7862 27.6516 89.2584C28.194 88.7307 28.8317 88.3129 29.5647 88.005C30.2977 87.6971 31.082 87.5432 31.9176 87.5432C32.7532 87.5432 33.5376 87.6971 34.2706 88.005C35.0036 88.3129 35.6413 88.7307 36.1837 89.2584C36.7261 89.7862 37.1512 90.4092 37.4591 91.1276C37.7816 91.8313 37.9429 92.5862 37.9429 93.3925ZM35.7219 93.3925C35.7219 92.8501 35.6193 92.3444 35.414 91.8752C35.2235 91.4061 34.9522 90.9956 34.6004 90.6438C34.2632 90.292 33.8601 90.0207 33.391 89.8302C32.9365 89.6249 32.4454 89.5223 31.9176 89.5223C31.3899 89.5223 30.8914 89.6249 30.4223 89.8302C29.9678 90.0207 29.5647 90.292 29.2129 90.6438C28.8757 90.9956 28.6045 91.4061 28.3992 91.8752C28.2086 92.3444 28.1134 92.8501 28.1134 93.3925C28.1134 93.935 28.2086 94.4481 28.3992 94.9318C28.6045 95.401 28.8757 95.8114 29.2129 96.1633C29.5647 96.5151 29.9678 96.7937 30.4223 96.9989C30.8914 97.1895 31.3899 97.2848 31.9176 97.2848C32.4454 97.2848 32.9365 97.1895 33.391 96.9989C33.8601 96.7937 34.2632 96.5151 34.6004 96.1633C34.9522 95.8114 35.2235 95.401 35.414 94.9318C35.6193 94.4481 35.7219 93.935 35.7219 93.3925ZM47.5444 87.7851L50.2272 95.6795L52.4922 87.7851H54.7572L51.3707 99H49.3696L46.5769 90.8857L43.8061 99H41.8051L38.3966 87.7851H40.7495L42.9925 95.6795L45.6973 87.7851H47.5444ZM61.3615 86.2238C60.9804 86.2238 60.6579 86.0992 60.394 85.85C60.1448 85.5861 60.0202 85.2636 60.0202 84.8824C60.0202 84.5159 60.1448 84.2081 60.394 83.9588C60.6579 83.695 60.9804 83.563 61.3615 83.563C61.728 83.563 62.0359 83.695 62.2851 83.9588C62.5343 84.2081 62.659 84.5159 62.659 84.8824C62.659 85.2636 62.5343 85.5861 62.2851 85.85C62.0359 86.0992 61.728 86.2238 61.3615 86.2238ZM62.461 99H60.2401V87.7851H62.461V99ZM74.4504 99H72.2294V92.2711C72.2294 91.4501 71.9875 90.7904 71.5037 90.292C71.02 89.7935 70.3823 89.5443 69.5906 89.5443C68.7843 89.5443 68.1246 89.8008 67.6115 90.3139C67.0984 90.827 66.8419 91.5014 66.8419 92.337V99H64.6209V87.7851H66.8419V89.0165C67.2377 88.5474 67.7141 88.1882 68.2712 87.939C68.843 87.6751 69.466 87.5432 70.1404 87.5432C70.7854 87.5432 71.3718 87.6532 71.8996 87.8731C72.4273 88.093 72.8818 88.4008 73.2629 88.7966C73.6441 89.1778 73.9373 89.6323 74.1425 90.16C74.3478 90.6731 74.4504 91.2302 74.4504 91.8313V99ZM78.4069 93.4145C78.4069 93.957 78.5022 94.4627 78.6928 94.9318C78.898 95.401 79.1692 95.8114 79.5064 96.1633C79.8582 96.5151 80.2614 96.7937 80.7158 96.9989C81.185 97.2041 81.6834 97.3068 82.2112 97.3068C82.8709 97.3068 83.4646 97.1602 83.9923 96.867C84.5348 96.5738 84.9892 96.1706 85.3557 95.6575L86.983 96.845C86.4259 97.578 85.7515 98.1644 84.9599 98.6042C84.1829 99.044 83.2667 99.2639 82.2112 99.2639C81.3609 99.2639 80.5692 99.1099 79.8362 98.8021C79.1032 98.4942 78.4655 98.0764 77.9231 97.5487C77.3807 97.0209 76.9555 96.4052 76.6477 95.7015C76.3398 94.9832 76.1859 94.2208 76.1859 93.4145C76.1859 92.6082 76.3398 91.8459 76.6477 91.1276C76.9555 90.4092 77.3807 89.7862 77.9231 89.2584C78.4655 88.7307 79.1032 88.3129 79.8362 88.005C80.5692 87.6971 81.3609 87.5432 82.2112 87.5432C83.2667 87.5432 84.1829 87.7631 84.9599 88.2029C85.7515 88.6427 86.4259 89.2364 86.983 89.9841L85.3557 91.1496C84.9892 90.6511 84.5348 90.2553 83.9923 89.9621C83.4646 89.6689 82.8709 89.5223 82.2112 89.5223C81.6834 89.5223 81.185 89.6249 80.7158 89.8302C80.2614 90.0207 79.8582 90.292 79.5064 90.6438C79.1692 90.9956 78.898 91.4134 78.6928 91.8972C78.5022 92.3663 78.4069 92.8721 78.4069 93.4145ZM89.4278 96.4931C89.809 96.4931 90.1315 96.6251 90.3954 96.889C90.6593 97.1528 90.7912 97.4754 90.7912 97.8565C90.7912 98.2377 90.6593 98.5602 90.3954 98.8241C90.1315 99.088 89.809 99.2199 89.4278 99.2199C89.0467 99.2199 88.7242 99.088 88.4603 98.8241C88.1964 98.5602 88.0645 98.2377 88.0645 97.8565C88.0645 97.4754 88.1964 97.1528 88.4603 96.889C88.7242 96.6251 89.0467 96.4931 89.4278 96.4931Z" fill="#3A475C"/>
</svg>
