<svg width="20" height="18" viewBox="0 0 20 18" fill="none" xmlns="http://www.w3.org/2000/svg">
<path d="M17.0394 1.58732H14.893V0.40931C14.893 0.183373 14.7096 0 14.4837 0C14.2578 0 14.0744 0.183373 14.0744 0.40931V1.58732H5.18738V0.40931C5.18738 0.183373 5.00401 0 4.77807 0C4.55214 0 4.36876 0.183373 4.36876 0.40931V1.58732H2.22235C1.09428 1.58732 0.175781 2.50582 0.175781 3.63389V15.9534C0.175781 17.0815 1.09428 18 2.22235 18H17.0395C18.1676 18 19.0861 17.0815 19.0861 15.9534V3.63389C19.0861 2.505 18.1676 1.58732 17.0395 1.58732H17.0394ZM2.22223 2.40594H4.36864V4.536C4.36864 4.76194 4.55201 4.94531 4.77795 4.94531C5.00388 4.94531 5.18726 4.76194 5.18726 4.536V2.40594H14.0743V4.536C14.0743 4.76194 14.2576 4.94531 14.4836 4.94531C14.7095 4.94531 14.8929 4.76194 14.8929 4.536V2.40594H17.0393C17.7163 2.40594 18.2672 2.95688 18.2672 3.63389V7.11631H0.994108V3.63389C0.994108 2.95688 1.54504 2.40594 2.22206 2.40594H2.22223ZM17.0394 17.1814H2.22223C1.54521 17.1814 0.994276 16.6305 0.994276 15.9535V7.93493H18.2674V15.9535C18.2674 16.6305 17.7165 17.1814 17.0395 17.1814H17.0394Z" fill="#999999"/>
</svg>
