<svg width="254" height="172" viewBox="0 0 254 172" fill="none" xmlns="http://www.w3.org/2000/svg">
<g filter="url(#filter0_dd)">
<path d="M153.55 142.899C153.55 141.917 153.865 141.148 154.495 140.59C155.14 140.019 156.049 139.696 157.222 139.623L160.718 139.359V138.633C160.718 137.988 160.521 137.49 160.125 137.138C159.729 136.772 159.157 136.588 158.41 136.588C157.867 136.588 157.347 136.676 156.848 136.852C156.35 137.013 155.866 137.285 155.397 137.666L154.407 136.061C154.994 135.562 155.646 135.196 156.364 134.961C157.097 134.712 157.882 134.587 158.717 134.587C159.348 134.587 159.92 134.675 160.433 134.851C160.946 135.027 161.386 135.284 161.752 135.621C162.119 135.943 162.397 136.339 162.588 136.808C162.793 137.263 162.896 137.776 162.896 138.347V143.405C162.896 143.83 163.115 144.043 163.555 144.043H164.127V146H163.027C162.485 146 162.023 145.875 161.642 145.626C161.276 145.377 161.019 145.032 160.872 144.593C160.491 145.106 160 145.509 159.399 145.802C158.798 146.095 158.124 146.242 157.376 146.242C156.819 146.242 156.306 146.161 155.837 146C155.382 145.839 154.979 145.612 154.627 145.318C154.29 145.01 154.026 144.651 153.836 144.241C153.645 143.83 153.55 143.383 153.55 142.899ZM155.683 142.877C155.683 143.361 155.881 143.757 156.277 144.065C156.672 144.358 157.185 144.505 157.816 144.505C158.212 144.505 158.585 144.439 158.937 144.307C159.289 144.175 159.597 143.999 159.861 143.779C160.125 143.544 160.33 143.273 160.477 142.965C160.638 142.658 160.718 142.328 160.718 141.976V141.052L157.552 141.316C156.306 141.404 155.683 141.925 155.683 142.877ZM170.273 136.764C169.54 136.764 168.939 137.021 168.47 137.534C168.001 138.047 167.766 138.743 167.766 139.623V146H165.545V134.785H167.744V136.17C168.022 135.716 168.382 135.357 168.821 135.093C169.276 134.829 169.811 134.697 170.427 134.697H171.196V136.764H170.273ZM177.402 136.764C176.669 136.764 176.068 137.021 175.599 137.534C175.13 138.047 174.896 138.743 174.896 139.623V146H172.675V134.785H174.874V136.17C175.152 135.716 175.511 135.357 175.951 135.093C176.405 134.829 176.941 134.697 177.556 134.697H178.326V136.764H177.402ZM190.943 140.393C190.943 141.199 190.782 141.961 190.459 142.68C190.151 143.383 189.726 144.006 189.184 144.549C188.641 145.076 188.004 145.494 187.271 145.802C186.538 146.11 185.753 146.264 184.918 146.264C184.082 146.264 183.298 146.11 182.565 145.802C181.832 145.494 181.194 145.076 180.652 144.549C180.109 144.006 179.677 143.383 179.354 142.68C179.046 141.961 178.892 141.199 178.892 140.393C178.892 139.586 179.046 138.831 179.354 138.128C179.677 137.409 180.109 136.786 180.652 136.258C181.194 135.731 181.832 135.313 182.565 135.005C183.298 134.697 184.082 134.543 184.918 134.543C185.753 134.543 186.538 134.697 187.271 135.005C188.004 135.313 188.641 135.731 189.184 136.258C189.726 136.786 190.151 137.409 190.459 138.128C190.782 138.831 190.943 139.586 190.943 140.393ZM188.722 140.393C188.722 139.85 188.619 139.344 188.414 138.875C188.223 138.406 187.952 137.996 187.6 137.644C187.263 137.292 186.86 137.021 186.391 136.83C185.936 136.625 185.445 136.522 184.918 136.522C184.39 136.522 183.891 136.625 183.422 136.83C182.968 137.021 182.565 137.292 182.213 137.644C181.876 137.996 181.604 138.406 181.399 138.875C181.209 139.344 181.113 139.85 181.113 140.393C181.113 140.935 181.209 141.448 181.399 141.932C181.604 142.401 181.876 142.811 182.213 143.163C182.565 143.515 182.968 143.794 183.422 143.999C183.891 144.189 184.39 144.285 184.918 144.285C185.445 144.285 185.936 144.189 186.391 143.999C186.86 143.794 187.263 143.515 187.6 143.163C187.952 142.811 188.223 142.401 188.414 141.932C188.619 141.448 188.722 140.935 188.722 140.393ZM200.544 134.785L203.227 142.68L205.492 134.785H207.757L204.371 146H202.37L199.577 137.886L196.806 146H194.805L191.397 134.785H193.75L195.993 142.68L198.697 134.785H200.544ZM214.362 133.224C213.98 133.224 213.658 133.099 213.394 132.85C213.145 132.586 213.02 132.264 213.02 131.882C213.02 131.516 213.145 131.208 213.394 130.959C213.658 130.695 213.98 130.563 214.362 130.563C214.728 130.563 215.036 130.695 215.285 130.959C215.534 131.208 215.659 131.516 215.659 131.882C215.659 132.264 215.534 132.586 215.285 132.85C215.036 133.099 214.728 133.224 214.362 133.224ZM215.461 146H213.24V134.785H215.461V146ZM227.45 146H225.229V139.271C225.229 138.45 224.988 137.79 224.504 137.292C224.02 136.794 223.382 136.544 222.591 136.544C221.784 136.544 221.125 136.801 220.612 137.314C220.098 137.827 219.842 138.501 219.842 139.337V146H217.621V134.785H219.842V136.017C220.238 135.547 220.714 135.188 221.271 134.939C221.843 134.675 222.466 134.543 223.14 134.543C223.785 134.543 224.372 134.653 224.9 134.873C225.427 135.093 225.882 135.401 226.263 135.797C226.644 136.178 226.937 136.632 227.143 137.16C227.348 137.673 227.45 138.23 227.45 138.831V146ZM231.407 140.415C231.407 140.957 231.502 141.463 231.693 141.932C231.898 142.401 232.169 142.811 232.506 143.163C232.858 143.515 233.261 143.794 233.716 143.999C234.185 144.204 234.683 144.307 235.211 144.307C235.871 144.307 236.465 144.16 236.992 143.867C237.535 143.574 237.989 143.171 238.356 142.658L239.983 143.845C239.426 144.578 238.752 145.164 237.96 145.604C237.183 146.044 236.267 146.264 235.211 146.264C234.361 146.264 233.569 146.11 232.836 145.802C232.103 145.494 231.466 145.076 230.923 144.549C230.381 144.021 229.956 143.405 229.648 142.701C229.34 141.983 229.186 141.221 229.186 140.415C229.186 139.608 229.34 138.846 229.648 138.128C229.956 137.409 230.381 136.786 230.923 136.258C231.466 135.731 232.103 135.313 232.836 135.005C233.569 134.697 234.361 134.543 235.211 134.543C236.267 134.543 237.183 134.763 237.96 135.203C238.752 135.643 239.426 136.236 239.983 136.984L238.356 138.15C237.989 137.651 237.535 137.255 236.992 136.962C236.465 136.669 235.871 136.522 235.211 136.522C234.683 136.522 234.185 136.625 233.716 136.83C233.261 137.021 232.858 137.292 232.506 137.644C232.169 137.996 231.898 138.413 231.693 138.897C231.502 139.366 231.407 139.872 231.407 140.415ZM242.428 143.493C242.809 143.493 243.132 143.625 243.395 143.889C243.659 144.153 243.791 144.475 243.791 144.857C243.791 145.238 243.659 145.56 243.395 145.824C243.132 146.088 242.809 146.22 242.428 146.22C242.047 146.22 241.724 146.088 241.46 145.824C241.196 145.56 241.064 145.238 241.064 144.857C241.064 144.475 241.196 144.153 241.46 143.889C241.724 143.625 242.047 143.493 242.428 143.493Z" fill="white"/>
</g>
<g filter="url(#filter1_dd)">
<path d="M76.6056 22L22 150H43.2256L53.6591 124.2H71.6219V106.572H60.6506L76.7132 67.0337L92.5965 106.572H82.3781V124.2H99.7314L110.201 150H132L76.6056 22Z" fill="white"/>
</g>
<defs>
<filter id="filter0_dd" x="150.55" y="127.563" width="103.241" height="23.7009" filterUnits="userSpaceOnUse" color-interpolation-filters="sRGB">
<feFlood flood-opacity="0" result="BackgroundImageFix"/>
<feColorMatrix in="SourceAlpha" type="matrix" values="0 0 0 0 0 0 0 0 0 0 0 0 0 0 0 0 0 0 127 0"/>
<feOffset dx="1" dy="1"/>
<feGaussianBlur stdDeviation="2"/>
<feColorMatrix type="matrix" values="0 0 0 0 0.196078 0 0 0 0 0.25098 0 0 0 0 0.337255 0 0 0 0.3 0"/>
<feBlend mode="normal" in2="BackgroundImageFix" result="effect1_dropShadow"/>
<feColorMatrix in="SourceAlpha" type="matrix" values="0 0 0 0 0 0 0 0 0 0 0 0 0 0 0 0 0 0 127 0"/>
<feOffset dx="6" dy="1"/>
<feGaussianBlur stdDeviation="2"/>
<feColorMatrix type="matrix" values="0 0 0 0 0.996078 0 0 0 0 0.968627 0 0 0 0 0.862745 0 0 0 1 0"/>
<feBlend mode="normal" in2="effect1_dropShadow" result="effect2_dropShadow"/>
<feBlend mode="normal" in="SourceGraphic" in2="effect2_dropShadow" result="shape"/>
</filter>
<filter id="filter1_dd" x="0" y="0" width="154" height="172" filterUnits="userSpaceOnUse" color-interpolation-filters="sRGB">
<feFlood flood-opacity="0" result="BackgroundImageFix"/>
<feColorMatrix in="SourceAlpha" type="matrix" values="0 0 0 0 0 0 0 0 0 0 0 0 0 0 0 0 0 0 127 0"/>
<feOffset dx="-6" dy="-6"/>
<feGaussianBlur stdDeviation="8"/>
<feColorMatrix type="matrix" values="0 0 0 0 0.196078 0 0 0 0 0.25098 0 0 0 0 0.337255 0 0 0 0.3 0"/>
<feBlend mode="normal" in2="BackgroundImageFix" result="effect1_dropShadow"/>
<feColorMatrix in="SourceAlpha" type="matrix" values="0 0 0 0 0 0 0 0 0 0 0 0 0 0 0 0 0 0 127 0"/>
<feOffset dx="6" dy="6"/>
<feGaussianBlur stdDeviation="8"/>
<feColorMatrix type="matrix" values="0 0 0 0 0.995833 0 0 0 0 0.966674 0 0 0 0 0.863056 0 0 0 1 0"/>
<feBlend mode="normal" in2="effect1_dropShadow" result="effect2_dropShadow"/>
<feBlend mode="normal" in="SourceGraphic" in2="effect2_dropShadow" result="shape"/>
</filter>
</defs>
</svg>
