<svg width="1440" height="925" viewBox="0 0 1440 925" fill="none" xmlns="http://www.w3.org/2000/svg">
<g filter="url(#filter0_d)">
<path d="M920.089 252.062C1098.89 153.969 1341.2 188.168 1440 217.529V923H0V603.396C290.554 603.396 179.867 556.351 563.016 456.256C946.164 356.161 696.585 374.678 920.089 252.062Z" fill="#8796AD"/>
<path d="M920.089 252.062C1098.89 153.969 1341.2 188.168 1440 217.529V923H0V603.396C290.554 603.396 179.867 556.351 563.016 456.256C946.164 356.161 696.585 374.678 920.089 252.062Z" fill="url(#paint0_linear)"/>
</g>
<path d="M868 131H509L601.021 111.717L640.584 88.4159L661.685 101.673C661.685 101.673 771.583 58.6873 783.305 61.0977C795.028 63.5081 807.336 111.717 807.336 111.717L868 131Z" fill="#D2DAEA"/>
<path d="M1387 209H1158L1216.7 196.879L1241.94 182.233L1255.4 190.566C1255.4 190.566 1325.5 163.546 1332.97 165.061C1340.45 166.577 1348.3 196.879 1348.3 196.879L1387 209Z" fill="#D2DAEA"/>
<path d="M1227 131H1112L1141.48 124.664L1154.15 117.008L1160.91 121.364C1160.91 121.364 1196.11 107.24 1199.87 108.032C1203.62 108.824 1207.57 124.664 1207.57 124.664L1227 131Z" fill="#D2DAEA"/>
<path d="M1324.4 332.713L1387.48 347.852L1442.16 327.666L1376.55 314.209L1324.4 332.713Z" fill="url(#paint1_linear)"/>
<path d="M1387.48 347.852V463.078L1326.08 441.505L1324.4 332.713L1387.48 347.852Z" fill="url(#paint2_linear)"/>
<path d="M1442.16 327.666L1443 439.528L1387.48 463.078V347.852L1442.16 327.666Z" fill="url(#paint3_linear)"/>
<path d="M799.058 380.064L798.938 384.021C798.486 383.86 798.059 383.681 797.656 383.511L797.777 379.554C798.18 379.724 798.607 379.894 799.058 380.064Z" fill="#7B8088"/>
<path d="M797.769 379.545L797.648 383.502C793.546 381.741 791.483 379.52 791.547 377.358L791.668 373.401C791.604 375.571 793.667 377.784 797.769 379.545Z" fill="#767B83"/>
<path d="M1314.98 463.469L1314.86 467.426C1314.69 467.366 1314.52 467.298 1314.34 467.238L1314.46 463.281C1314.64 463.341 1314.81 463.4 1314.98 463.469Z" fill="#7B8088"/>
<path d="M1314.46 463.281L1314.34 467.238C1313.82 467.06 1313.29 466.889 1312.75 466.728L1312.87 462.771C1313.41 462.932 1313.94 463.103 1314.46 463.281Z" fill="#7F858D"/>
<path d="M1312.87 462.771L1312.75 466.728C1312.27 466.583 1311.78 466.455 1311.28 466.328L1311.4 462.371C1311.9 462.498 1312.4 462.635 1312.87 462.771Z" fill="#848992"/>
<path d="M1311.4 462.371L1311.28 466.328C1310.82 466.209 1310.36 466.107 1309.88 466.004L1310 462.047C1310.48 462.149 1310.95 462.26 1311.4 462.371Z" fill="#888E97"/>
<path d="M1310 462.047L1309.88 466.004C1309.43 465.911 1308.96 465.817 1308.5 465.732L1308.62 461.775C1309.08 461.86 1309.54 461.945 1310 462.047Z" fill="#8D939C"/>
<path d="M1308.62 461.775L1308.49 465.732C1308.03 465.647 1307.58 465.57 1307.12 465.502L1307.24 461.545C1307.7 461.613 1308.16 461.69 1308.62 461.775Z" fill="#9198A1"/>
<path d="M1307.24 461.545L1307.12 465.502C1306.66 465.434 1306.19 465.366 1305.72 465.307L1305.84 461.35C1306.31 461.409 1306.78 461.469 1307.24 461.545Z" fill="#969CA6"/>
<path d="M1305.84 461.35L1305.72 465.307C1305.25 465.247 1304.77 465.196 1304.29 465.145L1304.41 461.188C1304.89 461.239 1305.37 461.29 1305.84 461.35Z" fill="#9AA1AB"/>
<path d="M1304.41 461.188L1304.29 465.145C1303.8 465.094 1303.3 465.06 1302.81 465.017L1302.93 461.06C1303.43 461.103 1303.92 461.145 1304.41 461.188Z" fill="#9FA6B0"/>
<path d="M1302.93 461.07L1302.81 465.027C1302.29 464.993 1301.77 464.959 1301.25 464.942L1301.37 460.985C1301.89 461.002 1302.41 461.036 1302.93 461.07Z" fill="#A3ABB5"/>
<path d="M1301.37 460.984L1301.25 464.941C1300.69 464.915 1300.15 464.907 1299.59 464.898L1299.71 460.941C1300.27 460.941 1300.82 460.958 1301.37 460.984Z" fill="#A8AFBA"/>
<path d="M1299.71 460.941L1299.59 464.898C1298.98 464.89 1298.37 464.89 1297.76 464.907L1297.88 460.95C1298.49 460.933 1299.1 460.933 1299.71 460.941Z" fill="#ADB4C0"/>
<path d="M1297.88 460.941L1297.76 464.898C1297 464.915 1296.26 464.941 1295.51 464.992L1295.63 461.035C1296.38 460.992 1297.13 460.958 1297.88 460.941Z" fill="#B1B9C5"/>
<path d="M1295.63 461.035L1295.51 464.992C1291.89 465.222 1288.47 465.809 1285.62 466.77L1285.74 462.813C1288.59 461.852 1292.02 461.264 1295.63 461.035Z" fill="#B6BECA"/>
<path d="M1285.74 462.813L1285.62 466.77C1285.12 466.94 1284.63 467.119 1284.17 467.315L1284.29 463.358C1284.75 463.162 1285.24 462.983 1285.74 462.813Z" fill="#B1B9C5"/>
<path d="M1034.38 467.102L1034.27 471.059L798.938 384.013L799.058 380.064L1034.38 467.102Z" fill="#878D96"/>
<path d="M1041.77 473.757L1041.65 477.714C1041.71 475.552 1039.65 473.34 1035.55 471.57L1035.67 467.613C1039.77 469.374 1041.83 471.595 1041.77 473.757Z" fill="#767B83"/>
<path d="M1035.67 467.613L1035.55 471.57C1035.14 471.391 1034.71 471.221 1034.27 471.059L1034.39 467.102C1034.83 467.264 1035.26 467.443 1035.67 467.613Z" fill="#7B8088"/>
<path d="M1376.69 486.292L1376.58 490.249L1314.86 467.426L1314.98 463.469L1376.69 486.292Z" fill="#878D96"/>
<path d="M1103.16 473.978L1103.04 477.935C1103.04 478.003 1103.03 478.08 1103.02 478.148L1103.14 474.191C1103.15 474.123 1103.16 474.046 1103.16 473.978Z" fill="#848992"/>
<path d="M1103.14 474.191L1103.02 478.148C1103.01 478.352 1102.97 478.556 1102.9 478.769L1103.02 474.812C1103.09 474.608 1103.13 474.395 1103.14 474.191Z" fill="#888E97"/>
<path d="M1103.03 474.812L1102.91 478.769C1102.85 478.965 1102.78 479.152 1102.69 479.348L1102.81 475.391C1102.9 475.195 1102.98 474.999 1103.03 474.812Z" fill="#8D939C"/>
<path d="M1102.81 475.391L1102.68 479.348C1102.6 479.535 1102.49 479.714 1102.37 479.901L1102.49 475.944C1102.61 475.757 1102.72 475.569 1102.81 475.391Z" fill="#9198A1"/>
<path d="M1102.49 475.935L1102.37 479.892C1102.25 480.071 1102.12 480.25 1101.97 480.42L1102.09 476.463C1102.24 476.293 1102.38 476.114 1102.49 475.935Z" fill="#969CA6"/>
<path d="M1102.09 476.471L1101.97 480.428C1101.82 480.607 1101.65 480.777 1101.47 480.948L1101.59 476.991C1101.77 476.82 1101.94 476.642 1102.09 476.471Z" fill="#9AA1AB"/>
<path d="M1101.59 476.991L1101.47 480.948C1101.28 481.126 1101.07 481.296 1100.86 481.467L1100.98 477.51C1101.19 477.339 1101.4 477.161 1101.59 476.991Z" fill="#9FA6B0"/>
<path d="M1100.98 477.51L1100.85 481.467C1100.62 481.645 1100.37 481.824 1100.11 481.994L1100.23 478.037C1100.49 477.859 1100.74 477.688 1100.98 477.51Z" fill="#A3ABB5"/>
<path d="M1100.22 478.037L1100.1 481.994C1099.81 482.181 1099.49 482.36 1099.16 482.539L1099.28 478.582C1099.61 478.403 1099.93 478.216 1100.22 478.037Z" fill="#A8AFBA"/>
<path d="M1099.28 478.582L1099.16 482.539C1098.78 482.743 1098.37 482.939 1097.94 483.126L1098.06 479.169C1098.49 478.973 1098.9 478.778 1099.28 478.582Z" fill="#ADB4C0"/>
<path d="M1098.05 479.169L1097.93 483.126C1097.83 483.169 1097.73 483.211 1097.62 483.254L1097.74 479.297C1097.85 479.254 1097.95 479.212 1098.05 479.169Z" fill="#B1B9C5"/>
<path d="M1412.8 481.084L1412.68 485.041C1412.68 485.109 1412.67 485.185 1412.66 485.254L1412.78 481.297C1412.79 481.228 1412.8 481.16 1412.8 481.084Z" fill="#848992"/>
<path d="M1412.78 481.297L1412.66 485.254C1412.65 485.458 1412.61 485.662 1412.54 485.875L1412.66 481.918C1412.73 481.713 1412.77 481.509 1412.78 481.297Z" fill="#888E97"/>
<path d="M1412.67 481.918L1412.55 485.875C1412.49 486.07 1412.42 486.258 1412.33 486.453L1412.45 482.496C1412.54 482.301 1412.61 482.113 1412.67 481.918Z" fill="#8D939C"/>
<path d="M1412.44 482.496L1412.32 486.453C1412.24 486.641 1412.13 486.819 1412.01 487.007L1412.13 483.05C1412.25 482.862 1412.36 482.675 1412.44 482.496Z" fill="#9198A1"/>
<path d="M1412.13 483.041L1412.01 486.998C1411.89 487.177 1411.76 487.355 1411.61 487.526L1411.73 483.569C1411.88 483.398 1412.02 483.22 1412.13 483.041Z" fill="#969CA6"/>
<path d="M1411.73 483.577L1411.61 487.534C1411.45 487.713 1411.28 487.883 1411.11 488.053L1411.23 484.096C1411.41 483.926 1411.58 483.747 1411.73 483.577Z" fill="#9AA1AB"/>
<path d="M1411.23 484.096L1411.11 488.053C1410.92 488.232 1410.71 488.402 1410.5 488.572L1410.62 484.615C1410.83 484.445 1411.04 484.275 1411.23 484.096Z" fill="#9FA6B0"/>
<path d="M1410.62 484.615L1410.5 488.572C1410.26 488.751 1410.01 488.93 1409.75 489.1L1409.87 485.143C1410.13 484.973 1410.38 484.794 1410.62 484.615Z" fill="#A3ABB5"/>
<path d="M1409.86 485.143L1409.74 489.1C1409.45 489.287 1409.13 489.466 1408.79 489.645L1408.91 485.688C1409.25 485.509 1409.57 485.33 1409.86 485.143Z" fill="#A8AFBA"/>
<path d="M1408.92 485.688L1408.8 489.645C1408.42 489.849 1408.01 490.045 1407.58 490.232L1407.7 486.275C1408.13 486.088 1408.54 485.892 1408.92 485.688Z" fill="#ADB4C0"/>
<path d="M1407.69 486.275L1407.57 490.232C1407.46 490.274 1407.37 490.317 1407.26 490.359C1406.8 490.555 1406.31 490.734 1405.81 490.904L1405.93 486.947C1406.43 486.777 1406.92 486.598 1407.38 486.402C1407.49 486.36 1407.59 486.317 1407.69 486.275Z" fill="#B1B9C5"/>
<path d="M1405.93 486.947L1405.81 490.904C1402.96 491.866 1399.53 492.453 1395.91 492.683L1396.03 488.726C1399.65 488.496 1403.07 487.909 1405.93 486.947Z" fill="#B6BECA"/>
<path d="M1396.03 488.726L1395.91 492.683C1395.17 492.725 1394.42 492.759 1393.67 492.776L1393.79 488.819C1394.54 488.802 1395.29 488.768 1396.03 488.726Z" fill="#B1B9C5"/>
<path d="M1393.79 488.819L1393.67 492.776C1393.06 492.785 1392.45 492.793 1391.84 492.785L1391.96 488.828C1392.56 488.828 1393.18 488.828 1393.79 488.819Z" fill="#ADB4C0"/>
<path d="M1391.95 488.828L1391.83 492.785C1391.28 492.776 1390.73 492.759 1390.17 492.742L1390.29 488.785C1390.85 488.802 1391.4 488.819 1391.95 488.828Z" fill="#A8AFBA"/>
<path d="M1390.3 488.777L1390.18 492.734C1389.66 492.708 1389.14 492.683 1388.62 492.649L1388.74 488.692C1389.26 488.726 1389.78 488.76 1390.3 488.777Z" fill="#A3ABB5"/>
<path d="M1388.74 488.692L1388.62 492.649C1388.12 492.615 1387.63 492.572 1387.14 492.521L1387.26 488.564C1387.75 488.615 1388.24 488.657 1388.74 488.692Z" fill="#9FA6B0"/>
<path d="M1387.26 488.572L1387.14 492.529C1386.66 492.487 1386.18 492.427 1385.71 492.368L1385.83 488.411C1386.3 488.47 1386.78 488.521 1387.26 488.572Z" fill="#9AA1AB"/>
<path d="M1385.83 488.411L1385.71 492.368C1385.24 492.308 1384.77 492.249 1384.31 492.172L1384.43 488.215C1384.89 488.292 1385.36 488.351 1385.83 488.411Z" fill="#969CA6"/>
<path d="M1384.43 488.215L1384.31 492.172C1383.85 492.104 1383.39 492.027 1382.93 491.942L1383.06 487.985C1383.51 488.07 1383.97 488.147 1384.43 488.215Z" fill="#9198A1"/>
<path d="M1383.06 487.985L1382.93 491.942C1382.47 491.857 1382.01 491.764 1381.56 491.67L1381.68 487.713C1382.13 487.815 1382.59 487.9 1383.06 487.985Z" fill="#8D939C"/>
<path d="M1381.67 487.713L1381.55 491.67C1381.07 491.568 1380.61 491.457 1380.15 491.347L1380.27 487.39C1380.73 487.5 1381.19 487.611 1381.67 487.713Z" fill="#888E97"/>
<path d="M1380.27 487.39L1380.15 491.347C1379.65 491.219 1379.16 491.091 1378.68 490.947L1378.8 486.99C1379.28 487.126 1379.77 487.262 1380.27 487.39Z" fill="#848992"/>
<path d="M1378.8 486.99L1378.68 490.947C1378.14 490.785 1377.61 490.615 1377.09 490.436L1377.21 486.479C1377.73 486.658 1378.26 486.828 1378.8 486.99Z" fill="#7F858D"/>
<path d="M1377.21 486.479L1377.09 490.436C1376.91 490.376 1376.75 490.308 1376.57 490.249L1376.69 486.292C1376.87 486.36 1377.04 486.419 1377.21 486.479Z" fill="#7B8088"/>
<path d="M887.099 508.392L886.979 512.349C886.568 512.196 886.149 512.042 885.729 511.898L885.85 507.941C886.261 508.085 886.68 508.238 887.099 508.392Z" fill="#7B8088"/>
<path d="M885.843 507.941L885.722 511.898C884.489 511.464 883.216 511.055 881.91 510.681L882.031 506.724C883.337 507.098 884.61 507.507 885.843 507.941Z" fill="#7F858D"/>
<path d="M882.039 506.715L881.918 510.672C880.765 510.332 879.597 510.017 878.404 509.719L878.525 505.762C879.71 506.06 880.886 506.383 882.039 506.715Z" fill="#848992"/>
<path d="M878.517 505.762L878.396 509.719C877.292 509.438 876.164 509.183 875.027 508.936L875.148 504.979C876.285 505.226 877.413 505.481 878.517 505.762Z" fill="#888E97"/>
<path d="M875.149 504.979L875.028 508.936C873.932 508.698 872.828 508.485 871.716 508.281L871.837 504.324C872.949 504.528 874.053 504.741 875.149 504.979Z" fill="#8D939C"/>
<path d="M871.836 504.324L871.715 508.281C870.619 508.085 869.515 507.898 868.403 507.728L868.524 503.771C869.636 503.941 870.74 504.12 871.836 504.324Z" fill="#9198A1"/>
<path d="M868.524 503.771L868.403 507.728C867.299 507.558 866.179 507.405 865.059 507.268L865.179 503.311C866.3 503.447 867.412 503.601 868.524 503.771Z" fill="#969CA6"/>
<path d="M865.18 503.311L865.059 507.268C863.923 507.124 862.778 507.005 861.626 506.885L861.747 502.928C862.891 503.039 864.036 503.167 865.18 503.311Z" fill="#9AA1AB"/>
<path d="M861.747 502.928L861.626 506.885C860.442 506.775 859.257 506.673 858.064 506.588L858.185 502.631C859.378 502.716 860.563 502.818 861.747 502.928Z" fill="#9FA6B0"/>
<path d="M858.185 502.631L858.064 506.588C856.823 506.502 855.582 506.434 854.333 506.383L854.454 502.426C855.703 502.477 856.944 502.545 858.185 502.631Z" fill="#A3ABB5"/>
<path d="M854.454 502.426L854.333 506.384C853.012 506.324 851.682 506.29 850.36 506.273L850.481 502.316C851.803 502.333 853.133 502.367 854.454 502.426Z" fill="#A8AFBA"/>
<path d="M850.481 502.316L850.36 506.273C848.893 506.256 847.426 506.264 845.968 506.29L846.089 502.333C847.547 502.307 849.014 502.299 850.481 502.316Z" fill="#ADB4C0"/>
<path d="M846.089 502.333L845.968 506.29C844.163 506.324 842.366 506.401 840.585 506.511L840.706 502.554C842.487 502.444 844.284 502.376 846.089 502.333Z" fill="#B1B9C5"/>
<path d="M840.705 502.554L840.584 506.511C831.913 507.056 823.693 508.468 816.852 510.774L816.972 506.817C823.814 504.52 832.034 503.099 840.705 502.554Z" fill="#B6BECA"/>
<path d="M816.973 506.817L816.852 510.774C815.643 511.183 814.482 511.617 813.362 512.076L813.483 508.119C814.603 507.66 815.764 507.226 816.973 506.817Z" fill="#B1B9C5"/>
<path d="M1097.75 479.297L1097.62 483.254L1004.01 521.905L1004.14 517.948L1097.75 479.297Z" fill="#BDC5D1"/>
<path d="M813.483 508.119L813.37 512.076L796.616 518.995L796.729 515.038L813.483 508.119Z" fill="#BDC5D1"/>
<path d="M1004.14 517.948L1004.01 521.905C1003.91 521.948 1003.8 521.99 1003.71 522.033L1003.83 518.076C1003.93 518.042 1004.03 517.991 1004.14 517.948Z" fill="#B1B9C5"/>
<path d="M1003.82 518.084L1003.7 522.041C1003.26 522.229 1002.85 522.424 1002.47 522.629L1002.6 518.671C1002.97 518.467 1003.39 518.272 1003.82 518.084Z" fill="#ADB4C0"/>
<path d="M1002.59 518.671L1002.47 522.629C1002.14 522.807 1001.83 522.986 1001.53 523.173L1001.65 519.216C1001.94 519.029 1002.26 518.85 1002.59 518.671Z" fill="#A8AFBA"/>
<path d="M1001.65 519.216L1001.53 523.173C1001.27 523.343 1001.01 523.522 1000.78 523.701L1000.9 519.744C1001.14 519.565 1001.39 519.386 1001.65 519.216Z" fill="#A3ABB5"/>
<path d="M1000.9 519.744L1000.78 523.701C1000.56 523.871 1000.36 524.041 1000.17 524.22L1000.29 520.263C1000.48 520.084 1000.68 519.914 1000.9 519.744Z" fill="#9FA6B0"/>
<path d="M1000.29 520.263L1000.17 524.22C999.984 524.39 999.815 524.569 999.67 524.739L999.791 520.782C999.936 520.603 1000.11 520.433 1000.29 520.263Z" fill="#9AA1AB"/>
<path d="M999.784 520.782L999.663 524.739C999.51 524.918 999.381 525.088 999.26 525.267L999.381 521.31C999.502 521.131 999.639 520.952 999.784 520.782Z" fill="#969CA6"/>
<path d="M999.38 521.31L999.26 525.267C999.139 525.445 999.034 525.632 998.945 525.82L999.066 521.863C999.155 521.675 999.26 521.497 999.38 521.31Z" fill="#9198A1"/>
<path d="M999.067 521.863L998.946 525.82C998.857 526.007 998.785 526.203 998.729 526.398L998.849 522.441C998.906 522.246 998.978 522.05 999.067 521.863Z" fill="#8D939C"/>
<path d="M998.849 522.441L998.728 526.398C998.672 526.603 998.632 526.807 998.607 527.02L998.728 523.063C998.752 522.85 998.793 522.646 998.849 522.441Z" fill="#888E97"/>
<path d="M998.728 523.054L998.607 527.011C998.599 527.079 998.599 527.156 998.591 527.224L998.712 523.267C998.72 523.199 998.72 523.131 998.728 523.054Z" fill="#848992"/>
<path d="M796.729 515.038L796.609 518.995C796.359 519.097 796.109 519.199 795.867 519.31L795.988 515.353C796.238 515.242 796.48 515.14 796.729 515.038Z" fill="#B1B9C5"/>
<path d="M795.988 515.353L795.867 519.31C794.82 519.761 793.836 520.237 792.926 520.714L793.047 516.757C793.957 516.272 794.94 515.804 795.988 515.353Z" fill="#ADB4C0"/>
<path d="M793.046 516.757L792.925 520.714C792.12 521.139 791.37 521.573 790.669 522.024L790.79 518.067C791.491 517.616 792.24 517.182 793.046 516.757Z" fill="#A8AFBA"/>
<path d="M790.79 518.067L790.669 522.024C790.025 522.433 789.42 522.858 788.864 523.284L788.985 519.327C789.541 518.901 790.146 518.476 790.79 518.067Z" fill="#A3ABB5"/>
<path d="M788.984 519.327L788.863 523.284C788.332 523.692 787.84 524.109 787.389 524.526L787.51 520.569C787.961 520.152 788.452 519.735 788.984 519.327Z" fill="#9FA6B0"/>
<path d="M787.509 520.569L787.388 524.526C786.945 524.935 786.55 525.352 786.188 525.777L786.308 521.82C786.671 521.403 787.066 520.986 787.509 520.569Z" fill="#9AA1AB"/>
<path d="M786.31 521.82L786.189 525.777C785.826 526.194 785.504 526.62 785.222 527.054L785.343 523.097C785.625 522.663 785.947 522.246 786.31 521.82Z" fill="#969CA6"/>
<path d="M785.334 523.097L785.213 527.054C784.923 527.488 784.673 527.93 784.464 528.373L784.585 524.416C784.794 523.973 785.044 523.531 785.334 523.097Z" fill="#9198A1"/>
<path d="M784.584 524.416L784.463 528.373C784.246 528.832 784.068 529.292 783.939 529.76L784.06 525.803C784.189 525.335 784.367 524.875 784.584 524.416Z" fill="#8D939C"/>
<path d="M784.061 525.803L783.94 529.76C783.795 530.253 783.707 530.747 783.658 531.24L783.779 527.283C783.827 526.781 783.916 526.288 784.061 525.803Z" fill="#888E97"/>
<path d="M783.779 527.275L783.658 531.232C783.642 531.402 783.634 531.572 783.626 531.751L783.747 527.794C783.747 527.624 783.763 527.454 783.779 527.275Z" fill="#848992"/>
<path d="M1284.29 463.358L1284.17 467.315L1082.05 550.77L1082.17 546.813L1284.29 463.358Z" fill="#BDC5D1"/>
<path d="M1082.17 546.813L1082.05 550.77C1081.94 550.813 1081.84 550.855 1081.74 550.898L1081.86 546.941C1081.96 546.898 1082.06 546.856 1082.17 546.813Z" fill="#B1B9C5"/>
<path d="M1081.86 546.949L1081.74 550.906C1081.31 551.094 1080.89 551.289 1080.52 551.494L1080.64 547.537C1081.02 547.332 1081.43 547.137 1081.86 546.949Z" fill="#ADB4C0"/>
<path d="M1080.64 547.528L1080.52 551.485C1080.18 551.664 1079.87 551.843 1079.57 552.03L1079.69 548.073C1079.98 547.894 1080.3 547.707 1080.64 547.528Z" fill="#A8AFBA"/>
<path d="M1079.69 548.073L1079.57 552.03C1079.31 552.2 1079.05 552.379 1078.82 552.557L1078.94 548.6C1079.18 548.422 1079.43 548.251 1079.69 548.073Z" fill="#A3ABB5"/>
<path d="M1078.94 548.6L1078.82 552.557C1078.6 552.728 1078.4 552.898 1078.21 553.076L1078.33 549.119C1078.52 548.949 1078.72 548.771 1078.94 548.6Z" fill="#9FA6B0"/>
<path d="M1078.32 549.119L1078.2 553.076C1078.02 553.247 1077.85 553.425 1077.7 553.596L1077.82 549.639C1077.98 549.468 1078.15 549.29 1078.32 549.119Z" fill="#9AA1AB"/>
<path d="M1077.82 549.639L1077.7 553.596C1077.55 553.774 1077.42 553.945 1077.3 554.123L1077.42 550.166C1077.54 549.996 1077.67 549.817 1077.82 549.639Z" fill="#969CA6"/>
<path d="M1077.42 550.175L1077.3 554.132C1077.18 554.31 1077.07 554.498 1076.99 554.685L1077.11 550.728C1077.2 550.541 1077.3 550.353 1077.42 550.175Z" fill="#9198A1"/>
<path d="M1077.11 550.719L1076.99 554.676C1076.9 554.864 1076.82 555.059 1076.77 555.255L1076.89 551.298C1076.94 551.111 1077.02 550.915 1077.11 550.719Z" fill="#8D939C"/>
<path d="M1076.89 551.298L1076.77 555.255C1076.71 555.459 1076.67 555.663 1076.65 555.876L1076.77 551.919C1076.79 551.715 1076.83 551.502 1076.89 551.298Z" fill="#888E97"/>
<path d="M1076.77 551.919L1076.65 555.876C1076.64 555.944 1076.64 556.021 1076.63 556.089L1076.75 552.132C1076.76 552.064 1076.76 551.987 1076.77 551.919Z" fill="#848992"/>
<path d="M760.119 552.6L759.999 556.557C758.298 555.927 756.67 555.281 755.123 554.617L755.244 550.66C756.791 551.324 758.419 551.979 760.119 552.6Z" fill="#7B8088"/>
<path d="M755.243 550.66L755.122 554.617C739.561 547.928 731.744 539.52 731.986 531.326L732.107 527.368C731.857 535.563 739.682 543.971 755.243 550.66Z" fill="#767B83"/>
<path d="M1072.51 576.972L1072.39 580.921L886.979 512.34L887.099 508.392L1072.51 576.972Z" fill="#878D96"/>
<path d="M1090.23 592.928L1090.11 596.885C1090.27 591.702 1085.32 586.384 1075.48 582.154L1075.6 578.197C1085.44 582.427 1090.39 587.745 1090.23 592.928Z" fill="#767B83"/>
<path d="M1075.59 578.197L1075.47 582.154C1074.5 581.737 1073.46 581.32 1072.39 580.929L1072.51 576.972C1073.59 577.363 1074.62 577.78 1075.59 578.197Z" fill="#7B8088"/>
<path d="M1140.35 594.443L1140.23 598.4C1140.22 598.672 1140.21 598.944 1140.18 599.217L1140.3 595.259C1140.33 594.987 1140.34 594.715 1140.35 594.443Z" fill="#848992"/>
<path d="M1140.3 595.259L1140.18 599.217C1140.11 599.999 1139.96 600.782 1139.74 601.557L1139.86 597.6C1140.08 596.825 1140.23 596.042 1140.3 595.259Z" fill="#888E97"/>
<path d="M1139.86 597.6L1139.74 601.557C1139.53 602.289 1139.25 603.02 1138.9 603.744L1139.02 599.787C1139.37 599.063 1139.64 598.34 1139.86 597.6Z" fill="#8D939C"/>
<path d="M1139.02 599.795L1138.9 603.752C1138.57 604.45 1138.18 605.148 1137.72 605.837L1137.84 601.88C1138.3 601.191 1138.69 600.493 1139.02 599.795Z" fill="#9198A1"/>
<path d="M1137.84 601.88L1137.72 605.837C1137.26 606.518 1136.76 607.182 1136.18 607.845L1136.31 603.888C1136.87 603.225 1137.39 602.552 1137.84 601.88Z" fill="#969CA6"/>
<path d="M1136.31 603.888L1136.19 607.845C1135.61 608.509 1134.98 609.173 1134.28 609.82L1134.4 605.863C1135.1 605.216 1135.73 604.561 1136.31 603.888Z" fill="#9AA1AB"/>
<path d="M1134.4 605.871L1134.27 609.828C1133.57 610.492 1132.78 611.147 1131.95 611.794L1132.07 607.837C1132.9 607.19 1133.69 606.535 1134.4 605.871Z" fill="#9FA6B0"/>
<path d="M1132.07 607.837L1131.95 611.794C1131.07 612.475 1130.12 613.139 1129.09 613.785L1129.21 609.828C1130.23 609.181 1131.19 608.518 1132.07 607.837Z" fill="#A3ABB5"/>
<path d="M1129.21 609.828L1129.09 613.785C1127.99 614.492 1126.8 615.181 1125.53 615.853L1125.65 611.896C1126.92 611.224 1128.1 610.535 1129.21 609.828Z" fill="#A8AFBA"/>
<path d="M1125.64 611.896L1125.52 615.853C1124.08 616.619 1122.53 617.359 1120.87 618.074L1120.99 614.117C1122.65 613.411 1124.2 612.662 1125.64 611.896Z" fill="#ADB4C0"/>
<path d="M1120.99 614.126L1120.87 618.083C1120.48 618.253 1120.09 618.415 1119.7 618.576L1119.82 614.619C1120.21 614.458 1120.61 614.287 1120.99 614.126Z" fill="#B1B9C5"/>
<path d="M1119.82 614.619L1119.7 618.576L1083.43 633.553L1083.55 629.596L1119.82 614.619Z" fill="#BDC5D1"/>
<path d="M967.13 629.171L967.018 633.128L759.998 556.557L760.119 552.6L967.13 629.171Z" fill="#878D96"/>
<path d="M1083.55 629.596L1083.42 633.554C1081.66 634.285 1079.82 634.966 1077.91 635.613L1078.03 631.656C1079.94 631.009 1081.78 630.328 1083.55 629.596Z" fill="#B1B9C5"/>
<path d="M1078.03 631.656L1077.91 635.613C1067.09 639.255 1054.08 641.502 1040.37 642.353L1040.49 638.396C1054.2 637.536 1067.21 635.298 1078.03 631.656Z" fill="#B6BECA"/>
<path d="M1040.49 638.396L1040.37 642.353C1037.55 642.531 1034.72 642.642 1031.86 642.701L1031.99 638.744C1034.84 638.685 1037.67 638.566 1040.49 638.396Z" fill="#B1B9C5"/>
<path d="M1031.98 638.744L1031.86 642.702C1029.55 642.753 1027.23 642.761 1024.91 642.727L1025.03 638.77C1027.35 638.804 1029.67 638.796 1031.98 638.744Z" fill="#ADB4C0"/>
<path d="M1025.03 638.77L1024.91 642.727C1022.81 642.701 1020.72 642.642 1018.62 642.557L1018.74 638.6C1020.84 638.693 1022.94 638.744 1025.03 638.77Z" fill="#A8AFBA"/>
<path d="M1018.75 638.6L1018.62 642.557C1016.66 642.472 1014.69 642.361 1012.73 642.225L1012.85 638.268C1014.81 638.413 1016.78 638.523 1018.75 638.6Z" fill="#A3ABB5"/>
<path d="M1012.85 638.276L1012.73 642.233C1010.84 642.106 1008.96 641.944 1007.1 641.765L1007.22 637.808C1009.09 637.987 1010.97 638.14 1012.85 638.276Z" fill="#9FA6B0"/>
<path d="M1007.22 637.808L1007.1 641.765C1005.28 641.587 1003.47 641.391 1001.67 641.17L1001.79 637.213C1003.59 637.434 1005.4 637.63 1007.22 637.808Z" fill="#9AA1AB"/>
<path d="M1001.79 637.204L1001.67 641.161C999.895 640.94 998.131 640.693 996.382 640.429L996.503 636.472C998.251 636.745 1000.02 636.983 1001.79 637.204Z" fill="#969CA6"/>
<path d="M996.503 636.472L996.382 640.429C994.625 640.157 992.876 639.868 991.144 639.553L991.264 635.596C992.997 635.919 994.738 636.209 996.503 636.472Z" fill="#9198A1"/>
<path d="M991.265 635.604L991.144 639.561C989.38 639.238 987.631 638.898 985.906 638.523L986.027 634.566C987.752 634.932 989.5 635.281 991.265 635.604Z" fill="#8D939C"/>
<path d="M986.027 634.566L985.906 638.523C984.101 638.14 982.328 637.723 980.571 637.281L980.692 633.324C982.441 633.766 984.222 634.175 986.027 634.566Z" fill="#888E97"/>
<path d="M980.692 633.324L980.571 637.281C978.686 636.804 976.832 636.302 975.011 635.766L975.132 631.809C976.953 632.354 978.806 632.856 980.692 633.324Z" fill="#848992"/>
<path d="M975.132 631.818L975.011 635.775C972.956 635.17 970.949 634.524 968.991 633.843L969.112 629.886C971.07 630.567 973.077 631.213 975.132 631.818Z" fill="#7F858D"/>
<path d="M969.112 629.886L968.991 633.843C968.322 633.613 967.662 633.375 967.009 633.128L967.13 629.171C967.782 629.418 968.443 629.656 969.112 629.886Z" fill="#7B8088"/>
<path d="M1112.33 569.211C1146.55 581.865 1149.9 602.195 1119.82 614.619L1083.55 629.596C1053.46 642.021 1001.35 641.825 967.13 629.171L760.119 552.6C725.909 539.946 722.557 519.616 752.632 507.2L788.904 492.223C818.987 479.799 871.103 479.995 905.32 492.649L940.77 505.762C949.788 509.098 963.536 509.149 971.466 505.873L1036.35 479.075C1044.28 475.799 1043.41 470.438 1034.38 467.102L799.058 380.064C790.032 376.728 789.154 371.367 797.084 368.091C805.013 364.815 818.754 364.866 827.779 368.202L1095.77 467.323C1104.79 470.659 1105.67 476.02 1097.75 479.297L1004.14 517.957C996.206 521.233 997.084 526.594 1006.11 529.93L1018.81 534.627C1027.84 537.963 1041.58 538.014 1049.51 534.738L1280.34 439.411C1288.27 436.135 1302.02 436.186 1311.03 439.522L1405.41 474.429C1414.43 477.765 1415.31 483.126 1407.38 486.402C1399.45 489.679 1385.71 489.628 1376.69 486.292L1314.97 463.469C1305.96 460.133 1292.21 460.082 1284.28 463.358L1082.17 546.813C1074.24 550.09 1075.12 555.451 1084.14 558.787L1112.33 569.211ZM1060.5 612.594L1077.25 605.675C1096.27 597.821 1094.15 584.971 1072.51 576.963L887.099 508.383C865.462 500.384 832.51 500.256 813.491 508.111L796.737 515.029C777.711 522.884 779.83 535.742 801.468 543.741L986.882 612.322C1008.52 620.329 1041.47 620.448 1060.5 612.594Z" fill="#D2DAEA"/>
<path d="M838.648 329.54L838.524 333.391C838.06 333.233 837.621 333.059 837.207 332.894L837.331 329.043C837.754 329.208 838.192 329.374 838.648 329.54Z" fill="#7B8088"/>
<path d="M837.331 329.035L837.207 332.885C832.992 331.171 830.872 329.01 830.938 326.915L831.062 323.064C830.996 325.167 833.116 327.32 837.331 329.035Z" fill="#767B83"/>
<path d="M1277.97 371.343L1277.84 375.194C1277.84 375.26 1277.84 375.335 1277.83 375.401L1277.95 371.55C1277.96 371.484 1277.96 371.418 1277.97 371.343Z" fill="#848992"/>
<path d="M1277.95 371.559L1277.83 375.41C1277.81 375.608 1277.77 375.807 1277.7 376.014L1277.83 372.163C1277.89 371.956 1277.93 371.758 1277.95 371.559Z" fill="#888E97"/>
<path d="M1277.83 372.155L1277.7 376.006C1277.64 376.196 1277.57 376.378 1277.48 376.569L1277.6 372.718C1277.69 372.528 1277.77 372.345 1277.83 372.155Z" fill="#8D939C"/>
<path d="M1277.6 372.718L1277.48 376.569C1277.39 376.751 1277.28 376.925 1277.16 377.107L1277.28 373.256C1277.4 373.074 1277.51 372.9 1277.6 372.718Z" fill="#9198A1"/>
<path d="M1277.28 373.256L1277.16 377.107C1277.03 377.281 1276.9 377.455 1276.74 377.621L1276.87 373.77C1277.02 373.596 1277.16 373.43 1277.28 373.256Z" fill="#969CA6"/>
<path d="M1276.87 373.77L1276.74 377.621C1276.58 377.795 1276.41 377.96 1276.23 378.126L1276.35 374.275C1276.54 374.109 1276.71 373.944 1276.87 373.77Z" fill="#9AA1AB"/>
<path d="M1276.35 374.275L1276.23 378.126C1276.04 378.3 1275.82 378.465 1275.6 378.631L1275.72 374.78C1275.95 374.615 1276.15 374.449 1276.35 374.275Z" fill="#9FA6B0"/>
<path d="M1275.71 374.78L1275.59 378.631C1275.35 378.805 1275.09 378.979 1274.82 379.144L1274.94 375.294C1275.22 375.128 1275.48 374.954 1275.71 374.78Z" fill="#A3ABB5"/>
<path d="M1274.94 375.294L1274.82 379.144C1274.52 379.327 1274.2 379.5 1273.85 379.674L1273.98 375.824C1274.32 375.65 1274.65 375.476 1274.94 375.294Z" fill="#A8AFBA"/>
<path d="M1273.98 375.824L1273.85 379.674C1273.46 379.873 1273.04 380.064 1272.59 380.246L1272.72 376.395C1273.16 376.213 1273.59 376.022 1273.98 375.824Z" fill="#ADB4C0"/>
<path d="M1272.72 376.395L1272.59 380.246C1272.49 380.287 1272.39 380.329 1272.28 380.37L1272.4 376.519C1272.51 376.478 1272.61 376.436 1272.72 376.395Z" fill="#B1B9C5"/>
<path d="M1272.4 376.519L1272.28 380.37L1145.48 429.958L1145.59 426.107L1272.4 376.519Z" fill="#BDC5D1"/>
<path d="M1114.05 426L1113.93 429.85L838.532 333.382L838.648 329.54L1114.05 426Z" fill="#878D96"/>
<path d="M1270.37 364.876C1279.65 368.122 1280.55 373.339 1272.4 376.528L1145.6 426.116C1137.45 429.304 1123.33 429.254 1114.06 426.008L838.648 329.54C829.382 326.293 828.471 321.076 836.619 317.888C844.776 314.7 858.896 314.749 868.163 317.996L1109.99 402.705C1119.27 405.951 1133.39 406 1141.53 402.812L1238.82 364.768C1246.98 361.58 1261.1 361.621 1270.37 364.876Z" fill="#D2DAEA"/>
<path d="M1145.59 426.107L1145.47 429.958C1144.99 430.149 1144.49 430.323 1143.98 430.488L1144.1 426.637C1144.62 426.472 1145.11 426.298 1145.59 426.107Z" fill="#B1B9C5"/>
<path d="M1144.1 426.637L1143.98 430.488C1141.05 431.424 1137.52 431.995 1133.8 432.219L1133.92 428.368C1137.64 428.145 1141.17 427.573 1144.1 426.637Z" fill="#B6BECA"/>
<path d="M1133.92 428.368L1133.8 432.219C1133.04 432.26 1132.27 432.293 1131.5 432.31L1131.62 428.459C1132.39 428.443 1133.16 428.41 1133.92 428.368Z" fill="#B1B9C5"/>
<path d="M1131.62 428.459L1131.5 432.31C1130.88 432.318 1130.25 432.327 1129.62 432.318L1129.74 428.468C1130.37 428.468 1131 428.468 1131.62 428.459Z" fill="#ADB4C0"/>
<path d="M1129.74 428.459L1129.62 432.31C1129.05 432.302 1128.48 432.285 1127.91 432.269L1128.04 428.418C1128.61 428.443 1129.17 428.459 1129.74 428.459Z" fill="#A8AFBA"/>
<path d="M1128.04 428.418L1127.91 432.269C1127.38 432.244 1126.84 432.219 1126.31 432.186L1126.44 428.335C1126.97 428.368 1127.51 428.401 1128.04 428.418Z" fill="#A3ABB5"/>
<path d="M1126.44 428.335L1126.31 432.186C1125.8 432.153 1125.3 432.111 1124.79 432.062L1124.91 428.211C1125.42 428.26 1125.93 428.302 1126.44 428.335Z" fill="#9FA6B0"/>
<path d="M1124.91 428.219L1124.79 432.07C1124.29 432.028 1123.8 431.97 1123.32 431.912L1123.44 428.062C1123.93 428.12 1124.43 428.169 1124.91 428.219Z" fill="#9AA1AB"/>
<path d="M1123.44 428.062L1123.31 431.913C1122.83 431.855 1122.35 431.797 1121.88 431.722L1122.01 427.871C1122.49 427.946 1122.96 428.004 1123.44 428.062Z" fill="#969CA6"/>
<path d="M1122.01 427.871L1121.88 431.722C1121.4 431.656 1120.93 431.581 1120.47 431.498L1120.59 427.648C1121.06 427.73 1121.54 427.805 1122.01 427.871Z" fill="#9198A1"/>
<path d="M1120.59 427.648L1120.47 431.498C1119.99 431.416 1119.51 431.325 1119.04 431.233L1119.17 427.383C1119.64 427.482 1120.11 427.565 1120.59 427.648Z" fill="#8D939C"/>
<path d="M1119.17 427.383L1119.05 431.233C1118.56 431.134 1118.08 431.026 1117.61 430.919L1117.73 427.068C1118.2 427.176 1118.69 427.283 1119.17 427.383Z" fill="#888E97"/>
<path d="M1117.73 427.068L1117.6 430.919C1117.09 430.795 1116.59 430.67 1116.09 430.53L1116.22 426.679C1116.72 426.811 1117.21 426.944 1117.73 427.068Z" fill="#848992"/>
<path d="M1116.22 426.679L1116.09 430.53C1115.54 430.372 1114.99 430.207 1114.46 430.033L1114.59 426.182C1115.12 426.356 1115.66 426.521 1116.22 426.679Z" fill="#7F858D"/>
<path d="M1114.59 426.182L1114.46 430.033C1114.28 429.975 1114.11 429.908 1113.92 429.85L1114.05 426C1114.23 426.066 1114.41 426.124 1114.59 426.182Z" fill="#7B8088"/>
<g opacity="0.5">
<g opacity="0.5">
<g opacity="0.5">
<g opacity="0.5">
<g opacity="0.5">
<path opacity="0.5" d="M832.862 371.576L832.736 375.487C832.265 375.328 831.819 375.151 831.398 374.983L831.525 371.072C831.945 371.24 832.391 371.408 832.862 371.576Z" fill="#7B8088"/>
<path opacity="0.5" d="M831.524 371.072L831.398 374.983C827.117 373.242 824.964 371.047 825.031 368.91L825.157 364.999C825.09 367.136 827.243 369.322 831.524 371.072Z" fill="#767B83"/>
</g>
</g>
<g opacity="0.5">
<g opacity="0.5">
<path opacity="0.5" d="M1279.08 414.033L1278.95 417.944C1278.95 418.012 1278.94 418.087 1278.94 418.155L1279.06 414.244C1279.08 414.176 1279.08 414.109 1279.08 414.033Z" fill="#848992"/>
<path opacity="0.5" d="M1279.07 414.252L1278.95 418.163C1278.93 418.365 1278.89 418.567 1278.82 418.777L1278.95 414.866C1279 414.656 1279.05 414.454 1279.07 414.252Z" fill="#888E97"/>
<path opacity="0.5" d="M1278.95 414.858L1278.82 418.769C1278.76 418.962 1278.68 419.147 1278.59 419.341L1278.72 415.43C1278.81 415.245 1278.89 415.051 1278.95 414.858Z" fill="#8D939C"/>
<path opacity="0.5" d="M1278.72 415.43L1278.59 419.341C1278.5 419.526 1278.39 419.702 1278.26 419.887L1278.39 415.976C1278.52 415.791 1278.63 415.615 1278.72 415.43Z" fill="#9198A1"/>
<path opacity="0.5" d="M1278.39 415.976L1278.26 419.887C1278.14 420.064 1278 420.24 1277.84 420.409L1277.97 416.498C1278.13 416.321 1278.26 416.153 1278.39 415.976Z" fill="#969CA6"/>
<path opacity="0.5" d="M1277.97 416.498L1277.84 420.409C1277.68 420.585 1277.51 420.754 1277.32 420.922L1277.45 417.011C1277.63 416.843 1277.81 416.674 1277.97 416.498Z" fill="#9AA1AB"/>
<path opacity="0.5" d="M1277.45 417.011L1277.32 420.922C1277.13 421.098 1276.91 421.267 1276.68 421.435L1276.81 417.524C1277.04 417.356 1277.25 417.187 1277.45 417.011Z" fill="#9FA6B0"/>
<path opacity="0.5" d="M1276.8 417.524L1276.67 421.435C1276.43 421.611 1276.17 421.788 1275.89 421.956L1276.02 418.045C1276.3 417.877 1276.56 417.7 1276.8 417.524Z" fill="#A3ABB5"/>
<path opacity="0.5" d="M1276.02 418.045L1275.89 421.956C1275.59 422.141 1275.26 422.318 1274.91 422.495L1275.03 418.584C1275.39 418.407 1275.72 418.23 1276.02 418.045Z" fill="#A8AFBA"/>
<path opacity="0.5" d="M1275.03 418.584L1274.91 422.495C1274.51 422.696 1274.08 422.89 1273.63 423.075L1273.76 419.164C1274.21 418.979 1274.64 418.785 1275.03 418.584Z" fill="#ADB4C0"/>
<path opacity="0.5" d="M1273.76 419.164L1273.63 423.075C1273.52 423.117 1273.42 423.159 1273.31 423.201L1273.44 419.29C1273.54 419.248 1273.65 419.206 1273.76 419.164Z" fill="#B1B9C5"/>
</g>
</g>
<g opacity="0.5">
<path opacity="0.5" d="M1273.43 419.29L1273.31 423.201L1144.51 473.564L1144.63 469.653L1273.43 419.29Z" fill="#BDC5D1"/>
</g>
<g opacity="0.5">
<path opacity="0.5" d="M1112.59 469.544L1112.48 473.455L832.736 375.479L832.862 371.576L1112.59 469.544Z" fill="#878D96"/>
</g>
<g opacity="0.5">
<path opacity="0.5" d="M1271.38 407.465C1280.8 410.762 1281.71 416.06 1273.44 419.299L1144.64 469.662C1136.36 472.9 1122.02 472.849 1112.6 469.552L832.862 371.576C823.45 368.279 822.525 362.981 830.802 359.743C839.078 356.504 853.428 356.555 862.841 359.852L1108.47 445.885C1117.89 449.182 1132.23 449.232 1140.51 445.994L1239.33 407.355C1247.61 404.117 1261.95 404.168 1271.38 407.465Z" fill="#AEB6C1"/>
</g>
<g opacity="0.5">
<g opacity="0.5">
<path opacity="0.5" d="M1144.63 469.653L1144.51 473.564C1144.02 473.758 1143.51 473.934 1142.99 474.102L1143.12 470.191C1143.64 470.023 1144.14 469.847 1144.63 469.653Z" fill="#B1B9C5"/>
<path opacity="0.5" d="M1143.12 470.191L1142.99 474.102C1140.01 475.053 1136.43 475.633 1132.65 475.86L1132.78 471.949C1136.56 471.722 1140.13 471.142 1143.12 470.191Z" fill="#B6BECA"/>
<path opacity="0.5" d="M1132.78 471.949L1132.65 475.86C1131.88 475.902 1131.1 475.936 1130.32 475.953L1130.44 472.042C1131.22 472.025 1132.01 471.991 1132.78 471.949Z" fill="#B1B9C5"/>
<path opacity="0.5" d="M1130.44 472.042L1130.31 475.953C1129.68 475.961 1129.04 475.97 1128.41 475.961L1128.53 472.05C1129.16 472.05 1129.8 472.05 1130.44 472.042Z" fill="#ADB4C0"/>
<path opacity="0.5" d="M1128.52 472.05L1128.4 475.961C1127.83 475.953 1127.25 475.936 1126.67 475.919L1126.79 472.008C1127.37 472.025 1127.95 472.042 1128.52 472.05Z" fill="#A8AFBA"/>
<path opacity="0.5" d="M1126.8 472L1126.67 475.911C1126.13 475.885 1125.59 475.86 1125.05 475.827L1125.18 471.916C1125.71 471.949 1126.25 471.983 1126.8 472Z" fill="#A3ABB5"/>
<path opacity="0.5" d="M1125.18 471.916L1125.05 475.827C1124.53 475.793 1124.02 475.751 1123.5 475.7L1123.63 471.789C1124.14 471.84 1124.66 471.882 1125.18 471.916Z" fill="#9FA6B0"/>
<path opacity="0.5" d="M1123.63 471.798L1123.5 475.709C1123 475.667 1122.5 475.608 1122 475.549L1122.13 471.638C1122.63 471.697 1123.12 471.747 1123.63 471.798Z" fill="#9AA1AB"/>
<path opacity="0.5" d="M1122.13 471.638L1122.01 475.549C1121.52 475.49 1121.03 475.431 1120.55 475.356L1120.68 471.445C1121.16 471.52 1121.64 471.579 1122.13 471.638Z" fill="#969CA6"/>
<path opacity="0.5" d="M1120.68 471.445L1120.55 475.356C1120.06 475.288 1119.58 475.213 1119.11 475.128L1119.24 471.218C1119.71 471.302 1120.2 471.377 1120.68 471.445Z" fill="#9198A1"/>
<path opacity="0.5" d="M1119.24 471.218L1119.11 475.129C1118.62 475.044 1118.14 474.952 1117.67 474.859L1117.8 470.948C1118.27 471.049 1118.75 471.133 1119.24 471.218Z" fill="#8D939C"/>
<path opacity="0.5" d="M1117.79 470.948L1117.66 474.859C1117.17 474.758 1116.68 474.649 1116.2 474.54L1116.33 470.629C1116.81 470.738 1117.29 470.847 1117.79 470.948Z" fill="#888E97"/>
<path opacity="0.5" d="M1116.33 470.629L1116.2 474.54C1115.68 474.414 1115.18 474.287 1114.67 474.144L1114.8 470.233C1115.29 470.376 1115.81 470.503 1116.33 470.629Z" fill="#848992"/>
<path opacity="0.5" d="M1114.8 470.234L1114.67 474.145C1114.11 473.985 1113.55 473.817 1113.01 473.64L1113.14 469.729C1113.68 469.906 1114.23 470.074 1114.8 470.234Z" fill="#7F858D"/>
<path opacity="0.5" d="M1113.14 469.729L1113.01 473.64C1112.83 473.581 1112.65 473.514 1112.47 473.455L1112.59 469.544C1112.78 469.611 1112.95 469.67 1113.14 469.729Z" fill="#7B8088"/>
</g>
</g>
</g>
</g>
</g>
<path d="M1234.28 423.97L1274.65 436.586L1329.33 416.4L1285.59 407.148L1234.28 423.97Z" fill="url(#paint4_linear)"/>
<path d="M1274.65 436.586L1273.81 518.169L1231.65 503.333L1232.6 423.129L1274.65 436.586Z" fill="url(#paint5_linear)"/>
<path d="M1329.45 416.4L1329.24 494.846L1273.81 518.169L1274.73 436.485L1329.45 416.4Z" fill="url(#paint6_linear)"/>
<path d="M926.354 52.9964L989.439 68.1356L1044.11 47.95L978.504 34.493L926.354 52.9964Z" fill="url(#paint7_linear)"/>
<path d="M989.439 68.1356V355.78L928.036 334.207L926.354 52.9965L989.439 68.1356Z" fill="url(#paint8_linear)"/>
<path d="M1044.11 47.95L1044.95 332.23L989.439 355.78V68.1356L1044.11 47.95Z" fill="url(#paint9_linear)"/>
<path d="M771 349.983L848.735 376L888 359.345L813.247 336" fill="url(#paint10_linear)"/>
<path d="M772.926 350L849 374.803L848.173 455L772 428.833" fill="url(#paint11_linear)"/>
<path d="M888 359L887.79 436.985L848 456L848.84 374.528L888 359Z" fill="url(#paint12_linear)"/>
<path d="M1012.15 269.807L1089.54 295.518L1128.62 279.058L1054.21 255.988" fill="url(#paint13_linear)"/>
<path d="M1012.15 269.807L1089.54 295.038L1088.69 376.622L1011.21 350.002" fill="url(#paint14_linear)"/>
<path d="M1128.73 279.058L1128.52 357.496L1088.69 376.622L1089.54 294.677L1128.73 279.058Z" fill="url(#paint15_linear)"/>
<path d="M871 403.333L912.859 417L934 408.25L893.753 396" fill="url(#paint16_linear)"/>
<path d="M1105.38 279.358L1168.46 294.497L1251.73 261.695L1186.12 248.238L1105.38 279.358Z" fill="url(#paint17_linear)"/>
<path d="M1168.46 294.497V582.142L1106.22 558.592L1105.38 279.358L1168.46 294.497Z" fill="url(#paint18_linear)"/>
<path d="M1251.73 261.695L1252.58 545.976L1168.46 582.142V294.497L1251.73 261.695Z" fill="url(#paint19_linear)"/>
<path d="M871.517 403L914 416.7L913.544 461L871 446.543" fill="url(#paint20_linear)"/>
<path d="M934 408L933.885 450.608L913 461L913.436 416.493L934 408Z" fill="url(#paint21_linear)"/>
<path d="M948 406.785L1003.15 425L1031 413.333L977.972 397" fill="url(#paint22_linear)"/>
<path d="M947.675 406L1003 423.952L1002.4 482L947 463.065" fill="url(#paint23_linear)"/>
<path d="M1031 413L1030.85 468.474L1002 482L1002.61 424.055L1031 413Z" fill="url(#paint24_linear)"/>
<g filter="url(#filter1_f)">
<ellipse cx="954.234" cy="579.688" rx="26.5781" ry="10.125" fill="#324056" fill-opacity="0.5"/>
</g>
<path d="M943.447 478.973C942.343 477.307 940.925 475.998 939.3 475.277C935.824 473.72 932.108 475.09 929.883 478.749C927.673 482.406 927.383 487.657 929.163 492.016C930.929 496.377 934.416 499.01 938.011 498.685C940.947 498.42 943.391 496.238 944.724 493.093C944.242 492.388 943.837 491.587 943.484 490.721C941.944 486.938 941.96 482.491 943.447 478.973Z" fill="#093C8D"/>
<path d="M983.697 482.457C986.34 511.676 961.251 558 960.187 559.967C960.051 560.219 959.896 560.427 959.726 560.622C959.686 560.656 959.66 560.688 959.62 560.722L944.432 562.096C944.644 561.882 944.333 561.632 945.36 561.255C944.743 560.891 947.576 558.144 949.66 553.884C949.819 553.57 949.977 553.242 950.135 552.913C957.452 537.881 971.381 505.919 969.377 483.767C968.307 472.098 963.871 461.213 957.038 453.509C952.147 447.964 946.295 444.407 940.2 443.102C942.455 442.179 944.828 441.591 947.261 441.356C955.871 440.606 964.539 444.493 971.359 452.213C978.191 459.903 982.627 470.788 983.697 482.457Z" fill="#093C8D"/>
<path d="M957.037 453.494C952.147 447.949 946.295 444.392 940.199 443.087C937.801 442.586 935.375 442.431 932.939 442.637C924.335 443.445 916.491 448.825 911.167 457.644C905.828 466.45 903.418 477.955 904.459 489.626C907.103 518.846 940.099 559.914 941.499 561.658C941.597 561.784 941.692 561.88 941.803 561.99C941.93 562.113 942.054 562.207 942.192 562.299L944.841 562.059C945.067 561.844 945.276 561.601 945.466 561.299C945.729 560.856 947.348 558.165 949.661 553.884C949.82 553.571 949.978 553.242 950.136 552.913C957.453 537.881 971.382 505.92 969.378 483.767C968.306 472.084 963.871 461.199 957.037 453.494ZM944.724 493.093C943.391 496.238 940.946 498.42 938.01 498.685C934.416 499.011 930.929 496.377 929.163 492.016C927.382 487.657 927.673 482.406 929.883 478.749C932.107 475.09 935.824 473.72 939.3 475.277C940.925 475.998 942.342 477.307 943.446 478.974C944.702 480.881 945.54 483.29 945.775 485.888C946.015 488.531 945.605 491.023 944.724 493.093Z" fill="#0859F5"/>
<g filter="url(#filter2_f)">
<ellipse cx="1182.32" cy="262.769" rx="9.55071" ry="3.63837" fill="#324056" fill-opacity="0.5"/>
</g>
<path d="M1178.44 226.578C1178.04 225.979 1177.54 225.509 1176.95 225.25C1175.7 224.69 1174.37 225.182 1173.57 226.497C1172.77 227.812 1172.67 229.698 1173.31 231.265C1173.94 232.832 1175.2 233.778 1176.49 233.661C1177.54 233.566 1178.42 232.782 1178.9 231.652C1178.73 231.399 1178.58 231.111 1178.45 230.799C1177.9 229.44 1177.91 227.842 1178.44 226.578Z" fill="#898A8C"/>
<path d="M1192.9 227.83C1193.85 238.33 1184.84 254.976 1184.46 255.683C1184.41 255.773 1184.35 255.848 1184.29 255.918C1184.28 255.93 1184.27 255.942 1184.25 255.954L1178.8 256.448C1178.87 256.371 1178.76 256.281 1179.13 256.145C1178.91 256.015 1179.93 255.028 1180.67 253.497C1180.73 253.384 1180.79 253.266 1180.84 253.148C1183.47 247.746 1188.48 236.261 1187.76 228.301C1187.37 224.108 1185.78 220.196 1183.33 217.427C1181.57 215.435 1179.46 214.157 1177.27 213.688C1178.09 213.356 1178.94 213.145 1179.81 213.06C1182.91 212.791 1186.02 214.187 1188.47 216.962C1190.93 219.725 1192.52 223.637 1192.9 227.83Z" fill="#898A8C"/>
<path d="M1183.33 217.422C1181.57 215.43 1179.47 214.151 1177.28 213.683C1176.41 213.502 1175.54 213.447 1174.67 213.521C1171.57 213.811 1168.76 215.744 1166.84 218.914C1164.92 222.078 1164.06 226.212 1164.43 230.406C1165.38 240.906 1177.24 255.663 1177.74 256.29C1177.78 256.336 1177.81 256.37 1177.85 256.41C1177.9 256.454 1177.94 256.487 1177.99 256.521L1178.94 256.434C1179.02 256.357 1179.1 256.27 1179.17 256.161C1179.26 256.002 1179.84 255.035 1180.68 253.497C1180.73 253.384 1180.79 253.266 1180.85 253.148C1183.48 247.746 1188.48 236.261 1187.76 228.301C1187.38 224.102 1185.78 220.191 1183.33 217.422ZM1178.9 231.652C1178.42 232.782 1177.54 233.566 1176.49 233.661C1175.2 233.778 1173.94 232.832 1173.31 231.265C1172.67 229.698 1172.77 227.812 1173.57 226.497C1174.37 225.182 1175.7 224.69 1176.95 225.25C1177.54 225.509 1178.05 225.979 1178.44 226.578C1178.89 227.263 1179.19 228.129 1179.28 229.063C1179.36 230.012 1179.22 230.908 1178.9 231.652Z" fill="#324056"/>
<g filter="url(#filter3_f)">
<ellipse cx="833.318" cy="354.769" rx="9.55071" ry="3.63837" fill="#324056" fill-opacity="0.5"/>
</g>
<path d="M829.441 318.578C829.045 317.979 828.535 317.509 827.951 317.25C826.702 316.69 825.367 317.182 824.567 318.497C823.773 319.812 823.669 321.698 824.309 323.265C824.943 324.832 826.196 325.778 827.488 325.661C828.543 325.566 829.422 324.782 829.9 323.652C829.727 323.399 829.582 323.111 829.455 322.799C828.901 321.44 828.907 319.842 829.441 318.578Z" fill="#898A8C"/>
<path d="M843.905 319.83C844.855 330.33 835.839 346.976 835.457 347.683C835.408 347.773 835.352 347.848 835.291 347.918C835.277 347.93 835.268 347.942 835.253 347.954L829.795 348.448C829.872 348.371 829.76 348.281 830.129 348.145C829.907 348.015 830.925 347.028 831.674 345.497C831.731 345.384 831.788 345.266 831.845 345.148C834.474 339.746 839.479 328.261 838.759 320.301C838.375 316.108 836.781 312.196 834.325 309.427C832.568 307.435 830.465 306.157 828.275 305.688C829.085 305.356 829.938 305.145 830.812 305.06C833.906 304.791 837.021 306.187 839.471 308.962C841.926 311.725 843.52 315.637 843.905 319.83Z" fill="#898A8C"/>
<path d="M834.326 309.422C832.568 307.43 830.466 306.151 828.275 305.683C827.413 305.502 826.542 305.447 825.666 305.521C822.575 305.811 819.756 307.744 817.843 310.914C815.924 314.078 815.058 318.212 815.432 322.406C816.382 332.906 828.239 347.663 828.742 348.29C828.777 348.336 828.812 348.37 828.852 348.41C828.897 348.454 828.942 348.487 828.991 348.521L829.943 348.434C830.025 348.357 830.1 348.27 830.168 348.161C830.262 348.002 830.844 347.035 831.675 345.497C831.732 345.384 831.789 345.266 831.846 345.148C834.475 339.746 839.481 328.261 838.76 320.301C838.375 316.102 836.781 312.191 834.326 309.422ZM829.901 323.652C829.422 324.782 828.544 325.566 827.489 325.661C826.197 325.778 824.944 324.832 824.309 323.265C823.669 321.698 823.774 319.812 824.568 318.497C825.367 317.182 826.703 316.69 827.952 317.25C828.536 317.509 829.045 317.979 829.442 318.578C829.893 319.263 830.195 320.129 830.279 321.063C830.365 322.012 830.218 322.908 829.901 323.652Z" fill="#324056"/>
<g filter="url(#filter4_f)">
<ellipse cx="994.927" cy="412.973" rx="6.39098" ry="2.43466" fill="#324056" fill-opacity="0.5"/>
</g>
<path d="M992.333 388.755C992.067 388.354 991.726 388.04 991.336 387.866C990.5 387.492 989.606 387.821 989.071 388.701C988.54 389.581 988.47 390.843 988.898 391.891C989.323 392.94 990.161 393.573 991.026 393.495C991.732 393.431 992.32 392.906 992.64 392.15C992.524 391.981 992.427 391.788 992.342 391.58C991.971 390.67 991.975 389.601 992.333 388.755Z" fill="#898A8C"/>
<path d="M1002.01 389.593C1002.65 396.619 996.615 407.758 996.359 408.231C996.326 408.291 996.289 408.342 996.248 408.388C996.239 408.396 996.232 408.404 996.223 408.412L992.571 408.743C992.622 408.691 992.547 408.631 992.794 408.54C992.645 408.453 993.327 407.792 993.828 406.768C993.866 406.693 993.904 406.614 993.942 406.535C995.701 402.92 999.051 395.235 998.569 389.908C998.311 387.102 997.245 384.484 995.602 382.632C994.426 381.299 993.019 380.443 991.553 380.129C992.095 379.908 992.666 379.766 993.251 379.709C995.321 379.529 997.405 380.464 999.045 382.32C1000.69 384.169 1001.75 386.787 1002.01 389.593Z" fill="#898A8C"/>
<path d="M995.601 382.628C994.425 381.295 993.018 380.44 991.552 380.126C990.976 380.005 990.392 379.968 989.807 380.018C987.738 380.212 985.852 381.506 984.571 383.626C983.287 385.744 982.708 388.51 982.958 391.317C983.594 398.343 991.528 408.218 991.865 408.637C991.888 408.668 991.911 408.691 991.938 408.717C991.969 408.747 991.998 408.769 992.032 408.792L992.669 408.734C992.723 408.682 992.773 408.624 992.819 408.551C992.882 408.445 993.271 407.798 993.828 406.768C993.866 406.693 993.904 406.614 993.942 406.535C995.701 402.92 999.051 395.235 998.569 389.908C998.311 387.098 997.245 384.481 995.601 382.628ZM992.64 392.15C992.32 392.906 991.732 393.431 991.026 393.495C990.162 393.573 989.323 392.94 988.899 391.891C988.47 390.843 988.54 389.581 989.072 388.701C989.607 387.821 990.5 387.492 991.336 387.866C991.727 388.04 992.068 388.354 992.333 388.755C992.635 389.214 992.837 389.793 992.893 390.418C992.951 391.053 992.852 391.652 992.64 392.15Z" fill="#324056"/>
<g filter="url(#filter5_f)">
<ellipse cx="988.318" cy="50.7691" rx="9.55071" ry="3.63837" fill="#324056" fill-opacity="0.5"/>
</g>
<path d="M984.441 14.578C984.045 13.9792 983.535 13.5089 982.951 13.2497C981.702 12.6904 980.367 13.1824 979.567 14.4972C978.773 15.8116 978.669 17.6983 979.309 19.2649C979.943 20.8319 981.196 21.7782 982.488 21.6614C983.543 21.5659 984.422 20.7818 984.9 19.6519C984.727 19.3987 984.582 19.1106 984.455 18.7993C983.901 17.4401 983.907 15.842 984.441 14.578Z" fill="#898A8C"/>
<path d="M998.905 15.8297C999.855 26.3296 990.839 42.9757 990.457 43.6826C990.408 43.7731 990.352 43.8481 990.291 43.9181C990.277 43.9302 990.268 43.9418 990.253 43.9539L984.795 44.4476C984.872 44.3708 984.76 44.2809 985.129 44.1453C984.907 44.0148 985.925 43.0276 986.674 41.4968C986.731 41.384 986.788 41.2659 986.845 41.1478C989.474 35.7461 994.479 24.2609 993.759 16.3007C993.375 12.1076 991.781 8.19602 989.325 5.42747C987.568 3.43489 985.465 2.15667 983.275 1.68785C984.085 1.35633 984.938 1.14472 985.812 1.06024C988.906 0.791083 992.021 2.18751 994.471 4.96187C996.926 7.72509 998.52 11.6366 998.905 15.8297Z" fill="#898A8C"/>
<path d="M989.326 5.42223C987.568 3.42965 985.466 2.15143 983.275 1.68261C982.413 1.50241 981.542 1.44678 980.666 1.5206C977.575 1.81109 974.756 3.74436 972.843 6.91355C970.924 10.0779 970.058 14.212 970.432 18.406C971.382 28.9059 983.239 43.6635 983.742 44.2903C983.777 44.3356 983.812 44.3701 983.852 44.4095C983.897 44.4538 983.942 44.4875 983.991 44.5206L984.943 44.4345C985.025 44.3572 985.1 44.2697 985.168 44.1614C985.262 44.0022 985.844 43.0351 986.675 41.4969C986.732 41.3841 986.789 41.266 986.846 41.1479C989.475 35.7462 994.481 24.261 993.76 16.3008C993.375 12.1023 991.781 8.19078 989.326 5.42223ZM984.901 19.6519C984.422 20.7818 983.544 21.566 982.489 21.6614C981.197 21.7783 979.944 20.832 979.309 19.2649C978.669 17.6984 978.774 15.8117 979.568 14.4973C980.367 13.1824 981.703 12.6904 982.952 13.2498C983.536 13.5089 984.045 13.9792 984.442 14.5781C984.893 15.2634 985.195 16.1291 985.279 17.0627C985.365 18.0124 985.218 18.9079 984.901 19.6519Z" fill="#324056"/>
<g filter="url(#filter6_f)">
<path d="M779.787 525.385L751.067 513.327L799.428 488.68L827.544 502.198L779.787 525.385Z" fill="#324056"/>
</g>
<path d="M786.393 522.418C789.17 522.692 791.728 519.806 792.106 515.972C792.483 512.138 790.538 508.809 787.761 508.535C784.985 508.262 782.427 511.148 782.049 514.981C781.672 518.815 783.617 522.144 786.393 522.418Z" fill="#9BA9C2"/>
<path d="M822.489 508.05C825.273 508.238 827.741 505.275 828.001 501.432C828.261 497.589 826.215 494.32 823.431 494.132C820.647 493.943 818.18 496.906 817.919 500.749C817.659 504.593 819.705 507.861 822.489 508.05Z" fill="#9BA9C2"/>
<path d="M755.233 512.12C758.024 512.145 760.313 509.043 760.348 505.191C760.382 501.339 758.148 498.196 755.358 498.171C752.568 498.146 750.278 501.248 750.243 505.1C750.209 508.952 752.443 512.095 755.233 512.12Z" fill="#9BA9C2"/>
<path d="M755.317 511.643C757.437 511.764 759.331 508.8 759.548 505.023C759.764 501.245 758.221 498.084 756.101 497.962C753.98 497.841 752.086 500.805 751.87 504.582C751.653 508.36 753.196 511.521 755.317 511.643Z" fill="#C3CDE0"/>
<path d="M779.172 520.175L751.851 508.705C749.405 507.678 747.847 505.231 747.94 502.568L748.543 485.708C748.736 480.358 752.114 475.653 757.111 473.776L786.147 462.877C794.005 459.931 802.642 459.818 810.575 462.565L823.113 466.711C828.207 468.398 831.561 473.281 831.319 478.663L830.766 490.78C830.579 495.863 827.461 500.372 822.778 502.316L779.576 520.183L779.172 520.175Z" fill="url(#paint25_linear)"/>
<path d="M779.172 520.175L751.851 508.705C749.405 507.678 747.847 505.231 747.94 502.568L748.543 485.708C748.736 480.358 752.114 475.653 757.111 473.776L786.147 462.877C794.005 459.931 802.642 459.818 810.575 462.565L823.113 466.711C828.207 468.398 831.561 473.281 831.319 478.663L830.766 490.78C830.579 495.863 827.461 500.372 822.778 502.316L779.576 520.183L779.172 520.175Z" fill="url(#paint26_linear)"/>
<path d="M779.172 520.175L751.851 508.705C749.405 507.678 747.847 505.231 747.94 502.568L748.543 485.708C748.736 480.358 752.114 475.653 757.111 473.776L786.147 462.877C794.005 459.931 802.642 459.818 810.575 462.565L823.113 466.711C828.207 468.398 831.561 473.281 831.319 478.663L830.766 490.78C830.579 495.863 827.461 500.372 822.778 502.316L779.576 520.183L779.172 520.175Z" fill="url(#paint27_linear)"/>
<path d="M788.226 522.598C790.34 522.807 792.354 519.923 792.725 516.157C793.096 512.391 791.683 509.17 789.57 508.962C787.456 508.753 785.442 511.637 785.071 515.403C784.7 519.169 786.113 522.39 788.226 522.598Z" fill="#D7DFEE"/>
<path d="M789.211 517.842C789.853 517.896 790.46 516.902 790.567 515.623C790.674 514.343 790.241 513.262 789.599 513.209C788.958 513.155 788.351 514.148 788.243 515.428C788.136 516.708 788.569 517.789 789.211 517.842Z" fill="#C3CDE0"/>
<path d="M823.992 508.201C826.111 508.344 828.036 505.4 828.291 501.624C828.547 497.849 827.036 494.672 824.918 494.529C822.799 494.385 820.874 497.33 820.618 501.105C820.363 504.88 821.873 508.057 823.992 508.201Z" fill="#D7DFEE"/>
<path d="M753.507 486.506L753.059 504.135L776.809 513.266L776.961 496.243C777.007 491.071 780.103 486.416 784.847 484.39L824.478 467.473L808.773 462.062C805.712 461.11 801.1 461.422 798.113 462.579L759.902 477.401C756.132 478.863 753.612 482.453 753.507 486.506Z" fill="url(#paint28_linear)"/>
<path d="M752.199 503.89L775.733 513.576L776.96 496.239L753.323 488.005L752.199 503.89Z" fill="url(#paint29_linear)"/>
<path d="M824.493 503.438C825.136 503.444 825.668 502.408 825.679 501.124C825.691 499.84 825.178 498.794 824.534 498.789C823.89 498.783 823.359 499.819 823.347 501.103C823.336 502.387 823.849 503.433 824.493 503.438Z" fill="#C3CDE0"/>
<path d="M777.252 492.129L776.961 496.239L753.203 487.919L753.521 483.432L777.252 492.129Z" fill="#C3CDE0"/>
<path d="M783.766 494.088L782.672 509.555L799.042 502.333L799.18 486.928L783.766 494.088Z" fill="#C3CDE0"/>
<path d="M784.508 506.678L797.381 501.073L798.194 489.601L785.311 495.338L784.508 506.678Z" fill="url(#paint30_linear)"/>
<path d="M817.106 478.868L815.974 494.87L826.915 490.131L828.056 474.019L817.106 478.868Z" fill="#C3CDE0"/>
<path d="M798.866 485.894L797.013 512.074L815.186 504.839L817.118 477.543L798.866 485.894Z" fill="#C3CDE0"/>
<path d="M807.994 483.149L806.256 507.716L799.232 510.226L800.94 486.094L807.994 483.149Z" fill="#F3F8FE" stroke="#C3CDE0" stroke-miterlimit="10"/>
<path d="M817.676 491.983L825.861 488.552L826.671 477.107L818.477 480.665L817.676 491.983Z" fill="url(#paint31_linear)"/>
<path d="M816.35 479.34L807.831 483.318L806.141 507.206L814.654 503.298L816.35 479.34Z" fill="#F3F8FE" stroke="#C3CDE0" stroke-miterlimit="10"/>
<defs>
<filter id="filter0_d" x="-16" y="157" width="1472" height="768" filterUnits="userSpaceOnUse" color-interpolation-filters="sRGB">
<feFlood flood-opacity="0" result="BackgroundImageFix"/>
<feColorMatrix in="SourceAlpha" type="matrix" values="0 0 0 0 0 0 0 0 0 0 0 0 0 0 0 0 0 0 127 0"/>
<feOffset dy="-14"/>
<feGaussianBlur stdDeviation="8"/>
<feColorMatrix type="matrix" values="0 0 0 0 1 0 0 0 0 0.780392 0 0 0 0 0 0 0 0 0.1 0"/>
<feBlend mode="normal" in2="BackgroundImageFix" result="effect1_dropShadow"/>
<feBlend mode="normal" in="SourceGraphic" in2="effect1_dropShadow" result="shape"/>
</filter>
<filter id="filter1_f" x="905.656" y="547.562" width="97.1562" height="64.25" filterUnits="userSpaceOnUse" color-interpolation-filters="sRGB">
<feFlood flood-opacity="0" result="BackgroundImageFix"/>
<feBlend mode="normal" in="SourceGraphic" in2="BackgroundImageFix" result="shape"/>
<feGaussianBlur stdDeviation="11" result="effect1_foregroundBlur"/>
</filter>
<filter id="filter2_f" x="1150.77" y="237.131" width="63.1014" height="51.2767" filterUnits="userSpaceOnUse" color-interpolation-filters="sRGB">
<feFlood flood-opacity="0" result="BackgroundImageFix"/>
<feBlend mode="normal" in="SourceGraphic" in2="BackgroundImageFix" result="shape"/>
<feGaussianBlur stdDeviation="11" result="effect1_foregroundBlur"/>
</filter>
<filter id="filter3_f" x="801.768" y="329.131" width="63.1014" height="51.2767" filterUnits="userSpaceOnUse" color-interpolation-filters="sRGB">
<feFlood flood-opacity="0" result="BackgroundImageFix"/>
<feBlend mode="normal" in="SourceGraphic" in2="BackgroundImageFix" result="shape"/>
<feGaussianBlur stdDeviation="11" result="effect1_foregroundBlur"/>
</filter>
<filter id="filter4_f" x="966.536" y="388.538" width="56.782" height="48.8693" filterUnits="userSpaceOnUse" color-interpolation-filters="sRGB">
<feFlood flood-opacity="0" result="BackgroundImageFix"/>
<feBlend mode="normal" in="SourceGraphic" in2="BackgroundImageFix" result="shape"/>
<feGaussianBlur stdDeviation="11" result="effect1_foregroundBlur"/>
</filter>
<filter id="filter5_f" x="956.768" y="25.1307" width="63.1014" height="51.2767" filterUnits="userSpaceOnUse" color-interpolation-filters="sRGB">
<feFlood flood-opacity="0" result="BackgroundImageFix"/>
<feBlend mode="normal" in="SourceGraphic" in2="BackgroundImageFix" result="shape"/>
<feGaussianBlur stdDeviation="11" result="effect1_foregroundBlur"/>
</filter>
<filter id="filter6_f" x="734.361" y="469.397" width="109.994" height="75.2357" filterUnits="userSpaceOnUse" color-interpolation-filters="sRGB">
<feFlood flood-opacity="0" result="BackgroundImageFix"/>
<feBlend mode="normal" in="SourceGraphic" in2="BackgroundImageFix" result="shape"/>
<feGaussianBlur stdDeviation="8" result="effect1_foregroundBlur"/>
</filter>
<linearGradient id="paint0_linear" x1="720" y1="956" x2="720" y2="187" gradientUnits="userSpaceOnUse">
<stop offset="0.208392" stop-color="white"/>
<stop offset="1" stop-color="white" stop-opacity="0"/>
</linearGradient>
<linearGradient id="paint1_linear" x1="1316.34" y1="313.801" x2="1534.7" y2="287.405" gradientUnits="userSpaceOnUse">
<stop stop-color="white"/>
<stop offset="0.776936" stop-color="#D6DEEE"/>
</linearGradient>
<linearGradient id="paint2_linear" x1="1355.92" y1="356.682" x2="1372.14" y2="531.08" gradientUnits="userSpaceOnUse">
<stop stop-color="white"/>
<stop offset="0.479293" stop-color="#D6DEED"/>
</linearGradient>
<linearGradient id="paint3_linear" x1="1484.07" y1="407.027" x2="1347.35" y2="384.004" gradientUnits="userSpaceOnUse">
<stop offset="0.401042" stop-color="#E8ECFA"/>
<stop offset="0.78125" stop-color="#D2DAEA"/>
</linearGradient>
<linearGradient id="paint4_linear" x1="1333.85" y1="411.745" x2="1168.53" y2="442.905" gradientUnits="userSpaceOnUse">
<stop stop-color="#FAFBFD"/>
<stop offset="0.510417" stop-color="#E8ECF8"/>
</linearGradient>
<linearGradient id="paint5_linear" x1="1196.42" y1="459.345" x2="1267" y2="545.767" gradientUnits="userSpaceOnUse">
<stop stop-color="#D2DAEA"/>
<stop offset="1" stop-color="#DEE6F5"/>
</linearGradient>
<linearGradient id="paint6_linear" x1="1301.97" y1="398.652" x2="1311.86" y2="672.43" gradientUnits="userSpaceOnUse">
<stop stop-color="white"/>
<stop offset="0.411403" stop-color="#D7DCEC"/>
</linearGradient>
<linearGradient id="paint7_linear" x1="855.346" y1="112.339" x2="1077.67" y2="-24.8807" gradientUnits="userSpaceOnUse">
<stop stop-color="#D2DAEA"/>
<stop offset="0.830287" stop-color="white"/>
</linearGradient>
<linearGradient id="paint8_linear" x1="941.547" y1="48.4933" x2="1030.81" y2="856.491" gradientUnits="userSpaceOnUse">
<stop stop-color="white"/>
<stop offset="0.8237" stop-color="#C9D1E9"/>
<stop offset="0.8466" stop-color="#C9D3E9"/>
</linearGradient>
<linearGradient id="paint9_linear" x1="921.317" y1="27.8959" x2="916.699" y2="395.353" gradientUnits="userSpaceOnUse">
<stop offset="0.0826805" stop-color="white"/>
<stop offset="0.683375" stop-color="#DFE5F0"/>
</linearGradient>
<linearGradient id="paint10_linear" x1="838.11" y1="319.352" x2="782.203" y2="451.335" gradientUnits="userSpaceOnUse">
<stop stop-color="white"/>
<stop offset="0.7233" stop-color="#D8DADE"/>
</linearGradient>
<linearGradient id="paint11_linear" x1="685.476" y1="167.847" x2="686.874" y2="508.307" gradientUnits="userSpaceOnUse">
<stop offset="0.710922" stop-color="white"/>
<stop offset="1" stop-color="#DFE4F0"/>
</linearGradient>
<linearGradient id="paint12_linear" x1="877.036" y1="473.869" x2="864.478" y2="380.693" gradientUnits="userSpaceOnUse">
<stop offset="0.329574" stop-color="#EAF0F9"/>
<stop offset="0.898624" stop-color="#D1DAEA"/>
</linearGradient>
<linearGradient id="paint13_linear" x1="1102.74" y1="268.03" x2="935.686" y2="301.426" gradientUnits="userSpaceOnUse">
<stop stop-color="white"/>
<stop offset="0.6682" stop-color="#D8DADE"/>
</linearGradient>
<linearGradient id="paint14_linear" x1="1050.37" y1="269.807" x2="1050.37" y2="376.622" gradientUnits="userSpaceOnUse">
<stop stop-color="#FDFEFF"/>
<stop offset="1" stop-color="#EBEEF7"/>
</linearGradient>
<linearGradient id="paint15_linear" x1="1298.67" y1="348.514" x2="1016.32" y2="316.84" gradientUnits="userSpaceOnUse">
<stop offset="0.3103" stop-color="white"/>
<stop offset="0.9591" stop-color="#E4E9F3"/>
</linearGradient>
<linearGradient id="paint16_linear" x1="923.229" y1="388.585" x2="829.995" y2="421.159" gradientUnits="userSpaceOnUse">
<stop offset="0.154213" stop-color="white"/>
<stop offset="0.513196" stop-color="#DFE5F1"/>
</linearGradient>
<linearGradient id="paint17_linear" x1="1327.87" y1="157.15" x2="1002.62" y2="304.639" gradientUnits="userSpaceOnUse">
<stop offset="0.0733" stop-color="white"/>
<stop offset="0.968919" stop-color="#D2DAEA"/>
</linearGradient>
<linearGradient id="paint18_linear" x1="1137.21" y1="386.729" x2="1137.21" y2="661.167" gradientUnits="userSpaceOnUse">
<stop stop-color="white"/>
<stop offset="1" stop-color="#EBEEF7"/>
</linearGradient>
<linearGradient id="paint19_linear" x1="1330.51" y1="458.637" x2="1089.73" y2="401.649" gradientUnits="userSpaceOnUse">
<stop offset="0.109141" stop-color="#D2DAEA"/>
<stop offset="1" stop-color="white"/>
</linearGradient>
<linearGradient id="paint20_linear" x1="908.318" y1="428.002" x2="845.387" y2="439.415" gradientUnits="userSpaceOnUse">
<stop stop-color="white"/>
<stop offset="0.7861" stop-color="#DDE2EE"/>
</linearGradient>
<linearGradient id="paint21_linear" x1="942.831" y1="437.909" x2="892.549" y2="429.64" gradientUnits="userSpaceOnUse">
<stop stop-color="white"/>
<stop offset="0.8125" stop-color="#DDE3F5"/>
</linearGradient>
<linearGradient id="paint22_linear" x1="1033.61" y1="402.934" x2="893.559" y2="429.491" gradientUnits="userSpaceOnUse">
<stop stop-color="white"/>
<stop offset="0.7233" stop-color="#D5DCE9"/>
</linearGradient>
<linearGradient id="paint23_linear" x1="974.93" y1="336.158" x2="974.93" y2="584.569" gradientUnits="userSpaceOnUse">
<stop offset="0.223958" stop-color="white"/>
<stop offset="0.891439" stop-color="#F2F4FA"/>
</linearGradient>
<linearGradient id="paint24_linear" x1="1077.48" y1="457.642" x2="1005.28" y2="445.046" gradientUnits="userSpaceOnUse">
<stop stop-color="#F9F5EA"/>
<stop offset="0.3143" stop-color="#F1EFE7"/>
<stop offset="0.7935" stop-color="#DCDDE0"/>
<stop offset="0.8717" stop-color="#D8DADE"/>
</linearGradient>
<linearGradient id="paint25_linear" x1="768.821" y1="515.858" x2="769.133" y2="480.994" gradientUnits="userSpaceOnUse">
<stop offset="0.419922" stop-color="#D7DFEE"/>
<stop offset="1" stop-color="white"/>
</linearGradient>
<linearGradient id="paint26_linear" x1="818.373" y1="462.784" x2="759.518" y2="487.238" gradientUnits="userSpaceOnUse">
<stop offset="0.212558" stop-color="#D7DFEE"/>
<stop offset="1" stop-color="white" stop-opacity="0"/>
</linearGradient>
<linearGradient id="paint27_linear" x1="795.051" y1="473.522" x2="821.385" y2="527.804" gradientUnits="userSpaceOnUse">
<stop stop-color="white" stop-opacity="0"/>
<stop offset="0.173356" stop-color="white"/>
<stop offset="0.578125" stop-color="#C3CDE0"/>
</linearGradient>
<linearGradient id="paint28_linear" x1="780.711" y1="444.533" x2="772.199" y2="489.029" gradientUnits="userSpaceOnUse">
<stop stop-color="#C3CDE0"/>
<stop offset="1" stop-color="#C3CDE0" stop-opacity="0"/>
</linearGradient>
<linearGradient id="paint29_linear" x1="747.799" y1="474.077" x2="768.84" y2="502.614" gradientUnits="userSpaceOnUse">
<stop stop-color="#F3F8FE"/>
<stop offset="1" stop-color="#EFF4FB"/>
</linearGradient>
<linearGradient id="paint30_linear" x1="792.712" y1="493.467" x2="801.039" y2="505.262" gradientUnits="userSpaceOnUse">
<stop stop-color="#E5EEF9"/>
<stop offset="1" stop-color="#EFF4FB"/>
</linearGradient>
<linearGradient id="paint31_linear" x1="810.384" y1="463.471" x2="831.424" y2="492.008" gradientUnits="userSpaceOnUse">
<stop offset="0.381298" stop-color="#D7E2F0"/>
<stop offset="0.693946" stop-color="#EFF4FB"/>
</linearGradient>
</defs>
</svg>
