<svg width="1444" height="655" viewBox="0 0 1444 655" fill="none" xmlns="http://www.w3.org/2000/svg">
<mask id="mask0" mask-type="alpha" maskUnits="userSpaceOnUse" x="0" y="0" width="1444" height="655">
<rect width="1444" height="655" fill="#C4C4C4"/>
</mask>
<g mask="url(#mask0)">
<path d="M-9.56846 396.2L-64.6279 525.6H-43.226L-32.7057 499.518H-14.5936V481.697H-25.6561L-9.45999 441.726L6.55534 481.697H-3.74799V499.518H13.7496L24.306 525.6H46.2864L-9.56846 396.2Z" fill="#3A475C" fill-opacity="0.04"/>
<path d="M45.8886 525.6L-9.1709 655H12.2311L22.7513 628.918H40.8634V611.097H29.801L45.997 571.126L62.0124 611.097H51.709V628.918H69.2066L79.763 655H101.743L45.8886 525.6Z" fill="#3A475C" fill-opacity="0.04"/>
<path d="M-9.56846 137.4L-64.6279 266.8H-43.226L-32.7057 240.718H-14.5936V222.897H-25.6561L-9.45999 182.926L6.55534 222.897H-3.74799V240.718H13.7496L24.306 266.8H46.2864L-9.56846 137.4Z" fill="#3A475C" fill-opacity="0.04"/>
<path d="M45.8886 266.8L-9.1709 396.2H12.2311L22.7513 370.118H40.8634V352.297H29.801L45.997 312.326L62.0124 352.297H51.709V370.118H69.2066L79.763 396.2H101.743L45.8886 266.8Z" fill="#3A475C" fill-opacity="0.04"/>
<path d="M101.346 396.2L46.2861 525.6H67.6881L78.2083 499.518H96.3205V481.697H85.258L101.454 441.726L117.469 481.697H107.166V499.518H124.664L135.22 525.6H157.2L101.346 396.2Z" fill="#3A475C" fill-opacity="0.04"/>
<path d="M156.803 525.6L101.743 655H123.145L133.665 628.918H151.778V611.097H140.715L156.911 571.126L172.926 611.097H162.623V628.918H180.121L190.677 655H212.657L156.803 525.6Z" fill="#3A475C" fill-opacity="0.04"/>
<path d="M45.8886 8L-9.1709 137.4H12.2311L22.7513 111.318L40.8634 111.318V93.4971L29.801 93.4971L45.997 53.5263L62.0124 93.4971H51.709V111.318H69.2066L79.763 137.4H101.743L45.8886 8Z" fill="#3A475C" fill-opacity="0.04"/>
<path d="M101.346 137.4L46.2861 266.8H67.6881L78.2083 240.718H96.3205V222.897H85.258L101.454 182.926L117.469 222.897H107.166V240.718H124.664L135.22 266.8H157.2L101.346 137.4Z" fill="#3A475C" fill-opacity="0.04"/>
<path d="M156.803 266.8L101.743 396.2H123.145L133.665 370.118H151.778V352.297H140.715L156.911 312.326L172.926 352.297H162.623V370.118H180.121L190.677 396.2H212.657L156.803 266.8Z" fill="#3A475C" fill-opacity="0.04"/>
<path d="M212.26 396.2L157.2 525.6H178.602L189.122 499.518H207.235V481.697H196.172L212.368 441.726L228.383 481.697H218.08V499.518H235.578L246.134 525.6H268.114L212.26 396.2Z" fill="#3A475C" fill-opacity="0.04"/>
<path d="M267.717 525.6L212.657 655H234.059L244.579 628.918H262.692V611.097H251.629L267.825 571.126L283.84 611.097H273.537V628.918H291.035L301.591 655H323.572L267.717 525.6Z" fill="#3A475C" fill-opacity="0.04"/>
<path d="M156.803 8L101.743 137.4H123.145L133.665 111.318L151.778 111.318V93.4971L140.715 93.4971L156.911 53.5263L172.926 93.4971H162.623V111.318H180.121L190.677 137.4H212.657L156.803 8Z" fill="#3A475C" fill-opacity="0.04"/>
<path d="M212.26 137.4L157.2 266.8H178.602L189.122 240.718H207.235V222.897H196.172L212.368 182.926L228.383 222.897H218.08V240.718H235.578L246.134 266.8H268.114L212.26 137.4Z" fill="#3A475C" fill-opacity="0.04"/>
<path d="M267.717 266.8L212.657 396.2H234.059L244.579 370.118H262.692V352.297H251.629L267.825 312.326L283.84 352.297H273.537V370.118H291.035L301.591 396.2H323.572L267.717 266.8Z" fill="#3A475C" fill-opacity="0.04"/>
<path d="M323.174 396.2L268.114 525.6H289.516L300.036 499.518H318.149V481.697H307.086L323.282 441.726L339.298 481.697H328.994V499.518H346.492L357.048 525.6H379.029L323.174 396.2Z" fill="#3A475C" fill-opacity="0.04"/>
<path d="M378.632 525.6L323.572 655H344.974L355.494 628.918H373.607V611.097H362.544L378.74 571.126L394.756 611.097H384.452V628.918H401.95L412.506 655H434.487L378.632 525.6Z" fill="#3A475C" fill-opacity="0.04"/>
<path d="M267.717 8L212.657 137.4H234.059L244.579 111.318L262.692 111.318V93.4971L251.629 93.4971L267.825 53.5263L283.84 93.4971H273.537V111.318H291.035L301.591 137.4H323.572L267.717 8Z" fill="#3A475C" fill-opacity="0.04"/>
<path d="M323.174 137.4L268.114 266.8H289.516L300.036 240.718H318.149V222.897H307.086L323.282 182.926L339.298 222.897H328.994V240.718H346.492L357.048 266.8H379.029L323.174 137.4Z" fill="#3A475C" fill-opacity="0.04"/>
<path d="M378.632 266.8L323.572 396.2H344.974L355.494 370.118H373.607V352.297H362.544L378.74 312.326L394.756 352.297H384.452V370.118H401.95L412.506 396.2H434.487L378.632 266.8Z" fill="#3A475C" fill-opacity="0.04"/>
<path d="M434.088 396.2L379.028 525.6H400.43L410.951 499.518H429.063V481.697H418L434.196 441.726L450.212 481.697H439.908V499.518H457.406L467.962 525.6H489.943L434.088 396.2Z" fill="#3A475C" fill-opacity="0.04"/>
<path d="M489.546 525.6L434.486 655H455.888L466.409 628.918H484.521V611.097H473.458L489.654 571.126L505.67 611.097H495.366V628.918H512.864L523.42 655H545.401L489.546 525.6Z" fill="#3A475C" fill-opacity="0.04"/>
<path d="M378.632 8L323.572 137.4H344.974L355.494 111.318L373.607 111.318V93.4971L362.544 93.4971L378.74 53.5263L394.756 93.4971H384.452V111.318H401.95L412.506 137.4H434.487L378.632 8Z" fill="#3A475C" fill-opacity="0.04"/>
<path d="M434.088 137.4L379.028 266.8H400.43L410.951 240.718H429.063V222.897H418L434.196 182.926L450.212 222.897H439.908V240.718H457.406L467.962 266.8H489.943L434.088 137.4Z" fill="#3A475C" fill-opacity="0.04"/>
<path d="M489.546 266.8L434.486 396.2H455.888L466.409 370.118H484.521V352.297H473.458L489.654 312.326L505.67 352.297H495.366V370.118H512.864L523.42 396.2H545.401L489.546 266.8Z" fill="#3A475C" fill-opacity="0.04"/>
<path d="M545.003 396.2L489.943 525.6H511.345L521.866 499.518H539.978V481.697H528.915L545.111 441.726L561.127 481.697H550.823V499.518H568.321L578.877 525.6H600.858L545.003 396.2Z" fill="#3A475C" fill-opacity="0.04"/>
<path d="M600.46 525.6L545.4 655H566.802L577.323 628.918H595.435V611.097H584.372L600.568 571.126L616.584 611.097H606.28V628.918H623.778L634.334 655H656.315L600.46 525.6Z" fill="#3A475C" fill-opacity="0.04"/>
<path d="M489.546 8L434.486 137.4H455.888L466.409 111.318L484.521 111.318V93.4971L473.458 93.4971L489.654 53.5263L505.67 93.4971H495.366V111.318H512.864L523.42 137.4H545.401L489.546 8Z" fill="#3A475C" fill-opacity="0.04"/>
<path d="M545.003 137.4L489.943 266.8H511.345L521.866 240.718H539.978V222.897H528.915L545.111 182.926L561.127 222.897H550.823V240.718H568.321L578.877 266.8H600.858L545.003 137.4Z" fill="#3A475C" fill-opacity="0.04"/>
<path d="M600.46 266.8L545.4 396.2H566.802L577.323 370.118H595.435V352.297H584.372L600.568 312.326L616.584 352.297H606.28V370.118H623.778L634.334 396.2H656.315L600.46 266.8Z" fill="#3A475C" fill-opacity="0.04"/>
<path d="M655.917 396.2L600.857 525.6H622.259L632.78 499.518H650.892V481.697H639.829L656.025 441.726L672.041 481.697H661.737V499.518H679.235L689.791 525.6H711.772L655.917 396.2Z" fill="#3A475C" fill-opacity="0.04"/>
<path d="M711.374 525.6L656.314 655H677.716L688.237 628.918H706.349V611.097H695.286L711.482 571.126L727.498 611.097H717.194V628.918H734.692L745.248 655H767.229L711.374 525.6Z" fill="#3A475C" fill-opacity="0.04"/>
<path d="M600.46 8L545.4 137.4H566.802L577.323 111.318L595.435 111.318V93.4971L584.372 93.4971L600.568 53.5263L616.584 93.4971H606.28V111.318H623.778L634.334 137.4H656.315L600.46 8Z" fill="#3A475C" fill-opacity="0.04"/>
<path d="M655.917 137.4L600.857 266.8H622.259L632.78 240.718H650.892V222.897H639.829L656.025 182.926L672.041 222.897H661.737V240.718H679.235L689.791 266.8H711.772L655.917 137.4Z" fill="#3A475C" fill-opacity="0.04"/>
<path d="M711.374 266.8L656.314 396.2H677.716L688.237 370.118H706.349V352.297H695.286L711.482 312.326L727.498 352.297H717.194V370.118H734.692L745.248 396.2H767.229L711.374 266.8Z" fill="#3A475C" fill-opacity="0.04"/>
<path d="M766.831 396.2L711.771 525.6H733.173L743.694 499.518H761.806V481.697H750.743L766.939 441.726L782.955 481.697H772.651V499.518H790.149L800.705 525.6H822.686L766.831 396.2Z" fill="#3A475C" fill-opacity="0.04"/>
<path d="M822.288 525.6L767.229 655H788.63L799.151 628.918H817.263V611.097H806.2L822.396 571.126L838.412 611.097H828.108V628.918H845.606L856.162 655H878.143L822.288 525.6Z" fill="#3A475C" fill-opacity="0.04"/>
<path d="M711.374 8L656.314 137.4H677.716L688.237 111.318L706.349 111.318V93.4971L695.286 93.4971L711.482 53.5263L727.498 93.4971H717.194V111.318H734.692L745.248 137.4H767.229L711.374 8Z" fill="#3A475C" fill-opacity="0.04"/>
<path d="M766.831 137.4L711.771 266.8H733.173L743.694 240.718H761.806V222.897H750.743L766.939 182.926L782.955 222.897H772.651V240.718H790.149L800.705 266.8H822.686L766.831 137.4Z" fill="#3A475C" fill-opacity="0.04"/>
<path d="M822.288 266.8L767.229 396.2H788.63L799.151 370.118H817.263V352.297H806.2L822.396 312.326L838.412 352.297H828.108V370.118H845.606L856.162 396.2H878.143L822.288 266.8Z" fill="#3A475C" fill-opacity="0.04"/>
<path d="M877.745 396.2L822.686 525.6H844.088L854.608 499.518H872.72V481.697H861.657L877.853 441.726L893.869 481.697H883.565V499.518H901.063L911.619 525.6H933.6L877.745 396.2Z" fill="#3A475C" fill-opacity="0.04"/>
<path d="M933.203 525.6L878.144 655H899.546L910.066 628.918H928.178V611.097H917.115L933.311 571.126L949.327 611.097H939.023V628.918H956.521L967.077 655H989.058L933.203 525.6Z" fill="#3A475C" fill-opacity="0.04"/>
<path d="M822.288 8L767.229 137.4H788.63L799.151 111.318L817.263 111.318V93.4971L806.2 93.4971L822.396 53.5263L838.412 93.4971H828.108V111.318H845.606L856.162 137.4H878.143L822.288 8Z" fill="#3A475C" fill-opacity="0.04"/>
<path d="M877.745 137.4L822.686 266.8H844.088L854.608 240.718H872.72V222.897H861.657L877.853 182.926L893.869 222.897H883.565V240.718H901.063L911.619 266.8H933.6L877.745 137.4Z" fill="#3A475C" fill-opacity="0.04"/>
<path d="M933.203 266.8L878.144 396.2H899.546L910.066 370.118H928.178V352.297H917.115L933.311 312.326L949.327 352.297H939.023V370.118H956.521L967.077 396.2H989.058L933.203 266.8Z" fill="#3A475C" fill-opacity="0.04"/>
<path d="M988.66 396.2L933.601 525.6H955.003L965.523 499.518H983.635V481.697H972.572L988.769 441.726L1004.78 481.697H994.481V499.518H1011.98L1022.53 525.6H1044.51L988.66 396.2Z" fill="#3A475C" fill-opacity="0.04"/>
<path d="M1044.12 525.6L989.057 655H1010.46L1020.98 628.918H1039.09V611.097H1028.03L1044.22 571.126L1060.24 611.097H1049.94V628.918H1067.43L1077.99 655H1099.97L1044.12 525.6Z" fill="#3A475C" fill-opacity="0.04"/>
<path d="M933.203 8L878.144 137.4H899.546L910.066 111.318L928.178 111.318V93.4971L917.115 93.4971L933.311 53.5263L949.327 93.4971H939.023V111.318H956.521L967.077 137.4H989.058L933.203 8Z" fill="#3A475C" fill-opacity="0.04"/>
<path d="M988.66 137.4L933.601 266.8H955.003L965.523 240.718H983.635V222.897H972.572L988.769 182.926L1004.78 222.897H994.481V240.718H1011.98L1022.53 266.8H1044.51L988.66 137.4Z" fill="#3A475C" fill-opacity="0.04"/>
<path d="M1044.12 266.8L989.057 396.2H1010.46L1020.98 370.118H1039.09V352.297H1028.03L1044.22 312.326L1060.24 352.297H1049.94V370.118H1067.43L1077.99 396.2H1099.97L1044.12 266.8Z" fill="#3A475C" fill-opacity="0.04"/>
<path d="M1099.57 396.2L1044.51 525.6H1065.92L1076.44 499.518H1094.55V481.697H1083.49L1099.68 441.726L1115.7 481.697H1105.39V499.518H1122.89L1133.45 525.6H1155.43L1099.57 396.2Z" fill="#3A475C" fill-opacity="0.04"/>
<path d="M1155.03 525.6L1099.97 655H1121.37L1131.89 628.918H1150.01V611.097H1138.94L1155.14 571.126L1171.15 611.097H1160.85V628.918H1178.35L1188.91 655H1210.89L1155.03 525.6Z" fill="#3A475C" fill-opacity="0.04"/>
<path d="M1044.12 8L989.057 137.4H1010.46L1020.98 111.318L1039.09 111.318V93.4971L1028.03 93.4971L1044.22 53.5263L1060.24 93.4971H1049.94V111.318H1067.43L1077.99 137.4H1099.97L1044.12 8Z" fill="#3A475C" fill-opacity="0.04"/>
<path d="M1099.57 137.4L1044.51 266.8H1065.92L1076.44 240.718H1094.55V222.897H1083.49L1099.68 182.926L1115.7 222.897H1105.39V240.718H1122.89L1133.45 266.8H1155.43L1099.57 137.4Z" fill="#3A475C" fill-opacity="0.04"/>
<path d="M1155.03 266.8L1099.97 396.2H1121.37L1131.89 370.118H1150.01V352.297H1138.94L1155.14 312.326L1171.15 352.297H1160.85V370.118H1178.35L1188.91 396.2H1210.89L1155.03 266.8Z" fill="#3A475C" fill-opacity="0.04"/>
<path d="M1210.49 396.2L1155.43 525.6H1176.83L1187.35 499.518H1205.46V481.697H1194.4L1210.6 441.726L1226.61 481.697H1216.31V499.518H1233.81L1244.36 525.6H1266.34L1210.49 396.2Z" fill="#3A475C" fill-opacity="0.04"/>
<path d="M1265.95 525.6L1210.89 655H1232.29L1242.81 628.918H1260.92V611.097H1249.86L1266.05 571.126L1282.07 611.097H1271.77V628.918H1289.26L1299.82 655H1321.8L1265.95 525.6Z" fill="#3A475C" fill-opacity="0.04"/>
<path d="M1155.03 8L1099.97 137.4H1121.37L1131.89 111.318L1150.01 111.318V93.4971L1138.94 93.4971L1155.14 53.5263L1171.15 93.4971H1160.85V111.318H1178.35L1188.91 137.4H1210.89L1155.03 8Z" fill="#3A475C" fill-opacity="0.04"/>
<path d="M1210.49 137.4L1155.43 266.8H1176.83L1187.35 240.718H1205.46V222.897H1194.4L1210.6 182.926L1226.61 222.897H1216.31V240.718H1233.81L1244.36 266.8H1266.34L1210.49 137.4Z" fill="#3A475C" fill-opacity="0.04"/>
<path d="M1265.95 266.8L1210.89 396.2H1232.29L1242.81 370.118H1260.92V352.297H1249.86L1266.05 312.326L1282.07 352.297H1271.77V370.118H1289.26L1299.82 396.2H1321.8L1265.95 266.8Z" fill="#3A475C" fill-opacity="0.04"/>
<path d="M1321.4 396.2L1266.34 525.6H1287.74L1298.26 499.518H1316.38V481.697H1305.31L1321.51 441.726L1337.53 481.697H1327.22V499.518H1344.72L1355.28 525.6H1377.26L1321.4 396.2Z" fill="#3A475C" fill-opacity="0.04"/>
<path d="M1376.86 525.6L1321.8 655H1343.2L1353.72 628.918H1371.83V611.097H1360.77L1376.97 571.126L1392.98 611.097H1382.68V628.918H1400.18L1410.73 655H1432.71L1376.86 525.6Z" fill="#3A475C" fill-opacity="0.04"/>
<path d="M1265.95 8L1210.89 137.4H1232.29L1242.81 111.318L1260.92 111.318V93.4971L1249.86 93.4971L1266.05 53.5263L1282.07 93.4971H1271.77V111.318H1289.26L1299.82 137.4H1321.8L1265.95 8Z" fill="#3A475C" fill-opacity="0.04"/>
<path d="M1321.4 137.4L1266.34 266.8H1287.74L1298.26 240.718H1316.38V222.897H1305.31L1321.51 182.926L1337.53 222.897H1327.22V240.718H1344.72L1355.28 266.8H1377.26L1321.4 137.4Z" fill="#3A475C" fill-opacity="0.04"/>
<path d="M1376.86 266.8L1321.8 396.2H1343.2L1353.72 370.118H1371.83V352.297H1360.77L1376.97 312.326L1392.98 352.297H1382.68V370.118H1400.18L1410.73 396.2H1432.71L1376.86 266.8Z" fill="#3A475C" fill-opacity="0.04"/>
<path d="M1432.32 396.2L1377.26 525.6H1398.66L1409.18 499.518H1427.29V481.697H1416.23L1432.42 441.726L1448.44 481.697H1438.14V499.518H1455.63L1466.19 525.6H1488.17L1432.32 396.2Z" fill="#3A475C" fill-opacity="0.04"/>
<path d="M1487.77 525.6L1432.71 655H1454.12L1464.64 628.918H1482.75V611.097H1471.69L1487.88 571.126L1503.9 611.097H1493.59V628.918H1511.09L1521.65 655H1543.63L1487.77 525.6Z" fill="#3A475C" fill-opacity="0.04"/>
<path d="M1376.86 8L1321.8 137.4H1343.2L1353.72 111.318L1371.83 111.318V93.4971L1360.77 93.4971L1376.97 53.5263L1392.98 93.4971H1382.68V111.318H1400.18L1410.73 137.4H1432.71L1376.86 8Z" fill="#3A475C" fill-opacity="0.04"/>
<path d="M1432.32 137.4L1377.26 266.8H1398.66L1409.18 240.718H1427.29V222.897H1416.23L1432.42 182.926L1448.44 222.897H1438.14V240.718H1455.63L1466.19 266.8H1488.17L1432.32 137.4Z" fill="#3A475C" fill-opacity="0.04"/>
<path d="M1487.77 266.8L1432.71 396.2H1454.12L1464.64 370.118H1482.75V352.297H1471.69L1487.88 312.326L1503.9 352.297H1493.59V370.118H1511.09L1521.65 396.2H1543.63L1487.77 266.8Z" fill="#3A475C" fill-opacity="0.04"/>
</g>
</svg>
