<svg width="201" height="156" viewBox="0 0 201 156" fill="none" xmlns="http://www.w3.org/2000/svg">
<g clip-path="url(#clip0)">
<path d="M148.917 89.1221L109 39.2814C107.188 40.9376 104.955 42.0643 102.545 42.5383C95.0301 44.0171 87.6912 38.8896 86.1531 31.0856C85.0657 25.5691 87.1706 20.1949 91.1509 16.9943L77.5404 0L0 66.2166L71.3767 155.339L148.917 89.1221Z" fill="#F2F2F2"/>
<path d="M17.0205 155.793H201" stroke="#3F3D56" stroke-width="2" stroke-miterlimit="10"/>
<path d="M35.3657 22.4967C37.0541 22.4967 38.4228 21.1291 38.4228 19.4421C38.4228 17.7551 37.0541 16.3875 35.3657 16.3875C33.6773 16.3875 32.3086 17.7551 32.3086 19.4421C32.3086 21.1291 33.6773 22.4967 35.3657 22.4967Z" stroke="#3F3D56" stroke-width="2" stroke-miterlimit="10"/>
<path d="M99.3186 40.1704C105.534 40.1704 110.572 35.1362 110.572 28.9262C110.572 22.7163 105.534 17.6821 99.3186 17.6821C93.1037 17.6821 88.0654 22.7163 88.0654 28.9262C88.0654 35.1362 93.1037 40.1704 99.3186 40.1704Z" fill="#F2F2F2"/>
<path d="M32.5035 22.6434H82.3551C84.7607 22.6433 87.0947 23.4611 88.9735 24.9623C90.8523 26.4634 92.1641 28.5586 92.6931 30.9034L117.882 142.541C118.157 143.758 118.162 145.021 117.896 146.241C117.631 147.461 117.102 148.608 116.346 149.601C115.59 150.595 114.625 151.412 113.52 151.994C112.415 152.576 111.196 152.909 109.948 152.97L58.7005 155.493C55.9564 155.628 53.2568 154.761 51.1054 153.054C48.9541 151.346 47.4981 148.915 47.0091 146.213L32.7203 67.2847L31.6573 67.5882L28.9233 52.6283L30.0175 52.3549L26.029 30.3231C25.8582 29.3794 25.8978 28.4097 26.145 27.4831C26.3923 26.5565 26.8411 25.6958 27.4594 24.9624C28.0777 24.2289 28.8504 23.6408 29.7223 23.24C30.5942 22.8391 31.5438 22.6354 32.5035 22.6434Z" fill="#3F3D56"/>
<path d="M75.7923 25.05H81.6115C83.2827 25.05 84.9036 25.6211 86.2051 26.6684C87.5067 27.7158 88.4106 29.1764 88.7668 30.8078L112.945 141.534C113.084 142.172 113.084 142.832 112.944 143.469C112.805 144.107 112.529 144.706 112.137 145.228C111.744 145.749 111.243 146.179 110.669 146.49C110.094 146.8 109.46 146.983 108.808 147.025L57.7259 150.37C56.2848 150.465 54.8594 150.026 53.7217 149.137C52.5839 148.248 51.8135 146.972 51.5575 145.552L30.9263 31.1053C30.7927 30.3645 30.8235 29.6035 31.0165 28.876C31.2094 28.1484 31.5598 27.472 32.043 26.8946C32.5261 26.3171 33.1302 25.8526 33.8126 25.5339C34.495 25.2152 35.2391 25.05 35.9924 25.05H41.5128C42.0471 25.05 42.5665 25.226 42.9906 25.5507C43.4146 25.8755 43.7197 26.3308 43.8586 26.8464C43.9813 27.3015 44.2506 27.7035 44.625 27.9902C44.9994 28.2769 45.4579 28.4322 45.9296 28.4322H72.137C73.0606 28.4322 73.9502 28.0839 74.6279 27.4568C75.3056 26.8297 75.7215 25.9702 75.7923 25.05Z" fill="#CCD2DC"/>
<path opacity="0.1" d="M67.1348 120.859C67.1348 124.136 68.4378 127.28 70.7573 129.597C73.0768 131.915 76.2227 133.217 79.503 133.217C82.7832 133.217 85.9291 131.915 88.2486 129.597C90.5681 127.28 91.8712 124.136 91.8712 120.859C91.8712 120.704 91.8686 120.55 91.8621 120.397C91.741 117.161 90.3542 114.103 87.9997 111.879C85.6453 109.654 82.5112 108.442 79.2716 108.503C76.032 108.563 72.9455 109.891 70.6758 112.202C68.4062 114.513 67.1347 117.621 67.1348 120.859H67.1348Z" fill="black"/>
<path opacity="0.1" d="M68.3066 125.672C68.3066 125.827 68.3092 125.98 68.3158 126.134C69.5155 128.673 71.5449 130.728 74.0698 131.961C76.5947 133.194 79.4645 133.532 82.2068 132.918C84.9491 132.304 87.4004 130.775 89.157 128.583C90.9137 126.391 91.871 123.667 91.8713 120.859C91.8713 120.704 91.8687 120.55 91.8622 120.397C90.6624 117.858 88.6331 115.802 86.1082 114.569C83.5833 113.336 80.7135 112.999 77.9712 113.613C75.2289 114.227 72.7776 115.756 71.0209 117.948C69.2643 120.14 68.307 122.864 68.3066 125.672H68.3066Z" fill="black"/>
<path d="M72.7163 93.4833C81.9441 91.7518 87.8559 81.9875 85.9208 71.6741C83.9856 61.3607 74.9362 54.4036 65.7084 56.1351C56.4806 57.8665 50.5688 67.6308 52.5039 77.9443C54.4391 88.2577 63.4884 95.2147 72.7163 93.4833Z" fill="#0859F5"/>
<path d="M63.4828 73.5685L61.6286 73.8266C61.5173 73.8421 61.4283 73.8407 61.4147 73.6864C61.2936 72.3274 61.2624 70.9751 61.6448 69.6591C62.1034 68.0188 63.0922 66.6133 64.4361 65.6891C66.6086 64.1514 69.2893 63.6337 71.8641 64.2552C73.6971 64.6104 75.3003 65.819 76.234 67.5496C76.8042 68.6401 77.1215 69.8556 77.1596 71.0941C77.2418 72.6137 76.7882 74.0991 75.8899 75.2609C75.2084 76.1941 74.4653 77.081 73.7395 77.9654C73.2025 78.6241 72.7019 79.2966 72.5328 80.1881C72.4198 80.8437 72.3987 81.5149 72.4716 82.1805C72.5045 82.4167 72.5021 82.6546 72.5272 82.8918C72.5436 82.9392 72.5362 82.9919 72.5082 83.0317C72.4803 83.0726 72.436 83.0946 72.3882 83.0917L69.1069 83.5484C69.067 83.5666 69.0198 83.5605 68.9843 83.5327C68.948 83.5061 68.9269 83.4605 68.9292 83.4137C68.8095 82.2626 68.6489 81.1087 68.7812 79.9531C68.9375 78.7425 69.4144 77.6097 70.1558 76.6883C70.7983 75.8587 71.4173 75.0229 72.0065 74.1574C72.5088 73.4403 72.7972 72.5766 72.8365 71.6747C72.8989 70.1445 72.2277 69.1156 70.8147 68.7855C69.449 68.4329 68.019 68.6899 66.8552 69.496C66.0152 70.0701 65.6471 70.9639 65.548 71.9966L65.5491 71.9975C65.5186 72.3385 65.5124 72.6836 65.5276 73.0267C65.5503 73.1049 65.5334 73.1896 65.4848 73.2513C65.436 73.3119 65.3603 73.3425 65.2846 73.3309C64.6776 73.4016 64.0772 73.4989 63.473 73.583L63.4828 73.5685Z" fill="white"/>
<path d="M71.1544 85.8963C71.7399 85.798 72.3424 85.9644 72.8164 86.3566C73.2904 86.7478 73.5934 87.3297 73.6528 87.9623C73.8141 89.2555 72.9641 90.4243 71.7549 90.5726C70.5457 90.7208 69.4344 89.7921 69.2732 88.499C69.1779 87.8777 69.3261 87.2478 69.6819 86.7549C70.0378 86.2629 70.57 85.9524 71.1544 85.8963Z" fill="white"/>
</g>
<defs>
<clipPath id="clip0">
<rect width="201" height="156" fill="white"/>
</clipPath>
</defs>
</svg>
