<svg width="161" height="169" viewBox="0 0 161 169" fill="none" xmlns="http://www.w3.org/2000/svg">
<g clip-path="url(#clip0)">
<path d="M80.5 154.704C117.077 154.704 146.729 125.001 146.729 88.3611C146.729 51.7209 117.077 22.0182 80.5 22.0182C43.923 22.0182 14.2715 51.7209 14.2715 88.3611C14.2715 125.001 43.923 154.704 80.5 154.704Z" stroke="#0859F5" stroke-width="2" stroke-miterlimit="10" stroke-dasharray="12 12"/>
<path d="M80.4997 168.777C124.835 168.777 160.777 132.773 160.777 88.3611C160.777 43.9488 124.835 7.94556 80.4997 7.94556C36.1639 7.94556 0.222656 43.9488 0.222656 88.3611C0.222656 132.773 36.1639 168.777 80.4997 168.777Z" stroke="#0859F5" stroke-width="2" stroke-miterlimit="10" stroke-dasharray="12 12"/>
<path d="M134.228 113.98C134.229 109.462 132.547 105.107 129.512 101.765C126.476 98.4242 122.305 96.338 117.814 95.915C113.324 95.492 108.838 96.7627 105.234 99.4784C101.629 102.194 99.1661 106.159 98.3264 110.598L42.6699 109.086L43.2809 118.664C43.2809 118.664 35.3446 137.008 77.0552 141.895V160.436H125.275V129.61C127.998 128.013 130.257 125.73 131.827 122.988C133.398 120.246 134.226 117.141 134.228 113.98Z" fill="url(#paint0_linear)"/>
<path d="M45.1918 119.066C45.1918 119.066 37.5922 136.633 77.5367 141.319V159.082H123.716V112.041L44.5986 109.892L45.1918 119.066Z" fill="#BE7C5E"/>
<path d="M68.2715 45.7609C67.0674 47.6643 65.1603 49.0129 62.9667 49.5122C60.7731 50.0116 58.4715 49.621 56.5645 48.4258L31.77 32.059C29.8699 30.8528 28.5236 28.9424 28.0252 26.745C27.5267 24.5477 27.9166 22.242 29.1097 20.3317C30.3138 18.4309 32.2192 17.0839 34.4106 16.5847C36.602 16.0855 38.9016 16.4745 40.8079 17.6669L65.6023 34.0337C67.5039 35.2384 68.852 37.1482 69.3522 39.3457C69.8523 41.5431 69.4638 43.8496 68.2715 45.7609Z" fill="url(#paint1_linear)"/>
<path d="M66.8971 44.8674C65.7778 46.6366 64.0051 47.8902 61.9661 48.3544C59.9272 48.8185 57.7877 48.4555 56.0151 47.3446L32.96 32.1193C31.1938 30.9981 29.9424 29.2223 29.479 27.1799C29.0157 25.1374 29.378 22.9942 30.487 21.2185C31.6063 19.4493 33.379 18.1957 35.4179 17.7316C37.4569 17.2674 39.5964 17.6304 41.369 18.7413L64.4196 33.9577C66.189 35.0782 67.4431 36.8554 67.9074 38.9C68.3717 40.9447 68.0084 43.0904 66.8971 44.8674Z" fill="#BE7C5E"/>
<path d="M114.95 131.951C124.528 131.951 132.292 124.173 132.292 114.579C132.292 104.984 124.528 97.2067 114.95 97.2067C105.373 97.2067 97.6084 104.984 97.6084 114.579C97.6084 124.173 105.373 131.951 114.95 131.951Z" fill="#BE7C5E"/>
<path d="M111.828 0H45.3947C43.8861 0 42.6631 1.22511 42.6631 2.73636V127.26C42.6631 128.771 43.8861 129.996 45.3947 129.996H111.828C113.337 129.996 114.56 128.771 114.56 127.26V2.73636C114.56 1.22511 113.337 0 111.828 0Z" fill="url(#paint2_linear)"/>
<path d="M110.544 1.758H46.6744C44.9946 1.758 43.6328 3.12212 43.6328 4.80485V125.196C43.6328 126.879 44.9946 128.243 46.6744 128.243H110.544C112.224 128.243 113.585 126.879 113.585 125.196V4.80485C113.585 3.12212 112.224 1.758 110.544 1.758Z" fill="white"/>
<path d="M96.183 4.92993C95.9806 6.27131 95.3057 7.49584 94.2803 8.38205C93.255 9.26825 91.9468 9.75759 90.5926 9.76157H66.4337C65.0798 9.75706 63.7722 9.26748 62.7473 8.38132C61.7224 7.49517 61.0478 6.27093 60.8455 4.92993H48.0458C47.6968 4.92964 47.3512 4.99824 47.0287 5.1318C46.7063 5.26537 46.4132 5.46129 46.1664 5.70836C45.9195 5.95543 45.7237 6.24881 45.5901 6.57173C45.4565 6.89466 45.3877 7.24079 45.3877 7.59035V122.406C45.3874 122.755 45.4559 123.102 45.5892 123.425C45.7226 123.748 45.9181 124.041 46.1648 124.289C46.4114 124.536 46.7043 124.732 47.0267 124.866C47.349 125 47.6946 125.069 48.0435 125.069H109.174C109.523 125.069 109.869 125 110.192 124.867C110.514 124.733 110.807 124.537 111.054 124.29C111.301 124.043 111.497 123.75 111.63 123.427C111.764 123.104 111.833 122.758 111.833 122.408V7.59258C111.833 7.24302 111.764 6.89683 111.631 6.5738C111.498 6.25076 111.302 5.95722 111.055 5.70994C110.809 5.46266 110.516 5.2665 110.194 5.13266C109.871 4.99882 109.526 4.92993 109.177 4.92993H96.183Z" fill="#CCD2DC"/>
<path d="M86.0574 6.4422H71.36C71.1137 6.4422 70.9141 6.64222 70.9141 6.88895V6.9716C70.9141 7.21834 71.1137 7.41835 71.36 7.41835H86.0574C86.3037 7.41835 86.5034 7.21834 86.5034 6.9716V6.88895C86.5034 6.64222 86.3037 6.4422 86.0574 6.4422Z" fill="#DBDBDB"/>
<path d="M89.8147 7.41836C90.1374 7.41836 90.3989 7.15633 90.3989 6.83311C90.3989 6.50989 90.1374 6.24786 89.8147 6.24786C89.492 6.24786 89.2305 6.50989 89.2305 6.83311C89.2305 7.15633 89.492 7.41836 89.8147 7.41836Z" fill="#DBDBDB"/>
<path d="M126.16 117.643C121.127 118.809 117.673 115.521 116.509 110.482L104.944 67.4664C104.392 65.0362 104.821 62.4857 106.139 60.3717C107.458 58.2578 109.557 56.7522 111.98 56.1837C114.406 55.63 116.952 56.0603 119.062 57.3808C121.173 58.7012 122.676 60.8044 123.243 63.2312L132.68 107.357C133.844 112.399 131.19 116.477 126.16 117.643Z" fill="url(#paint3_linear)"/>
<path d="M121.946 64.2842C120.965 60.0303 116.727 57.3786 112.48 58.3615C108.234 59.3443 105.586 63.5896 106.568 67.8435L117.201 113.947C118.183 118.201 122.421 120.852 126.667 119.869C130.914 118.887 133.561 114.641 132.58 110.387L121.946 64.2842Z" fill="#BE7C5E"/>
<path d="M132.218 153.27H66.2129V168.683H132.218V153.27Z" fill="url(#paint4_linear)"/>
<path d="M130.435 155.057H67.9971V167.119H130.435V155.057Z" fill="#4D8AF0"/>
<path d="M58.6468 91.906C57.4573 93.7868 55.5731 95.1194 53.4058 95.6129C51.2385 96.1064 48.9644 95.7205 47.0802 94.5396L30.4517 83.7617C28.5742 82.5702 27.2439 80.6827 26.7512 78.5117C26.2586 76.3407 26.6438 74.0626 27.8226 72.1752C29.0121 70.2945 30.8963 68.9618 33.0636 68.4683C35.2309 67.9749 37.505 68.3607 39.3892 69.5416L56.0177 80.3195C57.8952 81.511 59.2256 83.3985 59.7182 85.5695C60.2108 87.7405 59.8256 90.0186 58.6468 91.906Z" fill="url(#paint5_linear)"/>
<path d="M54.4728 114.72C53.2728 116.618 51.3715 117.962 49.1846 118.461C46.9976 118.959 44.7028 118.569 42.8015 117.378L32.5015 109.854C30.6068 108.652 29.2641 106.748 28.7669 104.557C28.2697 102.366 28.6583 100.067 29.8479 98.1629C31.0479 96.2649 32.9492 94.9199 35.1361 94.4219C37.3231 93.9238 39.6179 94.3131 41.5192 95.5047L51.8192 103.03C53.7133 104.232 55.0555 106.136 55.5527 108.327C56.0499 110.517 55.6617 112.815 54.4728 114.72Z" fill="url(#paint6_linear)"/>
<g opacity="0.5">
<path opacity="0.5" d="M78.6086 85.0908C89.6852 85.0908 98.6645 76.096 98.6645 65.0003C98.6645 53.9047 89.6852 44.9099 78.6086 44.9099C67.5321 44.9099 58.5527 53.9047 58.5527 65.0003C58.5527 76.096 67.5321 85.0908 78.6086 85.0908Z" fill="url(#paint7_linear)"/>
</g>
<path d="M78.6087 83.9092C89.0337 83.9092 97.4849 75.4434 97.4849 65.0004C97.4849 54.5573 89.0337 46.0916 78.6087 46.0916C68.1836 46.0916 59.7324 54.5573 59.7324 65.0004C59.7324 75.4434 68.1836 83.9092 78.6087 83.9092Z" fill="#0859F5"/>
<path d="M70.416 62.4762L77.4938 68.9764L87.5217 54.2045L91.0628 57.1598L77.4938 74.887L67.4658 63.6601L70.416 62.4762Z" fill="white"/>
<path d="M53.6408 114.159C52.5216 115.928 50.7489 117.182 48.7099 117.646C46.6709 118.11 44.5315 117.747 42.7588 116.636L33.1524 109.631C31.3862 108.51 30.1348 106.734 29.6714 104.692C29.208 102.649 29.5704 100.506 30.6794 98.7302C31.7986 96.961 33.5714 95.7074 35.6103 95.2432C37.6493 94.7791 39.7887 95.1421 41.5614 96.2529L51.1656 103.271C52.9285 104.392 54.1778 106.165 54.6414 108.205C55.105 110.244 54.7454 112.384 53.6408 114.159Z" fill="#BE7C5E"/>
<path d="M57.7322 91.3141C56.6129 93.0833 54.8402 94.3369 52.8013 94.8011C50.7623 95.2652 48.6228 94.9022 46.8502 93.7914L31.2051 83.6501C29.4389 82.5289 28.1875 80.7531 27.7241 78.7106C27.2608 76.6681 27.6232 74.525 28.7321 72.7493C29.8514 70.9801 31.6241 69.7265 33.663 69.2623C35.702 68.7982 37.8415 69.1612 39.6141 70.272L55.2592 80.4133C57.0254 81.5345 58.2768 83.3103 58.7402 85.3528C59.2035 87.3953 58.8411 89.5384 57.7322 91.3141Z" fill="#BE7C5E"/>
<path d="M62.9466 69.1998C61.7512 71.0888 59.8582 72.4272 57.681 72.9228C55.5038 73.4183 53.2193 73.0307 51.3265 71.8446L30.2538 58.1002C28.368 56.9028 27.0319 55.0065 26.5372 52.8256C26.0425 50.6446 26.4295 48.3562 27.6135 46.4601C28.8089 44.5711 30.7019 43.2327 32.8791 42.7371C35.0563 42.2416 37.3408 42.6292 39.2337 43.8153L60.3064 57.5597C62.1921 58.7571 63.5282 60.6533 64.0229 62.8343C64.5176 65.0153 64.1307 67.3037 62.9466 69.1998Z" fill="url(#paint8_linear)"/>
<path d="M61.827 68.485C60.7078 70.2542 58.935 71.5078 56.8961 71.972C54.8571 72.4362 52.7177 72.0732 50.945 70.9623L31.208 58.0891C29.4419 56.9679 28.1904 55.1921 27.7271 53.1496C27.2637 51.1072 27.6261 48.964 28.735 47.1883C29.8543 45.4191 31.627 44.1655 33.666 43.7013C35.7049 43.2372 37.8444 43.6002 39.617 44.7111L59.3518 57.5843C61.1183 58.7051 62.3702 60.4807 62.834 62.5232C63.2978 64.5657 62.9358 66.7091 61.827 68.485Z" fill="#BE7C5E"/>
</g>
<defs>
<linearGradient id="paint0_linear" x1="88.4524" y1="160.447" x2="88.4524" y2="95.8375" gradientUnits="userSpaceOnUse">
<stop stop-color="#808080" stop-opacity="0.25"/>
<stop offset="0.54" stop-color="#808080" stop-opacity="0.12"/>
<stop offset="1" stop-color="#808080" stop-opacity="0.1"/>
</linearGradient>
<linearGradient id="paint1_linear" x1="19122.6" y1="9849.52" x2="19122.6" y2="4868.74" gradientUnits="userSpaceOnUse">
<stop stop-color="#808080" stop-opacity="0.25"/>
<stop offset="0.54" stop-color="#808080" stop-opacity="0.12"/>
<stop offset="1" stop-color="#808080" stop-opacity="0.1"/>
</linearGradient>
<linearGradient id="paint2_linear" x1="42517.9" y1="85024.8" x2="42517.9" y2="9372.19" gradientUnits="userSpaceOnUse">
<stop stop-color="#808080" stop-opacity="0.25"/>
<stop offset="0.54" stop-color="#808080" stop-opacity="0.12"/>
<stop offset="1" stop-color="#808080" stop-opacity="0.1"/>
</linearGradient>
<linearGradient id="paint3_linear" x1="21904.6" y1="37209" x2="21904.6" y2="20038" gradientUnits="userSpaceOnUse">
<stop stop-color="#808080" stop-opacity="0.25"/>
<stop offset="0.54" stop-color="#808080" stop-opacity="0.12"/>
<stop offset="1" stop-color="#808080" stop-opacity="0.1"/>
</linearGradient>
<linearGradient id="paint4_linear" x1="45156.8" y1="12889.2" x2="45156.8" y2="11825.7" gradientUnits="userSpaceOnUse">
<stop stop-color="#808080" stop-opacity="0.25"/>
<stop offset="0.54" stop-color="#808080" stop-opacity="0.12"/>
<stop offset="1" stop-color="#808080" stop-opacity="0.1"/>
</linearGradient>
<linearGradient id="paint5_linear" x1="14478.1" y1="13882.9" x2="14478.1" y2="10481.6" gradientUnits="userSpaceOnUse">
<stop stop-color="#808080" stop-opacity="0.25"/>
<stop offset="0.54" stop-color="#808080" stop-opacity="0.12"/>
<stop offset="1" stop-color="#808080" stop-opacity="0.1"/>
</linearGradient>
<linearGradient id="paint6_linear" x1="11675.6" y1="14856.5" x2="11675.6" y2="12177.2" gradientUnits="userSpaceOnUse">
<stop stop-color="#808080" stop-opacity="0.25"/>
<stop offset="0.54" stop-color="#808080" stop-opacity="0.12"/>
<stop offset="1" stop-color="#808080" stop-opacity="0.1"/>
</linearGradient>
<linearGradient id="paint7_linear" x1="14198.7" y1="15351" x2="14198.7" y2="8122.89" gradientUnits="userSpaceOnUse">
<stop stop-color="#808080" stop-opacity="0.25"/>
<stop offset="0.54" stop-color="#808080" stop-opacity="0.12"/>
<stop offset="1" stop-color="#808080" stop-opacity="0.1"/>
</linearGradient>
<linearGradient id="paint8_linear" x1="16782.6" y1="12274.4" x2="16782.6" y2="8080.41" gradientUnits="userSpaceOnUse">
<stop stop-color="#808080" stop-opacity="0.25"/>
<stop offset="0.54" stop-color="#808080" stop-opacity="0.12"/>
<stop offset="1" stop-color="#808080" stop-opacity="0.1"/>
</linearGradient>
<clipPath id="clip0">
<rect width="161" height="169" fill="white"/>
</clipPath>
</defs>
</svg>
