<svg width="165" height="163" viewBox="0 0 165 163" fill="none" xmlns="http://www.w3.org/2000/svg">
<g clip-path="url(#clip0)">
<path d="M164.998 88.8842H75.915V144.799H164.998V88.8842Z" fill="url(#paint0_linear)"/>
<path d="M163.879 90.2749H75.915V142.459H163.879V90.2749Z" fill="white"/>
<g opacity="0.6">
<path opacity="0.6" d="M160.075 94.2502H148.884V102.525H160.075V94.2502Z" fill="#F9D626"/>
<path opacity="0.6" d="M150.898 115.947H107.924V118.631H150.898V115.947Z" fill="#F9D626"/>
<path opacity="0.6" d="M139.259 122.656H107.924V124.445H139.259V122.656Z" fill="#F9D626"/>
</g>
<path d="M94.6674 9.81433H19.5627C18.5459 9.81433 17.7217 10.638 17.7217 11.6539V147.774C17.7217 148.79 18.5459 149.613 19.5627 149.613H94.6674C95.6842 149.613 96.5084 148.79 96.5084 147.774V11.6539C96.5084 10.638 95.6842 9.81433 94.6674 9.81433Z" fill="url(#paint1_linear)"/>
<path d="M92.2734 12.0935H21.5851C20.5684 12.0935 19.7441 12.9171 19.7441 13.9331V143.285C19.7441 144.301 20.5684 145.125 21.5851 145.125H92.2734C93.2901 145.125 94.1144 144.301 94.1144 143.285V13.9331C94.1144 12.9171 93.2901 12.0935 92.2734 12.0935Z" fill="white"/>
<path d="M85.7184 21.4977H28.1416V129.757H85.7184V21.4977Z" fill="#CCD2DC"/>
<path d="M5.18555 87.8651L120.183 32.3973" stroke="white" stroke-width="7" stroke-miterlimit="10"/>
<path d="M36.0244 0.388184L76.2812 53.573" stroke="white" stroke-width="7" stroke-miterlimit="10"/>
<path d="M2.79785 19.4741L44.4262 68.9374" stroke="white" stroke-width="7" stroke-miterlimit="10"/>
<path d="M32.5166 74.6824L97.7003 162.617" stroke="white" stroke-width="7" stroke-miterlimit="10"/>
<path d="M0.410156 149.694L54.7615 104.69" stroke="white" stroke-width="7" stroke-miterlimit="10"/>
<path d="M105.858 79.7137L64.9951 118.496" stroke="white" stroke-width="7" stroke-miterlimit="10"/>
<path d="M56.9303 142.144C59.466 142.144 61.5217 140.09 61.5217 137.556C61.5217 135.023 59.466 132.969 56.9303 132.969C54.3945 132.969 52.3389 135.023 52.3389 137.556C52.3389 140.09 54.3945 142.144 56.9303 142.144Z" fill="#DBDBDB"/>
<path d="M48.2077 17.3695C48.7151 17.3695 49.1264 16.9585 49.1264 16.4515C49.1264 15.9446 48.7151 15.5336 48.2077 15.5336C47.7004 15.5336 47.2891 15.9446 47.2891 16.4515C47.2891 16.9585 47.7004 17.3695 48.2077 17.3695Z" fill="#DBDBDB"/>
<path d="M66.2935 15.7635H52.615C52.4625 15.7635 52.3389 15.8871 52.3389 16.0395V16.8636C52.3389 17.016 52.4625 17.1396 52.615 17.1396H66.2935C66.4461 17.1396 66.5697 17.016 66.5697 16.8636V16.0395C66.5697 15.8871 66.4461 15.7635 66.2935 15.7635Z" fill="#DBDBDB"/>
<path d="M69.6503 66.3711C69.6503 73.3781 56.9475 93.2293 56.9475 93.2293C56.9475 93.2293 44.2447 73.3873 44.2447 66.3711C44.1905 64.671 44.4788 62.9774 45.0925 61.3908C45.7061 59.8043 46.6326 58.3572 47.8169 57.1354C49.0013 55.9137 50.4192 54.9422 51.9866 54.2788C53.554 53.6154 55.2389 53.2736 56.9411 53.2736C58.6433 53.2736 60.3281 53.6154 61.8955 54.2788C63.4629 54.9422 64.8809 55.9137 66.0652 57.1354C67.2495 58.3572 68.176 59.8043 68.7897 61.3908C69.4033 62.9774 69.6916 64.671 69.6374 66.3711H69.6503Z" fill="url(#paint2_linear)"/>
<path d="M56.9527 69.3218C59.0726 69.3218 60.7912 67.6045 60.7912 65.4862C60.7912 63.3679 59.0726 61.6506 56.9527 61.6506C54.8328 61.6506 53.1143 63.3679 53.1143 65.4862C53.1143 67.6045 54.8328 69.3218 56.9527 69.3218Z" fill="url(#paint3_linear)"/>
<path d="M66.8481 67.9402C66.8481 73.4002 56.9528 88.8639 56.9528 88.8639C56.9528 88.8639 47.0576 73.3946 47.0576 67.9402C47.0397 66.6305 47.2824 65.3303 47.7716 64.1151C48.2608 62.8999 48.9868 61.7939 49.9073 60.8614C50.8279 59.9289 51.9247 59.1885 53.134 58.6831C54.3433 58.1777 55.6411 57.9175 56.9519 57.9175C58.2628 57.9175 59.5605 58.1777 60.7698 58.6831C61.9792 59.1885 63.076 59.9289 63.9965 60.8614C64.9171 61.7939 65.643 62.8999 66.1322 64.1151C66.6215 65.3303 66.8642 66.6305 66.8463 67.9402H66.8481Z" fill="#0859F5"/>
<path d="M56.9525 70.2342C58.6048 70.2342 59.9441 68.8958 59.9441 67.2449C59.9441 65.5939 58.6048 64.2555 56.9525 64.2555C55.3003 64.2555 53.9609 65.5939 53.9609 67.2449C53.9609 68.8958 55.3003 70.2342 56.9525 70.2342Z" fill="white"/>
</g>
<defs>
<linearGradient id="paint0_linear" x1="120.458" y1="144.799" x2="120.458" y2="88.8842" gradientUnits="userSpaceOnUse">
<stop stop-color="#808080" stop-opacity="0.25"/>
<stop offset="0.54" stop-color="#808080" stop-opacity="0.12"/>
<stop offset="1" stop-color="#808080" stop-opacity="0.1"/>
</linearGradient>
<linearGradient id="paint1_linear" x1="24460.5" y1="113705" x2="24460.5" y2="7468.08" gradientUnits="userSpaceOnUse">
<stop stop-color="#808080" stop-opacity="0.25"/>
<stop offset="0.54" stop-color="#808080" stop-opacity="0.12"/>
<stop offset="1" stop-color="#808080" stop-opacity="0.1"/>
</linearGradient>
<linearGradient id="paint2_linear" x1="56.953" y1="93.2219" x2="56.953" y2="53.6852" gradientUnits="userSpaceOnUse">
<stop stop-opacity="0.12"/>
<stop offset="0.55" stop-opacity="0.09"/>
<stop offset="1" stop-opacity="0.02"/>
</linearGradient>
<linearGradient id="paint3_linear" x1="2428.04" y1="2952.37" x2="2428.04" y2="2632.48" gradientUnits="userSpaceOnUse">
<stop stop-opacity="0.12"/>
<stop offset="0.55" stop-opacity="0.09"/>
<stop offset="1" stop-opacity="0.02"/>
</linearGradient>
<clipPath id="clip0">
<rect width="165" height="163" fill="white"/>
</clipPath>
</defs>
</svg>
